<svg width="277" height="59" fill="none" xmlns="http://www.w3.org/2000/svg"><path d="M57.576 58.365c-2.596 0-4.618-.678-6.066-2.033-1.447-1.398-2.17-3.303-2.17-5.718V21.52c0-2.372.702-4.236 2.107-5.59 1.447-1.356 3.447-2.034 6.002-2.034h8.939c4.427 0 8.279.932 11.556 2.796 3.32 1.82 5.875 4.404 7.663 7.75 1.787 3.345 2.681 7.263 2.681 11.752 0 4.49-.894 8.407-2.681 11.752-1.788 3.304-4.342 5.866-7.662 7.687-3.278 1.821-7.13 2.732-11.557 2.732h-8.812zm8.173-3.939c5.619 0 9.96-1.588 13.026-4.764 3.107-3.177 4.66-7.666 4.66-13.468s-1.553-10.312-4.66-13.531c-3.108-3.219-7.45-4.828-13.026-4.828h-8.237c-1.021 0-1.851.339-2.49 1.016-.596.678-.894 1.567-.894 2.669v29.222c0 1.1.298 1.99.894 2.668.639.677 1.469 1.016 2.49 1.016h8.237zM39.93 58.643c-.723 0-1.298-.212-1.723-.636-.426-.465-.639-1.1-.639-1.905V15.445c0-.805.213-1.419.639-1.842.425-.466 1-.7 1.724-.7.766 0 1.362.234 1.788.7.425.465.638 1.08.638 1.842v40.657c0 .762-.213 1.376-.638 1.842-.426.466-1.022.699-1.788.699zm-23.84 0c-6.683 0-11.855-2.414-15.515-7.242C.192 50.935 0 50.469 0 50.003c0-.635.298-1.186.894-1.652.383-.338.851-.508 1.405-.508.808 0 1.468.339 1.979 1.017 1.447 1.99 3.086 3.43 4.916 4.32 1.873.889 4.172 1.334 6.896 1.334 3.065 0 5.428-.89 7.088-2.669 1.702-1.82 2.554-4.362 2.554-7.623V15.445c0-.805.191-1.419.574-1.842.426-.466 1.022-.7 1.788-.7s1.362.234 1.788.7c.468.423.702 1.037.702 1.842v28.523c0 2.88-.617 5.442-1.851 7.687A13.106 13.106 0 0123.56 56.8c-2.171 1.229-4.661 1.843-7.47 1.843zm223.238-36.806c0-2.414.703-4.34 2.107-5.78 1.448-1.44 3.533-2.16 6.258-2.16h11.94c11.578 0 17.367 4.785 17.367 14.356 0 4.617-1.405 8.11-4.214 10.482-2.81 2.372-7.045 3.558-12.706 3.558l12.387 12.768c.383.382.574.869.574 1.462 0 .762-.319 1.376-.957 1.842-.511.38-1.043.572-1.597.572-.851 0-1.66-.424-2.426-1.271l-14.686-15.373h-8.619v13.975c0 .847-.256 1.525-.767 2.033-.468.466-1.128.699-1.979.699-.851 0-1.511-.233-1.979-.699-.469-.508-.703-1.186-.703-2.033v-34.43zm20.624 16.072c3.916 0 6.811-.72 8.684-2.16 1.915-1.482 2.873-3.98 2.873-7.496 0-3.557-.958-6.098-2.873-7.623-1.916-1.567-4.81-2.35-8.684-2.35h-11.94c-.979 0-1.767.317-2.363.953-.596.635-.893 1.503-.893 2.604V37.91h15.196zm-62.151 20.734c-.723 0-1.298-.212-1.724-.636-.425-.465-.638-1.1-.638-1.905v-24.84c0-5.759 1.617-10.248 4.852-13.467 3.278-3.26 7.811-4.891 13.601-4.891 5.746 0 10.258 1.63 13.536 4.891 3.278 3.261 4.916 7.75 4.916 13.468v24.839c0 .804-.212 1.44-.638 1.905-.426.424-1.022.636-1.788.636-.724 0-1.32-.212-1.788-.636-.425-.465-.638-1.1-.638-1.905V41.808h-27.264v14.294c0 .804-.213 1.44-.639 1.905-.426.424-1.022.636-1.788.636zm29.691-20.773v-6.798c0-4.531-1.171-8.004-3.512-10.418-2.341-2.456-5.704-3.685-10.088-3.685-4.427 0-7.811 1.207-10.153 3.621-2.341 2.414-3.511 5.908-3.511 10.482v6.798h27.264zm-57.617 20.773c-4.427 0-8.322-.932-11.685-2.796-3.32-1.905-5.896-4.573-7.726-8.004-1.83-3.473-2.745-7.475-2.745-12.006 0-4.574.915-8.598 2.745-12.07 1.83-3.473 4.406-6.141 7.726-8.005 3.363-1.905 7.236-2.858 11.621-2.858 3.661 0 7.023.614 10.088 1.842 3.108 1.228 5.534 2.943 7.279 5.146.341.38.511.847.511 1.397 0 .678-.298 1.228-.894 1.652a2.26 2.26 0 01-1.277.381c-.809 0-1.49-.318-2.043-.953-1.362-1.736-3.214-3.07-5.555-4.002-2.341-.932-5.044-1.398-8.109-1.398-3.533 0-6.598.763-9.195 2.287-2.596 1.525-4.597 3.706-6.002 6.544-1.362 2.837-2.043 6.183-2.043 10.037 0 3.811.681 7.136 2.043 9.973 1.405 2.795 3.406 4.955 6.002 6.48 2.639 1.525 5.726 2.287 9.259 2.287 3.277 0 6.129-.466 8.556-1.398 2.468-.974 4.405-2.308 5.81-4.002.639-.677 1.32-1.016 2.043-1.016.511 0 .937.148 1.277.444.596.509.894 1.06.894 1.652 0 .508-.191.995-.575 1.461-1.745 2.118-4.235 3.812-7.47 5.082-3.193 1.229-6.704 1.843-10.535 1.843z" fill="#fff"/><path fill-rule="evenodd" clip-rule="evenodd" d="M114.735.11c-.273.04-.875.123-1.338.182-.77.099-.842.157-.842.674 0 .608.825 1.368 1.516 1.397.281.012.297.042.069.128-.613.232-.673 1.04-.078 1.04.152 0 .276.074.276.166 0 .091-1.002.247-2.228.345-1.88.15-2.238.233-2.293.524-.054.28.078.346.692.348.743.003.748.008.262.257-.273.14-.525.183-.561.096-.094-.224-1.024-.199-1.024.028 0 .114-.234.106-.595-.02-.726-.251-.735-.447-.081-1.743.692-1.37.519-1.435-.217-.082-.436.803-.777 1.162-1.333 1.406-.411.18-.747.41-.747.51 0 .1-.227.034-.505-.147-.277-.18-.673-.276-.879-.21-.206.065-.544.013-.75-.115-.608-.378-1.484.15-1.658 1-.167.817.014 3.324.251 3.47.218.133 1.933-.855 2.491-1.436.417-.434.58-.456 3.666-.495l3.23-.042-3.072-.106c-2.925-.101-3.005-.115-1.684-.28.763-.094 2.257-.174 3.319-.177 1.092-.003 1.933-.087 1.933-.194 0-.103.156-.127.346-.053.191.074.699.177 1.129.23.43.053.846.135.924.183.079.049.173.001.21-.105.098-.286.958-.006.958.312 0 .313.33.372.429.078.082-.242 1.949-.436 1.949-.203 0 .182.971.136 1.811-.087.314-.083.578-.052.658.078.074.12.236.154.36.078.346-.213 1.116-.255 1.232-.068.057.092.42.08.805-.025.386-.106 1.121-.137 1.634-.068.512.068 1.288.167 1.724.219 2.041.242 5.825.824 6.165.946.288.105.819-1.026 1.156-2.462.262-1.12.257-1.159-.178-1.442-.396-.259-.482-.257-.751.011-.168.167-.56.324-.871.35-.933.076-1.457.312-1.474.663-.009.196-.096.113-.212-.202-.173-.471-.271-.52-.826-.414-.347.067-.705.247-.797.4-.139.234-.207.224-.415-.06-.153-.208-.299-.26-.376-.136-.148.239-1.899.094-2.254-.186a.465.465 0 00-.493-.033c-.356.22-1.745.267-1.745.06 0-.094-.234-.083-.52.025-.357.135-.6.13-.778-.017-.304-.251-1.675-.046-1.675.251 0 .126-.091.132-.248.015-.136-.1-.538-.178-.892-.172-.534.01-.644-.061-.644-.42 0-.237.079-.48.175-.539.243-.15.402-1.087.204-1.209-.09-.055-.116-.223-.058-.373.185-.48-.511-1.291-1.109-1.291-.474 0-.532-.064-.449-.493.093-.487.077-.493-1.167-.467-.694.015-1.485.06-1.757.102zm-10.207 6.97c-.071.115.13.197.484.197.333 0 .606-.089.606-.197 0-.109-.217-.197-.483-.197-.267 0-.539.088-.607.197zm-1.248.236c-.27.269-.317.875-.081 1.02.087.054.555-.091 1.041-.322.848-.402.861-.422.338-.492-.3-.04-.545-.157-.545-.258 0-.261-.471-.228-.753.052zm13.981.289c.137.055.36.055.496 0s.025-.1-.248-.1c-.272 0-.384.045-.248.1zm2.517.173c1.54.257 2.003.23 1.797-.102-.057-.09-.838-.164-1.738-.163l-1.634.003 1.575.262zm-.769 2.641c.05.08-.251.114-1.014.114-1.039 0-2.858.21-3.631.42-.201.054-.509.1-.684.1-.174 0-.762.135-1.306.301-.544.165-1.19.33-1.436.366-.996.144-3.311 1.045-3.19 1.24.035.057.008.068-.061.025-.212-.13-3.094 1.501-3.777 2.138-.143.134-.298.245-.343.245-.045 0-.116.048-.157.105a1.11 1.11 0 01-.284.225c-.115.066-.196.175-.18.241.016.067-.023.09-.086.051s-.325.148-.583.417c-.356.369-.442.52-.357.622.086.102.024.213-.255.456-.202.177-.368.394-.368.481 0 .088-.062.16-.138.16-.169 0-.594.433-.594.604 0 .068-.067.123-.149.123-.083 0-.178.089-.213.197a.396.396 0 01-.242.244c-.479.125-.563 1.072-.101 1.139.213.03.184.083-.312.562-.3.29-.618.698-.706.906-.097.232-.149.48-.153.68-.004.192.036.342.121.394.225.138.796.04 1.336-.23.431-.216.595-.383.913-.933.213-.369.452-.67.531-.67.157 0 1.012-.723 2.457-2.08.518-.487.912-.803.876-.703-.092.257.043.228.514-.11.362-.26 1.538-.852 1.694-.852.033 0-.031.074-.143.165-.2.162-.2.164.006.105.137-.038.085.04-.149.226l-.575.457c-.223.179-.174.37.066.257.075-.035.364-.229.644-.43.644-.462.857-.483.613-.06-.096.167-.206.285-.243.262-.038-.023-.274.097-.526.266-.251.17-.504.31-.561.314-.112.005-.784.583-.784.674 0 .03.082.01.182-.044a7.06 7.06 0 01.69-.28c.295-.104.697-.37.965-.636.253-.252.511-.426.574-.387.062.038.206-.03.319-.15.169-.18 1.173-.762 1.267-.733.072.021.463-.156.602-.273.246-.207 1.254-.573 1.254-.456 0 .059-.105.148-.235.2-.218.088-.09.166.183.111.058-.011-.013.108-.157.265-.227.248-.234.274-.052.205.552-.21 1.349-.474 1.428-.474.048 0 .088.095.088.21 0 .177.045.2.287.14.158-.039.394-.14.525-.223.161-.104.378-.133.679-.092.252.034.356.025.241-.021-.19-.077-.191-.085-.012-.153.332-.127 1.675-.38 2.294-.433.531-.045.581-.033.443.105-.086.085-.194.155-.239.155-.046 0-.404.101-.796.224-.497.156-.681.258-.604.333.076.076.147.071.234-.016.069-.069.34-.119.601-.112l.476.012-.444.107c-.449.107-.583.313-.279.43.091.034.808.063 1.594.063 2.17 0 4.751.391 6.114.924.161.064.397.112.522.108.338-.012-1.093-.494-2.176-.733-1.012-.224-1.494-.467-.679-.343 1.453.221 3.078.82 5.122 1.888 2.619 1.368 4.746 3.362 6.221 5.836.826 1.383 1.075 1.898 1.527 3.157.791 2.207 1.043 3.781 1.027 6.427-.018 2.918-.059 3.136-1.188 6.285-.204.569-.351 1.053-.327 1.077.058.057.648-1.203.963-2.058.138-.371.29-.77.339-.884.049-.114.174-.408.276-.653.103-.245.225-.408.272-.361.182.181-.719 3.104-1.243 4.03-.097.172-.296.534-.442.804-.686 1.274-1.331 2.218-1.963 2.87-.187.193-.34.393-.34.445 0 .051-.047.094-.104.094-.058 0-.105.057-.105.128 0 .07.222-.129.494-.442.271-.314.671-.751.888-.973.217-.221.395-.436.395-.477 0-.04.243-.323.539-.625.297-.303.51-.475.474-.381-.036.093-.02.17.036.17.056 0 .101.07.101.155 0 .086-.05.157-.111.157-.06 0-.084.041-.052.093.067.108-.241.263-.454.227-.11-.019-.103.018.028.148.095.095.141.227.102.294-.319.542-.906 1.317-1.182 1.56-.184.162-.305.324-.269.36.036.036.182-.073.325-.242.661-.787 1.195-1.498 1.195-1.592 0-.057.037-.119.082-.138.181-.076.554-.717.483-.83-.045-.073-.029-.093.04-.05.063.038.16-.013.217-.114.057-.1.133-.153.169-.117.145.144-1.387 2.345-2.341 3.365-.967 1.032-1.077 1.23-.375.676.217-.172.358-.312.314-.312-.044 0 .055-.105.221-.232.166-.128.317-.269.337-.313.019-.045.231-.28.47-.522.459-.466 1.219-1.6 1.219-1.82 0-.071.071-.13.157-.13.086 0 .157-.047.157-.105 0-.057.138-.294.308-.527.169-.232.382-.647.474-.922.092-.274.325-.806.519-1.183.225-.438.309-.698.232-.724-.076-.025.016-.301.254-.76.22-.423.366-.847.355-1.03-.01-.172.045-.36.122-.417.077-.057.148-.244.159-.416.01-.171.044-.359.075-.416.031-.057.071-.196.089-.308.017-.112.125-.36.238-.552.138-.233.177-.407.119-.524-.049-.097-.054-.293-.011-.436.043-.143.083-.213.089-.156.006.057.105-.036.22-.208.163-.243.195-.41.144-.754-.04-.274-.024-.442.042-.442.135 0 .088 1.822-.075 2.912-.296 1.991-.828 3.952-1.072 3.952-.059 0-.084.064-.054.141.056.144-.974 2.277-1.242 2.572-.082.09-.149.21-.149.264 0 .056-.211.45-.468.876-.258.427-.47.842-.471.923-.002.157-.101.276-.829.998-.254.252-.502.433-.552.402-.049-.03-.076.007-.061.083.016.076-.033.125-.109.109s-.11.018-.075.074c.068.11-.651.87-1.394 1.475-.35.284-.419.386-.295.434.111.042.421-.2.97-.76.444-.453.845-.8.892-.771.075.046-.798 1.293-.905 1.293-.023 0-.012-.082.024-.182.036-.1.038-.159.004-.13-.148.123-1.096.94-1.383 1.193-.238.209-.256.248-.078.161.162-.078.235-.08.235-.004 0 .06-.164.187-.366.283-.201.095-.366.211-.366.258 0 .047-.068.085-.151.085-.084 0-.2.082-.26.182-.094.16-.122.162-.222.026-.102-.139-.109-.139-.071 0 .026.09-.1.254-.3.39-.349.237-.624.312-.517.139.032-.052-.134-.002-.37.111-.236.114-.4.235-.364.27.035.035.119.008.187-.06.068-.067.171-.122.228-.122.173 0-.29.305-.469.308-.092.002-.266.09-.388.194-.121.104-.422.274-.669.377a44.97 44.97 0 00-1.233.552c-1.117.519-1.268.574-2.451.892-.284.077-.537.198-.561.27-.034.1.006.105.171.017.273-.146.437-.145.437.001 0 .063-.069.089-.154.057-.084-.033-.183-.011-.219.047-.037.06-.137.08-.222.048-.086-.033-.305.01-.486.094a2.945 2.945 0 01-.592.201 3.422 3.422 0 00-.314.066.877.877 0 01-.246 0c-.127-.014-.168.022-.118.103.056.09-.01.104-.25.052-.208-.046-.326-.031-.326.04 0 .062-.071.113-.157.113-.086 0-.157-.047-.157-.104a.104.104 0 00-.104-.104c-.058 0-.105.069-.105.153 0 .093-.061.129-.157.093-.087-.034-.157-.003-.157.068 0 .172.864.072 2.793-.322 1.691-.346 1.632-.338 1.546-.2-.036.057.004.104.089.104.262 0 .486-.12.486-.26 0-.145.224-.26.506-.26.097 0 .352-.094.567-.208.214-.115.39-.162.39-.104a.105.105 0 01-.105.104.104.104 0 00-.104.102c0 .057.241.008.536-.107.866-.34.702-.155-.191.215-2.122.88-3.78 1.295-6.251 1.566-.739.081-2.887.112-3.607.051l-1.202-.102c-1.004-.085-2.806-.458-3.92-.81-2.248-.713-4.221-1.717-6.472-3.294-.541-.379-1.026-.676-1.079-.66-.053.015-.068-.017-.034-.072.034-.054-.042-.172-.17-.26-.18-.126-.251-.133-.319-.034-.064.093-.08.085-.058-.03.039-.206-1.387-1.542-1.575-1.477-.078.027-.257-.074-.396-.224-.254-.272-.204-.39.06-.142.077.071.058.001-.043-.155-.099-.157-.22-.262-.267-.233-.047.03-.12-.002-.162-.069-.047-.076-.03-.094.045-.047.2.123.13-.077-.13-.371-.135-.152-.332-.27-.437-.26-.119.01-.206-.064-.228-.191-.03-.172-.017-.18.073-.052.059.085.109.113.11.061.003-.172-.534-.794-.633-.733-.054.033-.145-.065-.204-.217-.088-.23-.132-.256-.261-.15l-.029.023c-.101.079-.126.064-.126-.055 0-.035.009-.07.023-.101a.184.184 0 01.1-.1c.068-.023.088-.098.043-.169-.046-.074-.168-.1-.293-.06a.886.886 0 01-.052.014c-.106.027-.131.005-.084-.07a.098.098 0 00.014-.041c.007-.066-.044-.15-.136-.22a.476.476 0 00-.022-.017c-.121-.084-.22-.206-.22-.271 0-.04.025-.041.064-.01.024.02.053.051.084.093.081.111.182.168.224.127.041-.042.012-.152-.066-.245-.182-.219-.276-.378-.75-1.274-.27-.51-.417-.7-.53-.684a.1.1 0 00-.022.006c-.101.039-.138.133-.098.257.034.108.013.195-.05.195-.06 0-.11-.073-.11-.162 0-.09-.051-.13-.114-.092-.063.038-.084.183-.048.327.042.165.026.233-.044.19-.06-.037-.108-.134-.108-.217 0-.082-.05-.15-.108-.15-.14 0 .052.373.25.49a.548.548 0 01.2.239c.038.099.065.061.075-.105.014-.24.022-.243.105-.051.05.114.093.143.097.065.006-.115.038-.118.165-.014.178.148.208.477.052.573-.058.035-.105.11-.105.168 0 .057.047.075.105.04.098-.06.15.146.113.44-.01.07.062.246.159.392.169.257.181.26.382.08.2-.178.205-.177.162.024-.024.114-.1.196-.169.182-.186-.04-.15.128.085.404.18.212.2.217.137.038-.066-.191-.056-.196.123-.052.18.144.19.138.133-.078-.09-.348 0-.284.207.148.101.21.249.404.329.43.08.025.116 0 .081-.056-.037-.061.042-.082.197-.053.142.027.29.099.327.159.041.066.004.085-.093.047a.284.284 0 00-.277.054c-.085.084-.181.054-.36-.112-.256-.24-.49-.299-.49-.123 0 .057.043.104.096.104.185 0 .751.652.694.799-.031.081-.012.12.042.087.115-.07.366.348.267.447-.178.176-2.153-2.455-2.813-3.748-.11-.213-.238-.363-.288-.332-.05.03-.09-.006-.09-.08 0-.073-.137-.416-.305-.76a39.29 39.29 0 01-.62-1.354c-.227-.526-.374-.737-.53-.76-.12-.02-.217-.104-.217-.19 0-.084-.044-.127-.098-.094-.057.035-.03.263.067.552.189.568.344.786.346.487.002-.216.083-.056 1.048 2.062.146.32.204.597.163.78-.057.257-.044.25.13-.07.107-.194.22-.31.25-.26.094.16-.04.772-.154.702-.06-.037-.083-.002-.054.08.03.078.1.134.158.122.058-.012.189.07.29.182.103.112.136.204.074.204-.061 0-.133-.059-.159-.13-.025-.072-.085-.095-.132-.051-.046.044.018.217.143.386.125.168.228.355.228.414 0 .06.07.109.157.109.086 0 .156.067.156.15a.29.29 0 00.121.224c.075.046.092.028.046-.046-.04-.066-.025-.12.036-.12.109 0 .151.136.12.384-.009.069.084.178.205.242.124.066.196.181.165.262-.031.08-.011.173.044.206.055.034.103 0 .106-.074.004-.075.05-.031.101.098.053.128.14.234.194.234.054 0 .086.081.071.182-.014.1.072.33.191.512.244.37.92.753.986.559.029-.087.079-.085.188.005.243.2.287.027.106-.422-.093-.231-.144-.42-.113-.42.112 0 .441.37.509.572.038.114.25.348.47.52.221.171.381.346.357.389-.025.042.027.048.117.014.101-.038.162-.004.162.093 0 .085.07.212.157.284.128.106.156.098.156-.046 0-.097.05-.144.112-.106.062.038.089.128.061.2-.073.189.82 1.037.984.936.078-.048.104-.038.064.026-.076.122.315.513.414.414.036-.036.157-.016.27.044.112.06.176.136.142.17-.08.08.357.547.507.542.061-.001.027-.067-.077-.145-.136-.103-.155-.165-.065-.22.071-.043.166-.003.221.094.052.094.143.17.201.17.058 0 .077-.046.041-.103-.035-.057-.037-.104-.003-.104.033 0 .105.117.16.26.055.143.157.26.227.26.1 0 .1-.028.003-.125-.18-.18-.155-.341.029-.189.085.07.14.222.122.339-.026.168.124.293.744.62.427.225.804.383.836.35.033-.032.005-.06-.062-.06s-.122-.049-.122-.11c0-.06.047-.08.105-.045.159.098.124-.017-.06-.2-.29-.29.131-.203.45.091.23.213.242.247.071.202-.16-.041-.21.003-.227.203-.012.144.045.28.132.314.085.032.143.007.129-.055-.014-.062.041-.137.122-.166.106-.038.13.008.087.171-.048.182.013.258.324.399.601.273.614.269.226-.082-.334-.302-.343-.325-.105-.258.144.04.318.076.387.082.068.005.115.054.104.109-.011.054.144.16.346.235.202.075.281.139.176.143-.104.004-.165.046-.136.093.03.047.248.07.485.052.265-.02.518.026.656.123l.224.156h-.232c-.128 0-.232.048-.232.106 0 .061.12.08.287.044.176-.039.238-.028.16.028-.089.063-.026.128.209.213.303.11.317.108.135-.03-.111-.083-.172-.18-.136-.215.08-.081.703.186.703.302 0 .046.048.055.106.02.058-.036.179.008.269.097.104.104.255.14.416.1.177-.044.272-.013.317.103.046.12.139.148.33.1.178-.044.243-.03.196.046-.044.072.112.14.429.186a4.8 4.8 0 01.74.162c.155.058.218.053.177-.014-.082-.132.056-.132.261 0 .114.073.119.101.02.102-.075.001-.111.044-.079.095.033.053-.107.057-.334.007a73.914 73.914 0 00-1.279-.256 17.183 17.183 0 01-1.214-.27 6.982 6.982 0 00-.522-.14 2.595 2.595 0 01-.364-.106c-.106-.041-.165-.01-.165.089 0 .175.389.302.636.208.092-.035.165-.01.165.058 0 .067-.047.092-.105.057-.057-.035-.104-.017-.104.041s.165.136.366.174c.224.042.366.128.366.224 0 .114.069.138.261.09.164-.04.261-.021.261.054 0 .082.05.078.162-.015.13-.108.135-.153.026-.23-.092-.066-.068-.073.074-.022.115.041.3.084.412.096.112.011.221.075.244.142.022.067.157.122.299.122.143 0 .231.045.197.1-.035.056-.214.08-.398.054-.299-.042-.307-.037-.075.045.144.05.426.094.627.095.295.003.326-.014.157-.086-.179-.076-.182-.09-.026-.097.101-.004.183-.054.183-.111s.047-.104.105-.104c.057 0 .094.035.082.078-.062.217.301.546.603.546.177 0 .577.044.889.097.955.162 2.982.216 3.116.083.088-.087.118-.087.118.001 0 .167 1.026.137 1.38-.04.34-.17.777-.184.874-.027.08.13.125.123 1.98-.304 1.866-.429 3.042-.816 3.308-1.089.175-.179.21-.19.16-.047-.035.1-.019.182.037.182a.103.103 0 00.101-.104c0-.057.092-.104.204-.104.306 0 .74-.224.665-.343-.036-.058-.013-.073.051-.034.063.039.331-.03.595-.153.264-.124.508-.197.542-.162.035.034.245-.08.467-.256.224-.177.403-.26.403-.187 0 .085.083.06.235-.069.347-.295.702-.475.808-.41.051.032.127.002.168-.064.05-.081.027-.097-.071-.046-.081.041-.055.002.056-.088.237-.192.418-.217.31-.044-.047.075-.029.092.048.045.067-.042.095-.119.062-.172-.054-.088.089-.141.292-.11.043.007.078-.057.078-.143 0-.163.009-.167.39-.207.34-.036 1.167-.749 1.245-1.074.095-.397.235-.54.53-.54.187 0 .55-.291 1.334-1.076.592-.592 1.109-1.176 1.147-1.297.039-.122.209-.319.378-.439s.308-.283.308-.363c0-.08.094-.195.209-.256a.43.43 0 00.209-.368c0-.159.06-.256.157-.256.086 0 .156-.07.156-.156s.048-.156.107-.156c.058 0 .188-.176.287-.39.1-.215.257-.474.349-.576.092-.102.257-.37.366-.597.109-.226.222-.412.252-.412.083-.002 1.095-2.04 1.446-2.914.548-1.36 1.386-3.963 1.45-4.503.052-.43.029-.544-.131-.66-.507-.37-.705-.133-1.053 1.263-.297 1.187-.84 2.961-.98 3.197-.058.1-.106.324-.106.5 0 .184-.044.293-.104.256-.057-.035-.079 0-.05.075.03.077-.161.536-.423 1.02-.263.484-.504.984-.536 1.11a.78.78 0 01-.21.355c-.083.07-.239.317-.346.55-.107.235-.34.608-.517.83-.178.222-.323.488-.323.59a.546.546 0 01-.131.325c-.774.816-1.228 1.38-1.228 1.526 0 .097-.094.244-.209.327-.115.082-.209.21-.209.283 0 .073-.044.133-.098.133-.054 0-.253.14-.442.312-.189.171-.415.313-.503.313-.141.002-.141.014-.003.103.136.087.133.1-.02.102-.097.001-.21.056-.251.122-.046.074-.029.092.046.046.066-.041.121-.033.121.017 0 .183-1.078.96-1.331.96-.26 0-1.344.595-1.78.976-.239.21-.424.325-1.75 1.097-1.196.696-1.706.947-2.452 1.205-.257.088-.492.195-.523.236-.093.123-.752.444-.683.333.086-.137-.088-.13-.228.01-.062.061-.224.124-.361.14-.436.051-1.45.406-1.45.508 0 .055-.164.073-.368.04-.251-.04-.346-.024-.299.053.047.075-.025.095-.215.059a1.906 1.906 0 00-.668.04c-.441.11-.599.141-1.339.271-.465.082-.533.072-.505-.07.018-.09.036-.223.041-.295.004-.072.111-.13.237-.13.224 0 .224.003.026.154-.189.143-.177.15.163.09.201-.036.436-.107.522-.16.112-.067.09-.076-.078-.03-.133.036-.235.018-.235-.043 0-.069.236-.086.653-.047.729.067 1.489-.092 1.58-.33.033-.084.114-.154.179-.154.066 0 .093.068.061.151-.046.12-.009.133.171.063.127-.049.526-.172.888-.273.361-.101.606-.215.544-.253-.061-.038.019-.07.18-.072.16-.001.479-.086.709-.188.23-.103.494-.202.586-.22.457-.093 1.127-.462 1.189-.656.061-.192.358-.286.713-.227.087.015 1.549-.816 1.641-.932.029-.036.17-.128.314-.203.155-.082.208-.155.13-.18-.072-.024-.102-.092-.065-.15.042-.068.097-.056.151.03.11.177 1.238-.672 1.436-1.081.075-.155.216-.283.314-.285.253-.004.517-.232.461-.397-.034-.102.014-.122.174-.071.135.042.221.025.221-.046 0-.063.212-.34.471-.615.259-.276.47-.55.47-.608 0-.06.118-.184.262-.278.143-.093.261-.138.261-.1 0 .188.401-.32.452-.573.036-.177.324-.536.744-.927.377-.351.686-.71.686-.798 0-.088.068-.16.153-.16.084 0 .203-.092.263-.205.091-.168.082-.194-.048-.145-.088.034-.158.02-.156-.028.005-.144.271-.453.389-.453.108 0 .281-.3.253-.436-.008-.04.095-.158.227-.262.133-.104.226-.235.207-.292-.019-.057.085-.232.231-.389.146-.156.341-.519.434-.805.096-.295.232-.52.315-.52.08 0 .136-.059.124-.13-.028-.172.073-.442.384-1.03.154-.291.228-.558.186-.668-.047-.12-.031-.158.044-.112.165.101.259-.1.305-.649.035-.421.152-.753.58-1.643.06-.126.081-.368.047-.54-.039-.196-.017-.325.062-.351.071-.024.132-.28.144-.606.011-.31.072-.798.136-1.084.063-.286.123-.86.133-1.274.01-.415.056-.754.103-.754.047 0 .026-.093-.046-.208-.104-.166-.104-.25-.001-.415.14-.222.169-.61.066-.88-.054-.137-.093-.143-.229-.034-.142.115-.153.105-.08-.075a5.01 5.01 0 00.136-.39c.029-.1.096-.182.149-.182.1 0 .077-.23-.163-1.612-.079-.458-.106-.872-.06-.922.118-.126.375.432.401.87.012.2.062.378.112.395.05.017.07.204.046.416-.051.44.171.81.427.713.089-.034.161-.118.161-.186 0-.069-.029-.095-.066-.059-.08.08-.456-.108-.456-.228 0-.047.113-.065.251-.038.213.04.248.009.235-.213-.009-.143-.045-.242-.08-.22-.036.021-.054-.144-.042-.367.029-.51-.087-.732-.241-.46-.093.166-.108.142-.1-.152.005-.195.073-.373.156-.404.09-.034.118-.121.073-.225a4.13 4.13 0 01-.156-.636c-.235-1.332-.802-3.215-1.299-4.316-1.198-2.658-2.626-5.095-3.868-6.605-1.085-1.317-3.923-3.744-4.38-3.744-.079 0-.171-.07-.204-.156-.033-.085-.125-.156-.204-.156-.08 0-.229-.093-.333-.208-.104-.114-.234-.208-.289-.208-.055 0-.732-.357-1.505-.795a30.327 30.327 0 00-3.047-1.45c-1.496-.598-2.225-.812-3.731-1.096a5.752 5.752 0 01-.791-.204.752.752 0 00-.575.012l-.307.117.248.132c.206.11.219.143.078.197-.095.036-.169.013-.169-.053 0-.065-.03-.088-.067-.052-.037.037-.008.139.065.226.168.202.048.202-1.605.008-1.322-.155-1.926-.383-.817-.307.493.033.669.005.807-.133.166-.165.165-.184-.012-.313a.775.775 0 00-.384-.137c-.108 0-.293-.051-.411-.114-.156-.083-.195-.083-.144 0zm-.62.322c-.036.057.011.104.104.104s.14-.047.105-.104c-.036-.057-.083-.104-.105-.104-.022 0-.069.047-.104.104zm-.697.325a.853.853 0 01-.375.09c-.129 0-.235.05-.235.111 0 .06.054.077.12.036.067-.04.179.005.249.101.117.159.135.16.193.009.039-.1.136-.144.248-.11.307.096.461-.081.184-.211-.14-.066-.303-.077-.384-.026zm9.007.82a.63.63 0 00.261.1c.058 0 .034-.045-.052-.1a.63.63 0 00-.261-.102c-.058 0-.034.046.052.101zm-4.416.068a.404.404 0 00.261 0c.072-.029.013-.052-.131-.052-.144 0-.202.023-.13.052zm.705.14c.036.056.144.102.242.102.152-.002.155-.016.019-.103-.204-.132-.343-.132-.261 0zm8.985 2.52c.389.296.894.516.894.389 0-.103-.437-.351-.914-.52l-.288-.103.308.235zm-23.96 1.394c-.244.146-.444.309-.444.36 0 .051-.061.093-.136.093-.075 0-.296.117-.491.26-.195.143-.292.26-.216.26.076 0 .364-.16.638-.357a8.78 8.78 0 01.928-.574c.235-.12.427-.24.427-.267 0-.116-.291-.024-.706.225zm4.574.193c-.201.077-.301.144-.223.148.116.007.119.039.014.164-.156.187-.104.194.282.04.566-.227.763-.336.763-.421 0-.126-.415-.092-.836.07zm-1.986.884c-.094.06-.107.102-.033.103a.245.245 0 00.19-.103c.08-.129.044-.129-.157 0zm-4.6.104c0 .058.044.104.099.104.054 0 .127-.046.163-.104.035-.057-.009-.104-.099-.104-.089 0-.163.047-.163.104zm6.325.104c-.036.058-.015.104.046.104s.11-.046.11-.104c0-.057-.02-.104-.046-.104-.025 0-.075.047-.11.104zm-2.431.108c-.35.14-.285.21.079.085.172-.06.313-.128.313-.15 0-.063-.127-.041-.392.065zm6.403-.004c-.036.058.011.104.104.104s.141-.046.105-.104c-.036-.057-.083-.104-.105-.104-.022 0-.069.047-.104.104zm.993-.01c0 .052.094.07.209.04.115-.03.209-.072.209-.094 0-.022-.094-.04-.209-.04-.115 0-.209.043-.209.095zm-12.44.537c0 .06.047.08.105.045.057-.035.104-.085.104-.11 0-.025-.047-.046-.104-.046a.108.108 0 00-.105.11zm19.653.938c0 .053.049.095.109.095.061 0 .296.09.523.199.227.11.413.165.413.125 0-.041-.235-.173-.522-.294-.288-.12-.523-.177-.523-.125zm-21.9.72c-.036.057-.015.104.046.104s.111-.047.111-.105c0-.057-.021-.104-.046-.104-.026 0-.076.047-.111.104zm-.473.574c-.072.087-.105.185-.073.217s.111-.04.175-.159c.137-.254.086-.283-.102-.058zm3.703.18l-.199.234.236-.199c.221-.186.282-.27.199-.27-.02 0-.126.106-.236.235zm-2.464 1.524a6.37 6.37 0 00-.55.754c-.188.321-.188.336-.012.193a2.99 2.99 0 00.436-.52c.135-.2.323-.47.417-.6.278-.38.085-.266-.291.173zm-7.718.145c-.158.079-.266.226-.274.373-.006.133-.06.272-.118.309-.136.085-.444.815-.444 1.051 0 .099-.076.33-.168.514-.19.38-.1.58.124.276.12-.163.148-.17.148-.037 0 .09-.075.193-.167.228-.092.036-.142.13-.111.212.07.179-.109.86-.247.944-.055.034-.071-.01-.037-.1.034-.089.015-.161-.043-.161-.058 0-.157.147-.22.327-.141.402-.142.43-.012.35.14-.087.015.56-.165.848-.116.186-.192 1.179-.09 1.179.081 0 .36-.681.36-.88 0-.122.06-.28.13-.352.104-.103.102-.146-.008-.214-.113-.07-.11-.096.012-.143.083-.032.178-.158.21-.28.046-.175.029-.199-.078-.11-.101.083-.153.07-.2-.055-.092-.236-.078-.331.024-.17.13.202.586-.446.912-1.297.784-2.044.923-2.507.823-2.725-.088-.193-.129-.203-.36-.087zm-.523 1.32a.105.105 0 00.21 0 .105.105 0 00-.21 0zm8.14.91c-.084.1-.219.276-.302.39-.15.209-.15.209.093.002.225-.192.491-.573.4-.573-.022 0-.108.082-.191.182zm35.922.13c.036.058.085.105.111.105.025 0 .046-.047.046-.104 0-.058-.05-.104-.111-.104s-.081.046-.046.104zm-40.935 1c-.123.28-.233.579-.244.665-.012.085-.118.367-.236.625-.768 1.685-1.479 6.116-1.343 8.371.09 1.495.242 2.724.417 3.372.083.31.129.6.1.646-.028.045-.002.177.058.294l.212.419c.058.114.105.321.105.462 0 .14.048.285.106.32.058.036.085.1.058.144-.056.09.396 1.406.824 2.403.919 2.14 1.699 3.363 3.323 5.21.331.376.602.736.602.798 0 .062.067.129.148.147.163.037 2.309 2.069 2.309 2.186 0 .04.068.134.151.209.131.116.133.11.018-.041-.114-.152-.104-.174.077-.16.115.008.19.047.165.086-.057.092 1.099.96 1.28.96.076 0 .138.037.138.083 0 .142 2.121 1.339 2.374 1.339.074 0 .135.042.135.093 0 .137.297.226.369.11.034-.055-.07-.15-.23-.21-.161-.06-.316-.145-.346-.188-.03-.042-.384-.257-.786-.477a29.746 29.746 0 01-1.441-.852c-.39-.249-.731-.452-.758-.452-.072 0-.467-.406-.467-.48 0-.036.161.058.359.207.197.15.403.273.458.273.054 0 .151.063.216.141.065.078.459.315.875.528.417.212.965.505 1.218.65.352.202.444.225.395.097-.036-.093-.025-.168.024-.168s.122.105.161.234c.042.138.093.181.125.106.041-.1.137-.093.422.025.203.084.411.128.462.096.052-.032.094-.008.094.053 0 .06.094.11.209.11.115 0 .209-.047.209-.104 0-.057-.05-.104-.11-.104-.061 0-.472-.18-.915-.4-.443-.219-.859-.38-.926-.358-.066.023-.156-.016-.199-.085-.053-.085-.034-.098.059-.041.085.052.111.043.069-.025-.037-.06-.186-.138-.332-.174-.145-.037-.57-.252-.943-.48-.374-.227-.723-.413-.776-.413-.054 0-.511-.328-1.018-.73-.506-.4-1.011-.797-1.122-.881a19.331 19.331 0 01-.951-.882c-.412-.4-.779-.699-.815-.663-.035.035-.109-.047-.162-.184-.102-.259-.988-1.33-1.133-1.37-.045-.012-.068-.064-.051-.116.017-.05-.08-.215-.216-.364-.821-.9-2.128-3.261-2.524-4.56l-.325-1.066a7.587 7.587 0 01-.223-1.014c-.036-.272-.103-.544-.15-.603a.57.57 0 01-.08-.313c.004-.111-.048-.624-.115-1.139a19.813 19.813 0 01-.122-1.092c-.001-.662.123-3.078.166-3.212.03-.093.072-.573.094-1.068.023-.495.066-.94.095-.988.029-.049.11-.362.179-.697.09-.44.094-.64.011-.723-.082-.082-.114-.08-.114.011 0 .069-.065.125-.145.125-.169 0-.303.427-.21.668.035.09.021.164-.03.164-.053 0-.101.199-.108.442-.025.874-.08 1.31-.15 1.196-.075-.12-.036-1.57.047-1.713.025-.044.08-.315.12-.601.14-.997.616-2.816 1.015-3.876.221-.587.402-1.137.402-1.222 0-.245-.164-.18-.3.12-.07.15-.152.247-.183.216s-.002-.158.065-.282c.067-.125.095-.252.063-.284-.032-.032-.159.171-.282.45zm-3.963.04a.105.105 0 00.21 0 .105.105 0 00-.21 0zm7.774.544c-.355.488-.744 1.46-.467 1.168.163-.173.666-1.198.614-1.25-.028-.028-.094.01-.147.082zm38.238.289c0 .143.024.201.053.13a.4.4 0 000-.26c-.029-.072-.053-.013-.053.13zm-42.458.624a.105.105 0 00.21 0 .105.105 0 00-.21 0zm-1.572 2.002c-.078.214-.183.39-.232.39-.05 0-.061.046-.026.102.035.056.01.199-.053.318-.065.12-.121.356-.126.526-.005.17-.042.33-.083.355-.041.025-.052.164-.024.308.028.148.001.263-.06.263-.019 0-.035.019-.048.055-.038.1-.06.33-.056.647.005.386-.027.785-.07.886a.902.902 0 00-.029.438c.027.14.013.268-.03.284-.026.01-.037.197-.035.481.001.22.01.498.028.797.06 1.01.088 1.159.145.78.11-.722.148-2.496.055-2.496-.046 0-.083-.05-.083-.11s.037-.087.084-.059c.046.029.167-.425.27-1.008.102-.582.245-1.305.318-1.605.072-.3.092-.546.043-.546-.048 0-.088-.073-.088-.162 0-.09.044-.135.1-.101.108.067.262-.58.189-.798-.026-.074-.11.04-.189.255zm37.849.026c0 .057.046.174.102.26.055.086.101.11.101.052a.632.632 0 00-.101-.26c-.056-.086-.102-.11-.102-.052zm6.792 1.248c0 .095.05.156.112.136.062-.02.113-.082.113-.136 0-.054-.051-.116-.113-.136-.062-.02-.112.04-.112.136zm-43.231.269c-.039.062-.018.165.046.229.086.085.117.055.117-.113 0-.252-.055-.29-.163-.116zm-2.849.979c.002.172.026.23.052.128a.591.591 0 00-.004-.312c-.028-.07-.05.012-.048.184zm.197.529c.005.12.03.145.063.063.03-.076.027-.165-.008-.2-.035-.034-.06.027-.055.137zm0 1.04c.005.12.03.145.063.063.03-.075.027-.165-.008-.2-.035-.034-.06.027-.055.137zm46.864.407c.212.903.266 1.228.216 1.309-.031.05-.079.265-.106.48-.039.3-.022.361.074.266.166-.166.164-1.632-.002-1.831-.094-.113-.095-.162-.006-.192.077-.025.053-.095-.065-.192-.172-.141-.18-.13-.111.16zm.378-.162c0 .054.047.127.104.162.058.035.105-.009.105-.098 0-.089-.047-.162-.105-.162-.057 0-.104.044-.104.098zm-47.638.474c0 .286.02.39.045.233a1.853 1.853 0 00-.002-.52c-.024-.128-.044.001-.043.287zm.292-.303c.005.12.03.145.063.063.03-.075.026-.165-.008-.2-.035-.034-.06.027-.055.137zm2.291.251a.105.105 0 00.21 0 .105.105 0 00-.21 0zm41.204.624c0 .143.023.202.052.13a.4.4 0 000-.26c-.029-.071-.052-.013-.052.13zm2.701.058c0 .151.045.239.105.202.057-.035.104-.155.104-.266 0-.111-.047-.202-.104-.202-.058 0-.105.12-.105.266zm-46.204.144c0 .168.037.329.082.357.046.028.064-.11.041-.306-.051-.437-.123-.467-.123-.051zm-.294.058c.002.172.026.23.052.128a.59.59 0 00-.004-.312c-.028-.07-.05.012-.048.184zm47.805.468c-.036.057-.015.104.046.104s.11-.047.11-.104c0-.057-.02-.104-.046-.104-.025 0-.075.047-.11.104zm-47.755.147c-.031.081-.017.28.032.442.082.274.09.263.098-.147.01-.457-.032-.55-.13-.295zm.296.581c-.036.057-.018.104.04.104.057 0 .133-.047.169-.104.035-.057.017-.104-.04-.104-.058 0-.134.047-.17.104zm.01.373a.446.446 0 00.039.338c.08.138.102.104.104-.165.004-.37-.044-.428-.142-.173zm-.264.271c.004.075.047.23.097.344.08.186.09.178.097-.072.004-.154-.04-.309-.097-.344-.058-.035-.101-.003-.097.072zm-.827.604c0 .143.023.202.052.13a.398.398 0 000-.26c-.029-.071-.052-.013-.052.13zm47.965.214c0 .06.047.081.104.046.058-.035.105-.085.105-.11 0-.025-.047-.046-.105-.046-.057 0-.104.05-.104.11zm-47.86.306c0 .143.023.202.052.13a.4.4 0 000-.26c-.03-.071-.053-.013-.053.13zm.876-.111c-.033.053-.013.126.046.162.058.036.106-.008.106-.097 0-.182-.063-.21-.152-.065zm43.067.027a1.328 1.328 0 00-.025.413c.017.221.051.254.164.16.095-.078.104-.13.026-.156-.064-.02-.116-.107-.116-.192 0-.084.047-.124.104-.089.058.036.105.018.105-.04 0-.168-.206-.245-.258-.096zm-42.758.5c-.038.172-.12.312-.183.312-.062 0-.083.03-.046.067.037.037.139.008.226-.065.137-.113.16-.085.16.2 0 .237.037.308.13.252.102-.06.101-.041-.002.086-.112.137-.098.172.09.22.195.052.214.025.156-.22-.035-.154-.08-.345-.097-.424a.548.548 0 00-.185-.26.328.328 0 01-.115-.298c.021-.1.015-.182-.014-.182-.028 0-.082.14-.12.312zm-1.081.208c0 .143.023.202.052.13a.4.4 0 000-.26c-.029-.071-.052-.013-.052.13zm.096.58c.005.122.03.147.063.064.03-.075.027-.165-.008-.2-.035-.034-.06.027-.055.137zm.155.564c.03.2.063.446.072.546.01.1.055.182.1.182.046 0 .087.082.091.182.005.1.03.133.054.072.026-.06-.048-.388-.162-.728-.139-.41-.19-.496-.155-.254zm.777-.236c0 .05.043.135.095.19a.806.806 0 01.145.306c.044.183.051.18.062-.033a.596.596 0 00-.145-.398c-.086-.085-.157-.115-.157-.065zm42.252.73a6.96 6.96 0 00-.193.65c-.049.224-.019.208.21-.116.2-.283.248-.445.193-.65-.073-.271-.075-.27-.21.116zm-41.62.52c-.003.13.041.234.097.234s.074.07.041.156c-.033.086-.008.156.056.156.156 0 .14-.205-.041-.52-.148-.256-.15-.257-.154-.026zm-.318.118c0 .057.047.133.105.168.057.036.104.018.104-.04 0-.057-.047-.132-.104-.168-.058-.035-.105-.017-.105.04zm-.731.188c0 .126.044.256.1.29.054.033.078.118.052.188-.026.07.05.267.17.438l.22.312-.053-.372a2.288 2.288 0 00-.27-.728c-.186-.302-.219-.322-.22-.128zm.948.301c.005.121.03.146.064.063.03-.075.026-.165-.009-.2-.034-.034-.059.027-.055.137zm.485.802c-.055.143-.01.35.198.931.036.1.142.183.236.184.149.001.15.015.014.102-.13.084-.121.103.052.11.193.007.19.015-.026.102-.13.051-.235.168-.235.26 0 .09.05.134.11.097.067-.041.101.028.088.176-.04.444.01.608.18.608.14 0 .147-.029.04-.157-.077-.092-.086-.155-.022-.155.062 0 .098-.21.084-.495-.025-.538-.141-.885-.27-.806-.045.027-.104-.067-.131-.209-.028-.142-.014-.259.029-.259.043 0 .107-.074.142-.164.04-.105.016-.149-.067-.12-.072.025-.182-.046-.245-.16-.096-.17-.126-.178-.177-.045zm39.753.203c-.081.215-.204.39-.275.39-.071 0-.16.098-.198.216-.038.119-.093.191-.124.161-.089-.088-.657.595-.657.79 0 .195.191.053.368-.273.13-.241.253-.343.382-.318.105.02.191-.009.191-.064s.121-.283.27-.507c.149-.223.252-.491.23-.595-.029-.136-.083-.078-.187.2zm-40.769.488c0 .118.048.214.105.214.058 0 .105-.067.105-.15 0-.082-.047-.178-.105-.214-.057-.035-.105.032-.105.15zm1.673.104c0 .054.047.127.103.162a.114.114 0 00.021.01c.042.014.052-.028.02-.108-.044-.117-.092-.172-.12-.155-.015.009-.024.039-.024.091zm39.704-.027c.075.03.165.027.2-.008.035-.034-.027-.059-.137-.054-.122.005-.147.03-.063.062zm-.399.675c0 .047.045.086.099.086a.202.202 0 00.152-.086c.029-.048-.015-.087-.099-.087-.083 0-.152.039-.152.087zm-40.768.178c0 .057.047.133.104.168.058.036.105.018.105-.04 0-.056-.047-.132-.105-.168-.057-.035-.104-.017-.104.04zm39.759.17c-.141.302.01.354.169.057.129-.239.136-.319.03-.318-.043 0-.133.118-.199.26zm-38.026.037c-.045.072-.053.16-.019.194.094.093.196-.044.145-.195-.035-.106-.06-.106-.126 0zm38.996.174c-.101.261-.071.329.052.118.061-.105.089-.212.062-.239-.027-.027-.078.027-.114.12zm-40.415.269c.001.078.119.346.262.595.143.25.26.515.26.592 0 .077.039.163.087.193.128.079.069-.25-.125-.688-.094-.213-.171-.43-.171-.481 0-.053-.07-.153-.157-.224-.126-.105-.157-.102-.156.013zm1.88.61c0 .058.05.105.112.105.06 0 .081-.047.046-.105-.036-.057-.086-.104-.111-.104-.025 0-.046.047-.046.104zm37.816.311c-.256.297-.228.463.033.203.119-.118.201-.26.182-.314-.018-.055-.115-.005-.215.111zm-1.972.236a.946.946 0 00.003.215c.008.047-.027.06-.078.03-.05-.032-.231.117-.401.33-.372.465-.557.798-.251.453.119-.135.217-.19.217-.124 0 .186.19.029.527-.434.287-.394.319-.6.094-.6-.054 0-.104.058-.111.13zm-35.89.174c-.072.115.093.24.19.143.098-.099.08-.24-.032-.24-.055 0-.126.044-.159.097zm.674.256c0 .023.073.07.162.103.093.036.135.018.099-.04-.062-.1-.26-.147-.26-.063zm-.052.376c.035.057.085.103.11.103.026 0 .047-.046.047-.103a.108.108 0 00-.111-.105c-.06 0-.082.047-.046.105zm.014.572c.033.085.079.156.102.156.022 0 .04-.07.04-.156s-.045-.157-.1-.157c-.056 0-.075.07-.042.157zm33.744.421c-.194.156-.193.157.033.049.129-.063.235-.136.235-.162 0-.08-.054-.057-.268.113zm.062.25c-.085.054-.127.124-.093.157.033.033.12-.01.192-.098.151-.18.122-.198-.099-.059zm1.728.078c-.056.148-.044.16.059.058.071-.07.104-.154.071-.186-.032-.032-.09.026-.13.128zm-2.163.42c-.13.166-.126.17.04.04.1-.079.183-.16.183-.182 0-.086-.086-.03-.223.143zm1.739.027c-.104.114-.146.208-.092.208.054 0 .178-.094.276-.208.099-.115.14-.208.092-.208-.048 0-.172.093-.276.208zm-35.072-.018c0 .047.126.199.28.337l.28.253-.235-.338c-.237-.341-.325-.41-.325-.252zm32.866.136c-.198.222-.198.223.036.08.13-.08.236-.18.236-.223 0-.126-.059-.095-.272.143zm-.104.428l-.199.234.235-.198c.221-.187.283-.27.199-.27-.02 0-.126.105-.235.234zm1.623.156c-.2.214-.48.527-.622.694l-.259.305.347-.24c.192-.131.399-.35.461-.484.061-.135.199-.273.305-.306.106-.034.193-.128.193-.21 0-.208-.016-.198-.425.24zm-1.56.496c-.316.255-.594.519-.617.588-.041.122.158-.015.784-.54.277-.231.527-.525.439-.514a9.258 9.258 0 00-.606.466zm-32.093-.223c0 .022.082.103.183.182.166.13.17.126.04-.04-.137-.173-.223-.228-.223-.142zm7.422.421c0 .029.094.102.209.164.115.06.209.088.209.059 0-.029-.094-.102-.209-.163-.115-.062-.209-.088-.209-.06zm23.572.684c-.035.057-.017.104.04.104.058 0 .134-.047.17-.104.035-.058.017-.104-.04-.104-.058 0-.134.046-.17.104zm-28.55.285c.109.126.247.199.309.161.071-.044.057-.085-.04-.115a1.277 1.277 0 01-.309-.161c-.086-.063-.068-.011.04.115zm29.387.088l-.314.268.34-.224c.187-.123.34-.244.34-.268 0-.078-.045-.051-.366.224zm.47.158c-.144.118-.202.184-.13.147.602-.31.686-.365.548-.363-.086 0-.274.098-.418.216zm-29.034.063c-.18.064-.165.238.019.238.174 0 .311-.172.191-.24-.044-.024-.139-.023-.21.002zm26.787.03c-.036.057-.015.104.046.104s.11-.047.11-.104c0-.057-.02-.104-.046-.104-.025 0-.075.047-.11.104zm-28.8.123c0 .025.141.18.313.344l.312.298-.128-.271c-.071-.15-.148-.252-.173-.228-.024.024-.106-.008-.183-.072-.078-.064-.141-.095-.141-.07zm.837.194c0 .072-.074.093-.183.052-.139-.053-.154-.04-.063.051.082.082.179.089.301.02.122-.067.142-.123.062-.172-.064-.04-.117-.018-.117.049zm.799.882c.034.087.162.21.284.274.205.106.203.093-.03-.16-.292-.314-.339-.336-.254-.114zm.919.135c.169.181.348.33.398.33.148 0-.008-.182-.369-.43l-.336-.23.307.33zm25.827-.087c-.036.059.006.076.099.04.181-.069.214-.143.063-.143-.054 0-.127.046-.162.103zm-26.715.56c.198.207.377.377.397.377.089 0-.359-.513-.548-.627-.115-.07-.047.043.151.25zm25.356.538c-.978.482-1.86.877-1.96.878-.101 0-.183.048-.183.105 0 .203.255.113 1.986-.705.842-.398 2.231-1.221 1.96-1.162-.015.004-.826.401-1.803.884zm.627-.682c-.036.059.006.076.099.04.181-.069.214-.143.064-.143-.054 0-.127.046-.163.103zm-23.328.295c.096.105.142.222.104.26-.039.038-.015.07.052.07.159 0 .156-.236-.004-.395-.203-.203-.341-.143-.152.065zm30.07-.086a.105.105 0 00.209 0 .104.104 0 00-.209 0zm-31.883.132c0 .092.043.194.095.226.053.032.086-.01.073-.095-.033-.222-.168-.328-.168-.13zm2.239.246c.015.1.082.2.148.223.17.056.152-.135-.027-.282-.119-.099-.143-.087-.121.06zm19.243.038c-.036.057-.018.104.04.104.057 0 .134-.047.169-.104.036-.057.018-.104-.04-.104-.057 0-.133.047-.169.104zm6.533.006c0 .06.048.081.105.046.057-.036.105-.085.105-.11 0-.026-.048-.046-.105-.046a.108.108 0 00-.105.11zm-28.074.19c.074.12.477.363.477.287 0-.024-.123-.124-.274-.222-.151-.098-.242-.127-.203-.064zm27.5.116c-.036.057.008.104.098.104.089 0 .163-.047.163-.104a.102.102 0 00-.099-.104c-.054 0-.127.047-.162.104zm-24.096.502c0 .113.249.226.5.226.217 0 .051-.16-.265-.255-.13-.04-.235-.026-.235.029zm26.082.018c-.036.057-.015.104.046.104s.11-.047.11-.104c0-.057-.02-.104-.046-.104-.025 0-.075.047-.11.104zm-3.851.498c-.392.21-.666.396-.608.415.058.02.296-.085.529-.231.233-.146.466-.266.517-.266.052 0 .153-.07.224-.156.17-.204.17-.204-.662.238zm-17.474-.186c.035.057.144.103.241.102.152-.001.155-.015.02-.102-.205-.132-.343-.132-.261 0zm13.537.104c0 .057.07.104.157.104.086 0 .156-.047.156-.104 0-.057-.07-.104-.156-.104-.087 0-.157.047-.157.104zm-19.548.1c0 .06.043.108.095.108.053 0 .211.102.351.226.289.256.782.357.584.12-.063-.076-.227-.138-.364-.138-.136 0-.248-.045-.248-.1 0-.056-.094-.15-.209-.212-.142-.076-.209-.077-.209-.004zm1.591.064c.1.103.21.159.245.124s-.047-.12-.181-.188c-.233-.119-.236-.116-.064.064zm3.74-.123c0 .022.071.067.157.1.086.033.157.015.157-.04 0-.056-.071-.101-.157-.101-.086 0-.157.018-.157.04zm13.433.137a.822.822 0 00-.309.144c-.157.149.172.105.466-.062.264-.15.222-.173-.157-.082zm-13.761.247c.136.11.347.194.47.187.177-.01.186-.022.041-.06-.101-.026-.183-.085-.183-.132 0-.046-.129-.108-.287-.139l-.287-.054.246.198zm.825-.148a.404.404 0 00.261 0c.072-.03.013-.053-.131-.053-.143 0-.202.024-.13.053zm4.05.186c.267.12 1.213.234 1.112.133-.058-.058-.356-.122-.661-.143-.305-.02-.508-.016-.451.01zm-3.658.378c-.199.094-.198.097.019.056.138-.025.252.02.289.115.043.112.149.14.363.097.22-.044.32-.015.366.105.049.126.161.152.48.11.229-.031.417-.014.417.038s.07.094.156.094c.087 0 .157.047.157.104 0 .057.05.104.111.104s.083-.044.05-.098c-.034-.054.059-.089.207-.078.147.012.31.09.362.173.052.084.123.125.158.09.125-.124-.294-.411-.562-.385a1.03 1.03 0 01-.502-.098 1.234 1.234 0 00-.497-.124c-.148 0-.444-.094-.659-.208-.425-.227-.598-.245-.915-.095zm5.017-.015l-.522.066.821.087c.524.056.769.12.679.177-.095.06-.029.09.204.09.205.001.32-.04.282-.102-.036-.057.029-.104.144-.104.268 0 .375-.167.16-.25-.194-.073-1.029-.056-1.768.036zm8.291-.027c.076.03.166.026.201-.008.034-.035-.027-.06-.138-.055-.121.005-.146.03-.063.063zm-2.42.288c-.408.062-.677.148-.627.201.05.053-.035.07-.2.04-.158-.028-.287-.006-.287.05 0 .118.832.029 1.609-.172.695-.179.386-.253-.495-.119zm-1.747.268a.352.352 0 01-.274.028c-.096-.037-.12 0-.075.116.05.131.098.143.208.052.079-.065.262-.089.406-.053.145.036.263.024.263-.028 0-.132-.369-.213-.528-.115zm4.899-.036c.075.03.166.026.2-.008.035-.035-.027-.06-.137-.055-.122.005-.146.03-.063.063zm3.26.03c0 .055.071.073.157.04.086-.032.157-.078.157-.1 0-.023-.071-.041-.157-.041-.086 0-.157.045-.157.1zm-21.071.094c.031.05.163.119.293.151.229.057.23.054.034-.091-.225-.167-.416-.202-.327-.06zm8.346-.019a.602.602 0 00.314-.004c.07-.028-.013-.05-.185-.048-.173.002-.231.026-.129.052zm.972.064c.034.09-.034.254-.156.376l-.217.216h.745c.65 0 .728-.02.614-.156-.072-.086-.2-.156-.285-.156-.086 0-.132-.06-.104-.134.029-.074-.024-.137-.119-.14a1.24 1.24 0 01-.356-.087c-.139-.06-.169-.04-.122.081zm1.718-.045c0 .05-.224.068-.497.038-.273-.029-.463-.017-.421.027.041.044.253.1.47.123.218.023.411.087.43.142.02.054.108.099.196.099.131 0 .137-.029.031-.156-.097-.116-.099-.156-.007-.156.068 0 .095-.047.059-.104-.08-.128-.261-.137-.261-.013zm-3.496.114c-.189.067-.185.078.052.156.14.047.303.091.36.099.058.007.163.05.235.095.074.046.131.033.131-.029 0-.107-.137-.15-.384-.12-.067.009-.138-.05-.157-.13-.022-.094-.104-.119-.237-.071zm4.091-.028c-.149.038-.163.079-.065.196.17.204.337.184.491-.061.112-.179.105-.206-.053-.196a2.43 2.43 0 00-.373.06zm.084.135c-.035.057-.014.104.046.104.061 0 .111-.047.111-.104 0-.057-.021-.104-.046-.104-.025 0-.075.047-.111.104zm-2.2.095c.032.052-.001.119-.073.148-.072.029-.025.056.104.06.143.006.235-.052.235-.147a.16.16 0 00-.163-.156c-.089 0-.136.043-.103.095zm5.754.124c-.627.168-.66.188-.236.138.546-.063 1.51-.337 1.177-.335-.115.001-.538.09-.941.197zm4.391-.115c-.036.057.011.104.104.104.094 0 .141-.047.105-.104-.036-.057-.083-.104-.105-.104-.021 0-.069.047-.104.104zm-18.816.104c.035.057.111.104.169.104.057 0 .075-.047.04-.104-.036-.057-.112-.104-.169-.104-.058 0-.076.047-.04.104zm.365.104c0 .057.05.104.111.104s.082-.047.046-.104c-.035-.057-.085-.104-.11-.104-.026 0-.047.047-.047.104zm7.292-.035a.404.404 0 00.261 0c.072-.029.013-.053-.131-.053-.143 0-.202.024-.13.053zm1.47.002c.075.03.165.026.2-.008.035-.035-.027-.06-.137-.055-.122.005-.147.03-.063.063zm1.797.142c0 .069.143.083.392.038.542-.098.557-.147.043-.147-.239 0-.435.049-.435.109zm-10.149.14c.081.097.216.15.302.117.085-.032.242.02.349.116.107.096.194.128.194.072 0-.112-.322-.29-.731-.407-.236-.066-.246-.056-.114.103zm1.103.37c.034.055.139.07.233.035.114-.044.145-.025.095.056-.042.067-.027.122.032.122s.08.07.047.156-.005.156.062.156c.143 0 .105-.433-.048-.545-.153-.112-.493-.096-.421.02zm2.146.86c0 .108.121.1.312-.02.123-.077.106-.094-.078-.08-.129.01-.234.054-.234.1zm2.718-.023c0 .057.144.104.32.104.187 0 .293-.043.255-.104-.035-.057-.179-.104-.32-.104-.14 0-.255.047-.255.104zm.836.104c-.118.076-.072.101.19.102.204.001.319-.04.281-.102-.081-.13-.267-.13-.471 0zm3.461.009c-.138.055-.232.115-.209.135.086.072.825-.067.825-.155 0-.118-.293-.109-.616.02zm.91-.042c.076.03.166.026.201-.008.034-.035-.027-.06-.138-.055-.121.005-.146.03-.063.063zm4.619.03c0 .055.071.074.157.04.086-.032.157-.078.157-.1 0-.023-.071-.041-.157-.041-.086 0-.157.045-.157.1zm-8.174.128c.097.097.153.097.251 0 .097-.097.069-.125-.126-.125s-.223.028-.125.125zm.907-.025c.037.06.189.108.339.108.328 0 .29-.05-.11-.145-.195-.047-.273-.034-.229.037zm.891.004c0 .122.08.122.366 0 .185-.08.176-.09-.079-.097-.158-.004-.287.04-.287.097zm-5.436.208c0 .057.073.104.163.104.09 0 .134-.047.098-.104-.035-.057-.109-.104-.163-.104-.054 0-.098.047-.098.104z" fill="#fff"/><path fill-rule="evenodd" clip-rule="evenodd" d="M99.125 46.907l.103.156.029-.023c.129-.106.173-.08.261.15.058.152.15.25.204.217.1-.061.636.56.633.733-.001.052-.051.024-.11-.061-.09-.129-.103-.12-.073.052.022.127.109.201.228.191.105-.01.302.108.437.26.26.294.33.494.13.37-.075-.046-.092-.028-.045.048.042.067.115.098.162.07.047-.03.168.075.267.232.101.156.12.226.043.155-.264-.247-.314-.13-.06.142.139.15.318.25.396.224.188-.066 1.614 1.271 1.575 1.476-.022.116-.006.124.058.031.068-.1.139-.092.319.034.128.088.204.206.17.26-.034.055-.019.087.034.071.053-.015.538.282 1.079.661 2.251 1.577 4.224 2.581 6.472 3.293 1.114.353 2.916.726 3.92.811l1.202.102c.72.06 2.868.03 3.607-.05 2.471-.272 4.129-.687 6.251-1.567.893-.37 1.057-.555.191-.215-.295.115-.536.164-.536.107 0-.056.047-.102.104-.102a.105.105 0 00.105-.104c0-.058-.176-.01-.39.104-.215.114-.47.208-.567.208-.282 0-.506.115-.506.26 0 .14-.224.26-.486.26-.085 0-.125-.047-.089-.104.086-.139.145-.146-1.546.2-1.929.394-2.793.494-2.793.322 0-.071.07-.102.157-.068.096.036.157 0 .157-.093 0-.084.047-.153.105-.153.057 0 .104.047.104.104 0 .057.071.104.157.104.086 0 .157-.05.157-.112 0-.072.118-.087.326-.041.24.052.306.038.25-.052-.05-.08-.009-.117.118-.103a.877.877 0 00.246 0c.029-.01.17-.04.314-.066.144-.025.41-.116.592-.2.181-.085.4-.128.486-.095.085.032.185.011.222-.047.036-.06.135-.08.219-.048.085.032.154.006.154-.057 0-.146-.164-.147-.437-.001-.165.088-.205.084-.171-.017.024-.072.277-.193.561-.27 1.183-.318 1.334-.373 2.451-.892.431-.2.986-.449 1.233-.552.247-.103.548-.273.669-.377.122-.105.296-.192.388-.194.179-.003.642-.308.469-.308-.057 0-.16.055-.228.123-.068.067-.152.094-.187.06-.036-.036.128-.157.364-.27.236-.114.402-.164.37-.112-.107.173.168.098.517-.14.2-.135.326-.298.3-.39-.038-.138-.031-.138.071 0 .1.137.128.134.222-.025.06-.1.176-.182.26-.182.083 0 .151-.038.151-.085 0-.047.165-.163.366-.258.202-.096.366-.223.366-.283 0-.075-.073-.074-.235.004-.178.087-.16.048.078-.161.287-.252 1.235-1.07 1.383-1.193.034-.029.032.03-.004.13-.036.1-.047.182-.024.182.107 0 .98-1.247.905-1.293-.047-.029-.448.318-.892.77-.549.56-.859.803-.97.76-.124-.047-.055-.15.295-.433.743-.604 1.462-1.365 1.394-1.475-.035-.056-.001-.09.075-.074s.125-.033.109-.11c-.015-.075.012-.112.061-.082.05.03.298-.15.552-.402.728-.722.827-.841.829-.998.001-.081.213-.496.471-.923.257-.426.468-.82.468-.876 0-.055.067-.174.149-.264.268-.295 1.298-2.428 1.242-2.572-.03-.077-.005-.14.054-.14.244 0 .776-1.962 1.072-3.953.163-1.09.21-2.912.075-2.912-.066 0-.082.168-.042.442.051.344.019.511-.144.754-.115.172-.214.265-.22.208-.006-.057-.046.013-.089.156s-.038.34.011.436c.058.117.019.291-.119.524-.113.191-.221.44-.238.552a1.223 1.223 0 01-.089.308c-.031.057-.065.245-.075.416-.011.172-.082.359-.159.416-.077.057-.132.245-.122.416.011.184-.135.608-.355 1.032-.238.458-.33.734-.254.76.077.025-.007.285-.232.723-.194.377-.427.909-.519 1.183-.092.275-.305.69-.474.922-.17.232-.308.47-.308.527 0 .058-.071.106-.157.106-.086 0-.157.058-.157.13 0 .22-.76 1.353-1.219 1.819-.239.242-.451.477-.47.522-.02.044-.171.185-.337.313-.166.127-.265.232-.221.232.044 0-.097.14-.314.312-.702.554-.592.356.375-.676.954-1.02 2.486-3.221 2.341-3.365-.036-.036-.112.017-.169.117-.057.101-.154.152-.217.114-.069-.043-.085-.023-.04.05.071.113-.302.754-.483.83-.045.02-.082.081-.082.138 0 .094-.534.805-1.195 1.592-.143.169-.289.278-.325.242-.036-.036.085-.198.269-.36.276-.243.863-1.018 1.182-1.56.039-.067-.007-.2-.102-.294-.131-.13-.138-.167-.028-.148.213.035.521-.119.454-.227-.032-.052-.008-.093.052-.093.061 0 .111-.07.111-.157 0-.085-.045-.155-.101-.155-.056 0-.072-.077-.036-.17.036-.094-.177.078-.474.38-.296.303-.539.585-.539.626 0 .041-.178.256-.395.477-.217.222-.617.66-.888.973-.272.313-.494.512-.494.442s.047-.128.105-.128c.057 0 .104-.043.104-.094 0-.052.153-.252.34-.445.632-.652 1.277-1.596 1.963-2.87.146-.27.345-.632.442-.804.524-.926 1.425-3.849 1.243-4.03-.047-.047-.169.116-.272.36-.102.246-.227.54-.276.654a31.43 31.43 0 00-.339.884c-.315.855-.905 2.115-.963 2.058-.024-.024.123-.508.327-1.077 1.129-3.15 1.17-3.367 1.188-6.285.016-2.646-.236-4.22-1.027-6.427-.452-1.26-.701-1.774-1.527-3.157-1.475-2.474-3.602-4.468-6.221-5.836-2.044-1.068-3.669-1.667-5.122-1.888-.815-.124-.333.12.679.343 1.083.24 2.514.721 2.176.733a1.61 1.61 0 01-.522-.108c-1.363-.533-3.944-.923-6.114-.924-.786 0-1.503-.029-1.594-.064-.304-.116-.17-.322.279-.43l.444-.106-.476-.012c-.261-.007-.532.044-.601.112-.087.087-.158.092-.234.016-.077-.075.107-.177.604-.333.392-.123.75-.224.796-.224.045 0 .153-.07.239-.155.138-.138.088-.15-.443-.105-.619.053-1.962.306-2.294.433-.179.068-.178.076.012.153.115.046.011.055-.241.02-.301-.04-.518-.01-.679.093a2.093 2.093 0 01-.525.223c-.242.06-.287.037-.287-.14 0-.115-.04-.21-.088-.21-.079 0-.876.265-1.428.474-.182.07-.175.043.052-.205.144-.157.215-.276.157-.265-.273.055-.401-.023-.183-.11.13-.053.235-.142.235-.2 0-.119-1.008.248-1.254.455-.139.117-.53.294-.602.273-.094-.029-1.098.552-1.267.733-.113.12-.257.188-.319.15-.063-.039-.321.135-.574.387-.268.267-.67.532-.965.637a7.06 7.06 0 00-.69.279c-.1.054-.182.074-.182.044 0-.091.672-.67.784-.674.057-.003.31-.144.561-.314.252-.17.488-.289.526-.266.037.023.147-.095.243-.262.244-.423.031-.402-.613.06-.28.201-.569.395-.644.43-.24.114-.289-.078-.066-.256l.575-.458c.234-.186.286-.264.149-.226-.206.059-.206.057-.006-.105.112-.09.176-.165.143-.165-.156 0-1.332.591-1.694.851-.471.339-.606.368-.514.111.036-.1-.358.216-.876.702-1.445 1.358-2.3 2.08-2.457 2.08-.079 0-.318.302-.531.67-.318.551-.482.718-.913.934-.54.27-1.111.368-1.336.23-.085-.052-.125-.202-.12-.394a22.71 22.71 0 00-3.067 8.6c.013-.036.03-.055.047-.055.062 0 .089-.115.06-.263-.027-.144-.016-.283.025-.308.04-.025.078-.185.083-.355.005-.17.061-.407.126-.526.064-.119.088-.262.053-.318-.035-.056-.023-.102.026-.102.05 0 .154-.176.232-.39.078-.215.163-.33.189-.255.073.217-.08.865-.19.798-.055-.034-.1.012-.1.1 0 .09.04.163.09.163.048 0 .028.246-.044.546-.073.3-.216 1.023-.318 1.605-.103.583-.224 1.037-.27 1.008-.047-.028-.084-.002-.084.059 0 .06.037.11.083.11.093 0 .054 1.774-.055 2.496-.057.379-.084.23-.145-.78a15.953 15.953 0 01-.028-.797 22.78 22.78 0 001.424 8.447c.027-.016.075.04.12.156.03.08.021.122-.02.108.176.458.368.909.573 1.352.114-.016.26.175.53.684.475.896.569 1.055.751 1.274.078.093.107.203.066.245-.042.041-.143-.016-.224-.127a.517.517 0 00-.084-.093c.059.1.118.199.178.297.092.071.143.155.136.22l.07.113a.886.886 0 00.052-.016c.125-.039.247-.013.293.061.045.071.025.146-.043.17a.184.184 0 00-.1.099zm11.443-29.72c-.074 0-.061-.041.033-.102.201-.129.237-.129.157 0a.245.245 0 01-.19.103zm1.804.21c-.061 0-.082-.046-.046-.104.035-.057.085-.104.11-.104.026 0 .046.047.046.104a.107.107 0 01-.11.104zm-2.398.089c-.364.126-.429.055-.079-.085.265-.106.392-.128.392-.066 0 .023-.141.091-.313.15zm14.639 1.471c-.06 0-.109-.042-.109-.095 0-.052.235.004.523.125.287.12.522.253.522.294 0 .04-.186-.016-.413-.125-.227-.11-.462-.199-.523-.199zm-18.978 1.613l.199-.235c.11-.128.216-.233.236-.233.083 0 .022.083-.199.27l-.236.198zm-2.815 2.044a6.37 6.37 0 01.55-.754c.376-.44.569-.554.291-.172a23.34 23.34 0 00-.417.6 2.982 2.982 0 01-.436.52c-.176.142-.176.127.012-.194zm.147 2.012a8.13 8.13 0 01.302-.39c.083-.1.169-.182.191-.182.091 0-.175.381-.4.573-.243.207-.243.207-.093-.001zm-4.955 1.404c.011-.086.121-.385.244-.665s.25-.483.282-.45c.032.03.004.159-.063.283-.067.124-.096.251-.065.282.031.031.113-.067.182-.217.137-.299.3-.364.3-.119 0 .085-.18.635-.401 1.222-.399 1.06-.876 2.879-1.015 3.876-.04.286-.095.556-.12.601-.083.142-.122 1.592-.047 1.713.07.114.126-.322.15-1.196.007-.243.055-.442.107-.442s.066-.074.031-.164c-.093-.241.041-.668.21-.668.08 0 .145-.056.145-.125 0-.09.032-.093.114-.011.083.082.08.282-.011.723-.07.335-.15.649-.18.697-.028.048-.07.493-.094.988-.022.495-.065.976-.094 1.068-.043.134-.167 2.55-.166 3.212 0 .086.055.577.122 1.092.067.515.119 1.028.116 1.14a.57.57 0 00.079.312c.047.06.114.33.15.603.036.272.136.728.223 1.014l.325 1.065c.396 1.3 1.703 3.66 2.524 4.562.136.148.233.312.216.363-.017.052.006.104.051.116.145.04 1.031 1.111 1.133 1.37.053.137.127.22.162.184.036-.036.403.263.815.663.412.4.84.797.951.882.111.084.616.481 1.122.882.507.4.964.729 1.018.729.053 0 .402.186.776.413.373.228.798.443.943.48.146.036.295.115.332.174.042.068.016.077-.069.025-.093-.057-.112-.044-.059.041.043.07.133.108.199.085.067-.022.483.14.926.359.443.22.854.399.915.399.06 0 .11.047.11.104 0 .057-.094.104-.209.104-.115 0-.209-.05-.209-.11s-.042-.084-.094-.053c-.051.032-.259-.012-.462-.096-.285-.118-.381-.124-.422-.025-.032.075-.083.032-.125-.106-.039-.129-.112-.234-.161-.234s-.06.075-.024.168c.049.128-.043.105-.395-.097a35.173 35.173 0 00-1.218-.65c-.416-.213-.81-.45-.875-.528-.065-.078-.162-.141-.216-.141-.055 0-.261-.123-.458-.273-.198-.15-.359-.243-.359-.208 0 .075.395.48.467.48.027 0 .368.204.758.453.39.249 1.038.632 1.441.852.402.22.756.434.786.477.03.043.185.128.346.188.16.06.264.155.23.21-.072.116-.369.027-.369-.11 0-.051-.061-.093-.135-.093-.253 0-2.374-1.197-2.374-1.34 0-.045-.062-.082-.138-.082-.181 0-1.337-.868-1.28-.96.025-.04-.05-.078-.165-.087-.181-.013-.191.01-.077.16.115.152.113.158-.018.042-.083-.075-.151-.169-.151-.209 0-.117-2.146-2.149-2.309-2.186-.081-.018-.148-.085-.148-.147 0-.062-.271-.422-.602-.798-1.624-1.847-2.404-3.07-3.323-5.21-.428-.997-.88-2.314-.824-2.403.026-.043 0-.108-.058-.144-.058-.035-.106-.18-.106-.32s-.047-.349-.105-.462a194.12 194.12 0 00-.212-.419c-.06-.117-.085-.25-.057-.294.028-.045-.018-.336-.101-.646-.175-.648-.326-1.877-.417-3.372-.136-2.255.575-6.686 1.343-8.37.118-.259.224-.54.236-.626zm3.588 1.087c-.277.292.112-.68.467-1.168.053-.073.119-.11.147-.082.052.052-.451 1.077-.614 1.25zm32.626 2.033a.622.622 0 01-.102-.26c0-.057.046-.034.102.052a.632.632 0 01.101.26c0 .057-.046.034-.101-.052zm3.689 8.65a1.328 1.328 0 01.025-.414c.052-.15.258-.072.258.096 0 .058-.047.076-.105.04-.057-.035-.104.005-.104.09 0 .084.052.17.116.191.078.026.069.078-.026.156-.113.094-.147.061-.164-.16zm-.727 2.582a6.96 6.96 0 01.193-.65c.135-.386.137-.387.21-.116.055.205.007.367-.193.65-.229.324-.259.34-.21.116zm-.482 2.04c-.035.034-.125.038-.2.007-.084-.033-.059-.057.063-.062.11-.005.172.02.137.054zm-.5.768c-.054 0-.099-.039-.099-.086 0-.048.069-.087.152-.087.084 0 .128.039.099.087a.202.202 0 01-.152.086zm-.086.59c-.123.212-.153.144-.052-.117.036-.093.087-.148.114-.12.027.026-.001.133-.062.238zm-.738 1.276c-.261.26-.289.094-.033-.203.1-.116.197-.166.215-.111.019.055-.063.196-.182.314zm-2.002.248a.946.946 0 01-.003-.215c.007-.072.057-.13.111-.13.225 0 .193.206-.094.6-.337.463-.527.62-.527.434 0-.067-.098-.011-.217.124-.306.346-.121.012.251-.453.17-.213.351-.362.401-.33.051.03.086.017.078-.03zm-1.48 1.633c-.226.108-.227.107-.033-.049.214-.17.268-.193.268-.113 0 .026-.106.1-.235.162zm-.064.358c-.034-.033.008-.103.093-.157.221-.139.25-.122.099.06-.072.086-.159.13-.192.097zm1.88-.02c-.103.101-.115.09-.059-.059.04-.102.098-.16.13-.128.033.032 0 .116-.071.186zm-2.182.4c-.166.13-.17.127-.04-.038.137-.174.223-.229.223-.143 0 .021-.083.103-.183.182zm1.607.196c-.054 0-.012-.094.092-.208.104-.115.228-.208.276-.208.048 0 .007.093-.092.208-.098.114-.222.208-.276.208zm-2.078-.01c-.234.143-.234.142-.036-.08.213-.238.272-.269.272-.143 0 .043-.106.143-.236.222zm-.339.582l.199-.234c.109-.13.215-.234.235-.234.084 0 .022.083-.199.27l-.235.198zm1.2.616c.142-.167.422-.48.622-.694.409-.44.425-.449.425-.241 0 .082-.087.176-.193.21-.106.033-.244.17-.305.306-.062.135-.269.353-.461.484l-.347.24.259-.305zm-1.555.39c.023-.07.301-.334.617-.588.315-.254.589-.464.606-.466.088-.011-.162.283-.439.514-.626.525-.825.662-.784.54zm-23.845-.226c-.115-.062-.209-.135-.209-.164 0-.028.094-.002.209.06.115.06.209.134.209.163 0 .029-.094.002-.209-.06zm23.403.624c-.057 0-.075-.047-.04-.104.036-.058.112-.104.17-.104.057 0 .075.046.04.104-.036.057-.112.104-.17.104zm.483.537l.314-.268c.321-.275.366-.302.366-.224 0 .024-.153.145-.34.268l-.34.224zm.654.037c-.072.037-.014-.029.13-.147.144-.118.332-.215.418-.216.138-.002.054.054-.548.363zm-2.071.05c-.061 0-.082-.047-.046-.104.035-.057.085-.104.11-.104.026 0 .046.047.046.104a.107.107 0 01-.11.104zm-.365 1.184c-.093.035-.135.017-.099-.041.035-.057.108-.103.162-.103.151 0 .118.074-.063.143zm-3.418 1.935c.1 0 .982-.396 1.96-.878.977-.483 1.788-.88 1.803-.884.271-.06-1.118.764-1.96 1.162-1.731.818-1.986.908-1.986.705 0-.057.082-.105.183-.105zm2.686-1.52c-.093.036-.135.019-.099-.04.036-.057.109-.103.163-.103.15 0 .117.074-.064.144zm-3.718.689c-.058 0-.076-.047-.04-.104.036-.057.112-.104.169-.104.058 0 .076.047.04.104-.035.057-.112.104-.169.104zM110.999 53.9c-.097.001-.206-.045-.241-.102-.082-.132.056-.132.261 0 .135.087.132.1-.02.102zm13.453.106c-.087 0-.157-.047-.157-.104 0-.057.07-.104.157-.104.086 0 .156.047.156.104 0 .057-.07.104-.156.104zm-14.217.038c-.086-.034-.157-.079-.157-.101 0-.023.071-.041.157-.041.086 0 .157.045.157.1 0 .056-.071.074-.157.041zm12.967.18a.822.822 0 01.309-.144c.379-.09.421-.069.157.082-.294.167-.623.211-.466.062zm-12.982.29c-.123.007-.334-.078-.47-.187l-.246-.198.287.054c.158.03.287.093.287.14 0 .046.082.105.183.131.145.038.136.05-.041.06zm.616-.335a.404.404 0 01-.261 0c-.072-.03-.013-.053.13-.053.144 0 .203.024.131.053zm4.901.32c.101.1-.845-.014-1.112-.134-.057-.026.146-.03.451-.01.305.02.603.085.661.143zm-4.751.3c-.217.041-.218.038-.019-.056.317-.15.49-.132.915.095.215.114.511.208.659.208.148 0 .371.056.497.124s.352.112.502.098c.268-.026.687.261.562.385-.035.035-.106-.006-.158-.09-.052-.083-.215-.161-.362-.172-.148-.012-.241.023-.207.077.033.054.011.098-.05.098s-.111-.047-.111-.104c0-.057-.07-.104-.157-.104-.086 0-.156-.042-.156-.094s-.188-.07-.417-.039c-.319.043-.431.017-.48-.11-.046-.119-.146-.148-.366-.104-.214.043-.32.015-.363-.097-.037-.095-.151-.14-.289-.114zm4.476-.005l.522-.066c.739-.093 1.574-.11 1.768-.035.215.082.108.249-.16.249-.115 0-.18.047-.144.104.038.061-.077.103-.282.102-.233 0-.299-.03-.204-.09.09-.057-.155-.121-.679-.177l-.821-.087zm5.766.396c-.05-.053.219-.139.627-.2.881-.135 1.19-.06.495.118-.777.2-1.609.29-1.609.172 0-.056.129-.078.287-.05.165.03.25.013.2-.04zm-1.394.095a.35.35 0 00.274-.028c.159-.098.528-.017.528.115 0 .052-.118.064-.263.028-.144-.036-.327-.012-.406.053-.11.091-.158.08-.208-.052-.045-.116-.021-.153.075-.116zm5.373-.072c-.034.034-.125.038-.2.008-.083-.033-.059-.058.063-.063.11-.004.172.02.137.055zm-9.351.11a.602.602 0 01-.314.003c-.102-.026-.044-.05.129-.052.172-.002.255.02.185.048zm.502.443c.122-.122.19-.286.156-.376-.047-.12-.017-.14.122-.08.102.043.262.081.356.085.095.004.148.067.119.141-.028.074.018.134.104.134.085 0 .213.07.285.156.114.136.036.156-.614.156h-.745l.217-.216zm1.377-.383c.273.03.497.012.497-.038 0-.124.181-.115.261.013.036.057.009.104-.059.104-.092 0-.09.04.007.156.106.127.1.156-.031.156-.088 0-.176-.045-.196-.1-.019-.054-.212-.118-.43-.141-.217-.024-.429-.08-.47-.123-.042-.044.148-.056.421-.027zm-2.947.232c-.237-.078-.241-.09-.052-.156.133-.048.215-.023.237.072.019.08.09.138.157.13.247-.031.384.012.384.12 0 .061-.057.074-.131.028a.734.734 0 00-.235-.095 2.882 2.882 0 01-.36-.099zm3.974.012c-.098-.117-.084-.158.065-.196a2.43 2.43 0 01.373-.061c.158-.01.165.017.053.196-.154.245-.321.265-.491.06zm3.467.296c-.424.05-.391.03.236-.138.403-.107.826-.196.941-.197.333-.002-.631.272-1.177.335zm-6.271-.08a.404.404 0 01-.261 0c-.072-.029-.013-.053.13-.053.144 0 .203.024.131.053zm3.398.182c-.249.044-.392.03-.392-.038 0-.06.196-.11.435-.11.514 0 .499.05-.043.148z" fill="#DF0000"/></svg>