<svg width="71" height="91" fill="none" xmlns="http://www.w3.org/2000/svg"><g filter="url(#filter0_ii_172_167)"><path d="M71 74.13V91H4.05V77.58l34.17-32.59c3.628-3.494 6.075-6.476 7.34-8.947 1.266-2.556 1.899-5.07 1.899-7.54 0-3.58-1.224-6.306-3.67-8.18-2.363-1.96-5.864-2.94-10.505-2.94-3.881 0-7.382.767-10.504 2.3-3.122 1.45-5.738 3.664-7.847 6.647L0 16.615C3.46 11.418 8.226 7.37 14.301 4.473 20.376 1.491 27.337 0 35.184 0c6.58 0 12.318 1.108 17.212 3.323 4.978 2.13 8.817 5.198 11.517 9.202 2.784 3.92 4.176 8.563 4.176 13.931 0 4.857-1.012 9.416-3.037 13.676s-5.949 9.117-11.77 14.57L32.906 74.13H71z" fill="#F5F5F5"/></g><defs><filter id="filter0_ii_172_167" x="-4" y="-4" width="79" height="99" filterUnits="userSpaceOnUse" color-interpolation-filters="sRGB"><feFlood flood-opacity="0" result="BackgroundImageFix"/><feBlend in="SourceGraphic" in2="BackgroundImageFix" result="shape"/><feColorMatrix in="SourceAlpha" values="0 0 0 0 0 0 0 0 0 0 0 0 0 0 0 0 0 0 127 0" result="hardAlpha"/><feOffset dx="4" dy="4"/><feGaussianBlur stdDeviation="2"/><feComposite in2="hardAlpha" operator="arithmetic" k2="-1" k3="1"/><feColorMatrix values="0 0 0 0 0.305882 0 0 0 0 0.341176 0 0 0 0 0.368627 0 0 0 0.25 0"/><feBlend in2="shape" result="effect1_innerShadow_172_167"/><feColorMatrix in="SourceAlpha" values="0 0 0 0 0 0 0 0 0 0 0 0 0 0 0 0 0 0 127 0" result="hardAlpha"/><feOffset dx="-4" dy="-4"/><feGaussianBlur stdDeviation="2"/><feComposite in2="hardAlpha" operator="arithmetic" k2="-1" k3="1"/><feColorMatrix values="0 0 0 0 1 0 0 0 0 1 0 0 0 0 1 0 0 0 1 0"/><feBlend in2="effect1_innerShadow_172_167" result="effect2_innerShadow_172_167"/></filter></defs></svg>