<svg width="71" height="91" fill="none" xmlns="http://www.w3.org/2000/svg"><g filter="url(#filter0_ii_172_168)"><path d="M46.781 36.426c7.818 1.278 13.81 4.217 17.973 8.818C68.918 49.76 71 55.384 71 62.115c0 5.198-1.36 10.012-4.079 14.443-2.72 4.345-6.883 7.838-12.492 10.48C48.905 89.679 42.107 91 34.034 91a72.46 72.46 0 01-18.61-2.428C9.39 86.868 4.249 84.482 0 81.414l8.03-15.848c3.4 2.556 7.309 4.558 11.728 6.007a47.268 47.268 0 0013.766 2.045c5.184 0 9.263-.98 12.237-2.94 2.974-2.045 4.462-4.899 4.462-8.563 0-7.328-5.566-10.991-16.699-10.991h-9.432V37.448l18.355-20.833H4.461V0h62.46v13.42l-20.14 23.006z" fill="#F5F5F5"/></g><defs><filter id="filter0_ii_172_168" x="-4" y="-4" width="79" height="99" filterUnits="userSpaceOnUse" color-interpolation-filters="sRGB"><feFlood flood-opacity="0" result="BackgroundImageFix"/><feBlend in="SourceGraphic" in2="BackgroundImageFix" result="shape"/><feColorMatrix in="SourceAlpha" values="0 0 0 0 0 0 0 0 0 0 0 0 0 0 0 0 0 0 127 0" result="hardAlpha"/><feOffset dx="4" dy="4"/><feGaussianBlur stdDeviation="2"/><feComposite in2="hardAlpha" operator="arithmetic" k2="-1" k3="1"/><feColorMatrix values="0 0 0 0 0.305882 0 0 0 0 0.341176 0 0 0 0 0.368627 0 0 0 0.25 0"/><feBlend in2="shape" result="effect1_innerShadow_172_168"/><feColorMatrix in="SourceAlpha" values="0 0 0 0 0 0 0 0 0 0 0 0 0 0 0 0 0 0 127 0" result="hardAlpha"/><feOffset dx="-4" dy="-4"/><feGaussianBlur stdDeviation="2"/><feComposite in2="hardAlpha" operator="arithmetic" k2="-1" k3="1"/><feColorMatrix values="0 0 0 0 1 0 0 0 0 1 0 0 0 0 1 0 0 0 1 0"/><feBlend in2="effect1_innerShadow_172_168" result="effect2_innerShadow_172_168"/></filter></defs></svg>