<svg width="72" height="91" fill="none" xmlns="http://www.w3.org/2000/svg"><g filter="url(#filter0_ii_172_169)"><path d="M34.38 33.614c12.611 0 21.899 2.513 27.863 7.54 6.05 5.028 9.074 11.759 9.074 20.194 0 5.454-1.363 10.438-4.09 14.954-2.726 4.43-6.901 8.01-12.525 10.736C49.164 89.679 42.305 91 34.125 91c-6.305 0-12.525-.81-18.66-2.428C9.415 86.868 4.26 84.482 0 81.414l8.18-15.848c3.408 2.556 7.328 4.558 11.758 6.007a46.24 46.24 0 0013.676 2.045c5.197 0 9.287-1.022 12.27-3.067 2.982-2.045 4.473-4.9 4.473-8.564 0-3.834-1.577-6.73-4.73-8.69-3.067-1.96-8.435-2.94-16.103-2.94H6.646L11.247 0h54.575v16.615h-37.32l-1.406 16.999h7.285z" fill="#F5F5F5"/></g><defs><filter id="filter0_ii_172_169" x="-4" y="-4" width="79.317" height="99" filterUnits="userSpaceOnUse" color-interpolation-filters="sRGB"><feFlood flood-opacity="0" result="BackgroundImageFix"/><feBlend in="SourceGraphic" in2="BackgroundImageFix" result="shape"/><feColorMatrix in="SourceAlpha" values="0 0 0 0 0 0 0 0 0 0 0 0 0 0 0 0 0 0 127 0" result="hardAlpha"/><feOffset dx="4" dy="4"/><feGaussianBlur stdDeviation="2"/><feComposite in2="hardAlpha" operator="arithmetic" k2="-1" k3="1"/><feColorMatrix values="0 0 0 0 0.305882 0 0 0 0 0.341176 0 0 0 0 0.368627 0 0 0 0.25 0"/><feBlend in2="shape" result="effect1_innerShadow_172_169"/><feColorMatrix in="SourceAlpha" values="0 0 0 0 0 0 0 0 0 0 0 0 0 0 0 0 0 0 127 0" result="hardAlpha"/><feOffset dx="-4" dy="-4"/><feGaussianBlur stdDeviation="2"/><feComposite in2="hardAlpha" operator="arithmetic" k2="-1" k3="1"/><feColorMatrix values="0 0 0 0 1 0 0 0 0 1 0 0 0 0 1 0 0 0 1 0"/><feBlend in2="effect1_innerShadow_172_169" result="effect2_innerShadow_172_169"/></filter></defs></svg>