<svg width="200" height="107" fill="none" xmlns="http://www.w3.org/2000/svg"><path d="M38.339 90.897l4.966-4.969m118.442 0l4.966 4.97m-18.009 2.64c2.272 6.11 8.153 10.462 15.05 10.462 8.865 0 16.053-7.192 16.053-16.064s-7.188-16.064-16.053-16.064c-8.866 0-16.054 7.192-16.054 16.064 0 1.97.355 3.858 1.004 5.602zm0 0H55.395m0 0a16.04 16.04 0 001.004-5.602c0-8.872-7.188-16.064-16.053-16.064-8.866 0-16.053 7.192-16.053 16.064 0 1.012.093 2.002.272 2.961m30.83 2.641C53.123 99.648 47.242 104 40.345 104c-7.854 0-14.391-5.645-15.78-13.103m0 0c-3.603-.987-11.61-3.262-14.82-4.467-4.014-1.506-6.02-4.016-6.522-5.522-.32-.958-.232-8.818-.127-15.06m71.864-10.04h13.043m55.183 0c9.698.502 31.002 2.209 38.627 5.02 8.636 3.183 14.8 6.367 15.883 11.044m-54.51-16.064c-7.191-4.853-22.475-14.96-26.087-16.566-4.515-2.008-8.026-4.518-16.053-5.02-2.568-.16-7.467-.22-13.043-.222m55.183 21.808H88.003M189.84 93.96c3.01 0 4.515.502 7.023-3.063 1.677-2.383 1.003-11.997 1.003-17.52 0-.518-.057-1.02-.17-1.505m-10.365 0h10.365M88.003 55.808V34m0 0c-8.368-.003-18.26.121-24.08.222-1.311 0-4.527.51-9.03 2.26m-15.55 7.767c3.004-1.534 6.174-3.24 9.53-5.007a58.106 58.106 0 016.02-2.76m-15.55 7.767c-5.53 2.821-10.5 5.061-15.05 6.037-7.024 1.506-17.558 1.506-19.063 3.012-1.505 1.506-2.007 2.51-2.007 5.02 0 .914-.067 3.957-.127 7.53m36.246-21.6C42.52 47.6 49.275 54.504 50.88 55.307m13.044.502c-3.68.167-11.438.301-13.044-.502m0 0l4.014-18.825M3.096 65.848h7.652m56.185 16.064h69.229" stroke="#fff" stroke-width="3" stroke-linecap="round" stroke-linejoin="round"/></svg>