<svg width="200" height="107" fill="none" xmlns="http://www.w3.org/2000/svg"><path d="M54.529 72.03c0 10.93-8.821 19.79-19.703 19.79-10.88 0-19.702-8.86-19.702-19.79s8.821-19.791 19.702-19.791m132.358 20.298l-13.083-43.134M131.316 2h10.104c3.637 0 5.557 3.721 6.062 5.582l3.309 10.91m-85.52 49.18l9.606-3.912c3.62-1.474 5.364-5.617 3.897-9.253a7.075 7.075 0 00-5.554-4.365m-7.95 17.53L37.097 79.145c-3.62 1.474-7.744-.279-9.212-3.915-1.467-3.636.277-7.779 3.897-9.253l28.2-11.484m5.288 13.18a31.847 31.847 0 01.272 7.402m-5.56-20.582c-5.664-8.114-15.046-13.418-25.66-13.418C17.022 41.075 3 55.16 3 72.537S17.023 104 34.321 104c16.448 0 29.935-12.736 31.221-28.925m-5.56-20.582l9.58-3.9a7.01 7.01 0 013.658-.451m80.881-20.739l-.462-1.522m.462 1.522c-6.399 1.948-17.41 8.24-24.603 20.299M65.542 75.075l22.834 6.597c6.23.169 20.308.406 26.774 0 6.467-.406 7.746-7.274 7.578-10.657.782-8.515 3.343-15.569 6.77-21.313m-56.278.44l-3.658-12.62m22.35-12.179c2.829-8.12 10.609-10.487 14.145-10.656h15.155c2.49-.11 6.579.635 9.184 3.552m-38.484 7.104c-3.536 10.15 2.02 12.18 5.052 12.18m-5.052-12.18l-53.044-9.642c-4.547-.507-8.588 0-9.599 5.583-1.088 6.012 3.032 7.611 5.557 8.626 2.021.812 22.397 5.413 32.332 7.612h2.404m27.402 0h13.134m-13.134 0h-3.027m-24.375 0h19.314m41.52-19.283c1.447 1.621 2.436 3.914 2.436 7.104 0 8.932-6.399 11.841-9.599 12.18h-13.135m20.298-19.284l20.395.253m0 0c.413-1.945 3.864-5.43 14.372-3.805.674.507 2.021 2.435 2.021 6.09 0 4.566-1.01 7.611-2.021 8.118-1.01.508-8.904.508-11.524-1.014m-2.848-9.389l2.848 9.389m-43.541 9.641c0 3.89 1.011 11.04 7.578 13.07 6.578 2.033 11.081-.721 11.822-.89m-35.56-12.18a6.6 6.6 0 014.036 6.09c0 3.643-2.94 6.597-6.567 6.597-3.627 0-6.568-2.954-6.568-6.597a6.6 6.6 0 014.037-6.09m5.061 0h-5.06m98.009 34.508c0 10.93-8.821 19.79-19.702 19.79-10.881 0-19.702-8.86-19.702-19.79s8.821-19.791 19.702-19.791c10.881 0 19.702 8.86 19.702 19.79zm11.114.507C198 89.914 183.977 104 166.679 104c-17.298 0-31.321-14.086-31.321-31.463 0-17.376 14.023-31.462 31.321-31.462C183.977 41.075 198 55.16 198 72.537zm-92.953-6.597c0 3.644-2.941 6.597-6.568 6.597s-6.567-2.953-6.567-6.597c0-3.643 2.94-6.597 6.567-6.597 3.627 0 6.568 2.954 6.568 6.597z" stroke="#fff" stroke-width="3" stroke-linecap="round" stroke-linejoin="round"/></svg>