<svg width="200" height="107" fill="none" xmlns="http://www.w3.org/2000/svg"><path d="M35.137 90.891l4.962-4.972m117.323 0l4.962 4.972M51.801 94.457a16.046 16.046 0 001.378-6.529c0-8.876-7.18-16.072-16.037-16.072s-16.038 7.196-16.038 16.072c0 1.012.094 2.003.273 2.963M51.8 94.457C49.303 100.08 43.679 104 37.14 104c-7.846 0-14.377-5.648-15.764-13.109M51.8 94.457h92.967m0 0c2.498 5.623 8.122 9.543 14.659 9.543 6.538 0 12.162-3.92 14.659-9.543m-29.318 0a16.047 16.047 0 01-1.378-6.529c0-2.522.579-4.908 1.612-7.032M61.699 70.851c3.007 3.014 9.322 9.242 10.525 10.045 1.203.804 49.02.335 72.778 0m0 0c2.603-5.352 8.084-9.04 14.425-9.04 8.857 0 16.038 7.196 16.038 16.072 0 2.325-.493 4.534-1.379 6.53m0 0h19.421c1.002-.336 3.207-1.809 4.009-5.023.675-2.707.668-7.465-.174-11.05M84.252 62.313l43.602 6.027c10.726-4.067 16.589-6.454 22.051-7.744m37.588 17.79h9.849m0 0c-.409-1.738-1.013-3.2-1.831-4.019-2.506-2.511-20.046-15.067-32.576-15.067-5.282 0-9.049.357-13.03 1.297M21.376 90.89c-4.935-1.323-15.206-4.57-16.81-6.981-1.604-2.41-1.67-17.746-1.504-25.113 15.675-2.365 40.467-6.068 59.64-8.841m87.203 10.64c-5.179-2.273-18.243-7.725-29.068-11.341-13.531-4.52-26.562-3.014-30.571-3.014-1.395 0-12.818 1.582-27.565 3.715m10.525 11.353c-1.838.167-6.114-.1-8.52-2.512-2.405-2.41-2.339-6.898-2.005-8.841" stroke="#fff" stroke-width="3" stroke-linecap="round" stroke-linejoin="round"/></svg>