<svg width="200" height="107" fill="none" xmlns="http://www.w3.org/2000/svg"><path d="M41.212 89.883l5.327-5.355m111.998 0l5.328 5.355m-136.47 3.3C29.948 99.524 36.136 104 43.364 104c7.227 0 13.415-4.475 15.97-10.818m-31.94 0a17.335 17.335 0 01-1.253-6.49c0-9.56 7.71-17.308 17.222-17.308s17.222 7.749 17.222 17.308c0 2.295-.444 4.486-1.252 6.49m-31.94 0H9.458C7.306 93.002 3 91.452 3 86.692V79.66M16.993 18H9.458C4.292 18 3 22.327 3 24.49v55.17M16.993 18v21.094c0 2.164 1.184 6.49 5.92 6.49h4.844M16.993 18h32.291M3 79.66h11.302m174.912 13.522c2.153 0 6.781-.865 8.073-4.327.52-1.394.708-4.939.713-9.195m-38.387-34.616c6.1 1.623 20.236 5.3 27.986 7.032 7.75 1.73 9.688 6.49 9.688 8.654.034.506.069 1.05.105 1.622m-37.779-17.308l-41.978.54c-2.691 0-8.073-1.297-8.073-6.49V18m50.051 27.044c-5.92-6.31-18.621-19.688-22.065-22.717-3.445-3.029-9.329-4.147-11.841-4.327h-16.145m0 0H96.107m90.416 44.352h10.869m0 0c.297 4.784.614 11.67.608 17.308m-7.71 0H198M96.107 18v21.094c0 2.164-1.507 6.49-7.535 6.49H49.284M96.107 18H49.284M35.83 45.585h13.454m0 0V18m10.05 75.182h85.386m0 0c2.554 6.343 8.742 10.818 15.97 10.818 9.511 0 17.222-7.75 17.222-17.308 0-9.56-7.711-17.308-17.222-17.308-9.512 0-17.222 7.749-17.222 17.308 0 2.295.444 4.486 1.252 6.49zM131.628 79.66h-62.43" stroke="#fff" stroke-width="3" stroke-linecap="round" stroke-linejoin="round"/></svg>