<svg width="200" height="107" fill="none" xmlns="http://www.w3.org/2000/svg"><path d="M28.566 90.985l4.962-4.937m121.361 0l4.963 4.937m-97.199-4.937l4.962 4.937m-37.044-18.9c-8.86 0-16.041 7.145-16.041 15.958S21.71 104 30.57 104s16.042-7.144 16.042-15.957S39.43 72.085 30.57 72.085zm0 0h34.087m-34.087 0H8.013C6.342 72.252 3 71.587 3 67.599V25.71c0-4.488 3.008-3.99 6.517-3.99h103.766c6.516 0 9.023 0 13.534-3.989 4.239-3.748 7.52-7.48 9.525-8.477.76-.378 4.239-.223 8.522-.22M80.699 88.043C80.7 96.856 73.517 104 64.66 104c-8.86 0-16.042-7.144-16.042-15.957S55.8 72.085 64.659 72.085M80.7 88.043c0-8.813-7.182-15.958-16.04-15.958M80.7 88.043h60.154m32.083 0c0 8.813-7.182 15.957-16.041 15.957-8.86 0-16.042-7.144-16.042-15.957m32.083 0h19.049c3.609 0 5.514-3.657 6.015-5.486v-7.48m-25.064 12.966c0-5.341-2.638-10.069-6.688-12.966m-25.395 12.966c0-8.813 7.182-15.958 16.042-15.958m0 0V52.14m0 19.946c3.49 0 6.72 1.11 9.353 2.993m-2.837-66.044s-12.531.003-18.547 0m0 0v25.652m-57.648 37.4h45.617c9.224-.798 11.864-8.644 12.031-12.467V34.686m12.031 6.482v-6.482m12.532-13.464h-9.023c-2.808 0-3.509 2.327-3.509 3.49v9.974m12.532-13.464h14.036c1.671 0 5.313 1.097 6.516 5.485.954 3.477 4.068 13.235 6.4 20.445m-26.952-25.93v19.946c.167 1.995 1.504 5.984 5.514 5.984h21.438m0 0a2154.2 2154.2 0 001.621 4.987v9.973m-7.018 0H198m0 0v12.965m0 0h-31.752M19.041 36.182v20.944m15.54-20.944v20.944m16.041-20.944v20.944m15.54-20.944v20.944m15.54-20.944v20.944m15.54-20.944v20.944m16.041-20.944v20.944m15.54-20.944v20.944m28.072-22.44h-12.031" stroke="#fff" stroke-width="3" stroke-linecap="round" stroke-linejoin="round"/></svg>