<svg width="200" height="107" fill="none" xmlns="http://www.w3.org/2000/svg"><path d="M41.664 89.76l5.373-5.402m111.861 0l5.372 5.401M26.467 86.541c0 9.642 7.776 17.459 17.368 17.459 8.498 0 15.57-6.136 17.073-14.24m-34.44-3.22c0-9.642 7.775-17.459 17.367-17.459s17.368 7.817 17.368 17.46c0 1.1-.101 2.175-.295 3.218m-34.44-3.218c-4.705 0-14.98-.764-18.454-3.82-4.342-3.819-5.428-6.547-4.885-26.189m0 0h7.598m-7.598 0c-.18-3.091 0-10.257 2.171-14.185 2.714-4.91 13.569-18.005 16.282-19.642 2.171-1.31 10.675-1.637 14.655-1.637m153.597 68.746c1.628 0 5.21-.436 6.513-2.182 1.435-1.924 2.449-18.264.81-25.098m-57.798-17.46c47.761 2.183 54.274 10.913 56.988 15.278.322.517.59 1.264.81 2.182m-57.798-17.46H82.913m56.446 0c-10.494-6.728-32.565-20.623-36.907-22.37-4.342-1.745-17.368-1.818-23.338-1.636m3.799 24.007l-3.8-24.007m3.8 24.007H44.92m34.193-24.007H44.92m141.658 41.466h10.579M36.237 21.068c-2.352 4.365-7.49 13.967-9.227 17.46-2.171 4.364-1.086 5.455 1.085 6.547H44.92m-8.683-24.007h8.683m0 0v24.007m15.988 44.684l83.097.055m0 0C145.53 97.892 152.59 104 161.068 104c9.593 0 17.368-7.817 17.368-17.46 0-9.642-7.775-17.459-17.368-17.459-9.592 0-17.367 7.817-17.367 17.46 0 1.118.104 2.213.304 3.273zm-9.531-13.64H66.088" stroke="#fff" stroke-width="3" stroke-linecap="round" stroke-linejoin="round"/></svg>