<svg width="71" height="91" viewBox="0 0 71 91" fill="none" xmlns="http://www.w3.org/2000/svg">
<g filter="url(#filter0_ii_172_168)">
<path d="M46.781 36.4256C54.599 37.7037 60.5901 40.6433 64.754 45.2444C68.918 49.7603 71 55.3839 71 62.1152C71 67.3127 69.6403 72.1269 66.921 76.5576C64.2017 80.9031 60.0377 84.3965 54.4291 87.0379C48.9054 89.6793 42.1071 91 34.0341 91C27.7457 91 21.5422 90.1905 15.4237 88.5716C9.39019 86.8675 4.24895 84.4817 0 81.4143L8.03052 65.566C11.4297 68.1222 15.3387 70.1245 19.7576 71.573C24.2615 72.9363 28.8504 73.618 33.5242 73.618C38.708 73.618 42.787 72.6381 45.7612 70.6784C48.7355 68.6334 50.2226 65.779 50.2226 62.1152C50.2226 54.7875 44.6565 51.1236 33.5242 51.1236H24.0916V37.448L42.447 16.6152H4.4614V0H66.921V13.4199L46.781 36.4256Z" fill="#F5F5F5"/>
</g>
<defs>
<filter id="filter0_ii_172_168" x="-4" y="-4" width="79" height="99" filterUnits="userSpaceOnUse" color-interpolation-filters="sRGB">
<feFlood flood-opacity="0" result="BackgroundImageFix"/>
<feBlend mode="normal" in="SourceGraphic" in2="BackgroundImageFix" result="shape"/>
<feColorMatrix in="SourceAlpha" type="matrix" values="0 0 0 0 0 0 0 0 0 0 0 0 0 0 0 0 0 0 127 0" result="hardAlpha"/>
<feOffset dx="4" dy="4"/>
<feGaussianBlur stdDeviation="2"/>
<feComposite in2="hardAlpha" operator="arithmetic" k2="-1" k3="1"/>
<feColorMatrix type="matrix" values="0 0 0 0 0.305882 0 0 0 0 0.341176 0 0 0 0 0.368627 0 0 0 0.25 0"/>
<feBlend mode="normal" in2="shape" result="effect1_innerShadow_172_168"/>
<feColorMatrix in="SourceAlpha" type="matrix" values="0 0 0 0 0 0 0 0 0 0 0 0 0 0 0 0 0 0 127 0" result="hardAlpha"/>
<feOffset dx="-4" dy="-4"/>
<feGaussianBlur stdDeviation="2"/>
<feComposite in2="hardAlpha" operator="arithmetic" k2="-1" k3="1"/>
<feColorMatrix type="matrix" values="0 0 0 0 1 0 0 0 0 1 0 0 0 0 1 0 0 0 1 0"/>
<feBlend mode="normal" in2="effect1_innerShadow_172_168" result="effect2_innerShadow_172_168"/>
</filter>
</defs>
</svg>
