<svg width="73" height="91" viewBox="0 0 73 91" fill="none" xmlns="http://www.w3.org/2000/svg">
<g filter="url(#filter0_ii_312_522)">
<path d="M42.3577 34.3135C47.9719 34.3135 53.0833 35.4447 57.692 37.7072C62.3006 39.9696 65.9457 43.1957 68.6271 47.3854C71.3085 51.4912 72.6492 56.2675 72.6492 61.7141C72.6492 67.5797 71.1828 72.733 68.25 77.174C65.3172 81.6151 61.2951 85.0506 56.1837 87.4807C51.1561 89.8269 45.5419 91 39.3412 91C27.0235 91 17.3872 87.2293 10.4323 79.6878C3.47744 72.1464 0 61.3789 0 47.3854C0 37.4139 1.88536 28.8669 5.65608 21.7445C9.4268 14.622 14.6639 9.21731 21.3674 5.53038C28.1547 1.84346 35.9894 0 44.8715 0C49.564 0 54.047 0.544657 58.3204 1.63397C62.6777 2.6395 66.3646 4.10589 69.3812 6.03315L61.8398 20.9903C57.4825 18.0575 51.994 16.5912 45.3743 16.5912C37.9167 16.5912 32.0092 18.7698 27.6519 23.1271C23.2947 27.4843 20.9484 33.8108 20.6133 42.1064C25.8085 36.9111 33.0566 34.3135 42.3577 34.3135ZM38.2099 75.7914C42.5672 75.7914 46.0866 74.6183 48.768 72.2721C51.5331 69.9259 52.9157 66.7417 52.9157 62.7196C52.9157 58.6975 51.5331 55.5133 48.768 53.1671C46.0866 50.7371 42.4834 49.5221 37.9586 49.5221C33.5175 49.5221 29.8725 50.779 27.0235 53.2928C24.1745 55.7228 22.75 58.8651 22.75 62.7196C22.75 66.5741 24.1326 69.7164 26.8978 72.1464C29.663 74.5764 33.4337 75.7914 38.2099 75.7914Z" fill="#F5F5F5"/>
</g>
<defs>
<filter id="filter0_ii_312_522" x="-4" y="-4" width="80.6484" height="99" filterUnits="userSpaceOnUse" color-interpolation-filters="sRGB">
<feFlood flood-opacity="0" result="BackgroundImageFix"/>
<feBlend mode="normal" in="SourceGraphic" in2="BackgroundImageFix" result="shape"/>
<feColorMatrix in="SourceAlpha" type="matrix" values="0 0 0 0 0 0 0 0 0 0 0 0 0 0 0 0 0 0 127 0" result="hardAlpha"/>
<feOffset dx="4" dy="4"/>
<feGaussianBlur stdDeviation="2"/>
<feComposite in2="hardAlpha" operator="arithmetic" k2="-1" k3="1"/>
<feColorMatrix type="matrix" values="0 0 0 0 0.305882 0 0 0 0 0.341176 0 0 0 0 0.368627 0 0 0 0.25 0"/>
<feBlend mode="normal" in2="shape" result="effect1_innerShadow_312_522"/>
<feColorMatrix in="SourceAlpha" type="matrix" values="0 0 0 0 0 0 0 0 0 0 0 0 0 0 0 0 0 0 127 0" result="hardAlpha"/>
<feOffset dx="-4" dy="-4"/>
<feGaussianBlur stdDeviation="2"/>
<feComposite in2="hardAlpha" operator="arithmetic" k2="-1" k3="1"/>
<feColorMatrix type="matrix" values="0 0 0 0 1 0 0 0 0 1 0 0 0 0 1 0 0 0 1 0"/>
<feBlend mode="normal" in2="effect1_innerShadow_312_522" result="effect2_innerShadow_312_522"/>
</filter>
</defs>
</svg>
