<svg width="75" height="91" viewBox="0 0 75 91" fill="none" xmlns="http://www.w3.org/2000/svg">
<g filter="url(#filter0_ii_312_545)">
<path d="M60.7086 43.2376C65.0658 45.4162 68.3757 48.2652 70.6381 51.7845C72.9843 55.3039 74.1574 59.3679 74.1574 63.9765C74.1574 69.4231 72.6073 74.1994 69.5069 78.3053C66.4065 82.3274 62.0493 85.4696 56.4351 87.732C50.8209 89.9107 44.3269 91 36.953 91C29.5792 91 23.0852 89.9107 17.471 87.732C11.9406 85.4696 7.62523 82.3274 4.52486 78.3053C1.50829 74.1994 0 69.4231 0 63.9765C0 59.3679 1.13122 55.3039 3.39365 51.7845C5.73987 48.2652 9.04972 45.4162 13.3232 43.2376C10.0552 41.2265 7.54144 38.7127 5.78177 35.6961C4.0221 32.5958 3.14227 29.0764 3.14227 25.1381C3.14227 20.0267 4.56676 15.5856 7.41575 11.8149C10.2647 8.0442 14.2449 5.15331 19.3564 3.14226C24.4678 1.04742 30.3333 0 36.953 0C43.6565 0 49.564 1.04742 54.6754 3.14226C59.8706 5.15331 63.8927 8.0442 66.7417 11.8149C69.5907 15.5856 71.0152 20.0267 71.0152 25.1381C71.0152 29.0764 70.1354 32.5958 68.3757 35.6961C66.616 38.7127 64.0603 41.2265 60.7086 43.2376ZM36.953 14.9572C32.8471 14.9572 29.5373 15.9627 27.0235 17.9738C24.5935 19.901 23.3785 22.5824 23.3785 26.018C23.3785 29.3697 24.5935 32.0092 27.0235 33.9365C29.4535 35.8637 32.7634 36.8273 36.953 36.8273C41.1427 36.8273 44.4945 35.8637 47.0083 33.9365C49.5221 32.0092 50.779 29.3697 50.779 26.018C50.779 22.5824 49.5221 19.901 47.0083 17.9738C44.4945 15.9627 41.1427 14.9572 36.953 14.9572ZM36.953 76.0428C42.0645 76.0428 46.0866 74.9116 49.0193 72.6492C52.0359 70.3029 53.5442 67.2026 53.5442 63.3481C53.5442 59.4936 52.0359 56.4351 49.0193 54.1726C46.0866 51.9102 42.0645 50.779 36.953 50.779C31.9254 50.779 27.9452 51.9102 25.0124 54.1726C22.0796 56.4351 20.6133 59.4936 20.6133 63.3481C20.6133 67.2864 22.0796 70.3867 25.0124 72.6492C27.9452 74.9116 31.9254 76.0428 36.953 76.0428Z" fill="#F5F5F5"/>
</g>
<defs>
<filter id="filter0_ii_312_545" x="-4" y="-4" width="82.1562" height="99" filterUnits="userSpaceOnUse" color-interpolation-filters="sRGB">
<feFlood flood-opacity="0" result="BackgroundImageFix"/>
<feBlend mode="normal" in="SourceGraphic" in2="BackgroundImageFix" result="shape"/>
<feColorMatrix in="SourceAlpha" type="matrix" values="0 0 0 0 0 0 0 0 0 0 0 0 0 0 0 0 0 0 127 0" result="hardAlpha"/>
<feOffset dx="4" dy="4"/>
<feGaussianBlur stdDeviation="2"/>
<feComposite in2="hardAlpha" operator="arithmetic" k2="-1" k3="1"/>
<feColorMatrix type="matrix" values="0 0 0 0 0.305882 0 0 0 0 0.341176 0 0 0 0 0.368627 0 0 0 0.25 0"/>
<feBlend mode="normal" in2="shape" result="effect1_innerShadow_312_545"/>
<feColorMatrix in="SourceAlpha" type="matrix" values="0 0 0 0 0 0 0 0 0 0 0 0 0 0 0 0 0 0 127 0" result="hardAlpha"/>
<feOffset dx="-4" dy="-4"/>
<feGaussianBlur stdDeviation="2"/>
<feComposite in2="hardAlpha" operator="arithmetic" k2="-1" k3="1"/>
<feColorMatrix type="matrix" values="0 0 0 0 1 0 0 0 0 1 0 0 0 0 1 0 0 0 1 0"/>
<feBlend mode="normal" in2="effect1_innerShadow_312_545" result="effect2_innerShadow_312_545"/>
</filter>
</defs>
</svg>
