<svg width="73" height="91" viewBox="0 0 73 91" fill="none" xmlns="http://www.w3.org/2000/svg">
<g filter="url(#filter0_ii_312_546)">
<path d="M33.308 0C45.6257 0 55.262 3.77072 62.2169 11.3122C69.1717 18.7698 72.6492 29.5373 72.6492 43.6146C72.6492 53.5861 70.7638 62.1331 66.9931 69.2555C63.3062 76.378 58.0691 81.7827 51.2818 85.4696C44.4945 89.1565 36.6598 91 27.7776 91C23.0852 91 18.6022 90.4972 14.3287 89.4917C10.0552 88.4024 6.41022 86.8941 3.39365 84.9669L10.9351 70.0097C15.2086 72.9425 20.6971 74.4088 27.4006 74.4088C34.8582 74.4088 40.7657 72.2302 45.1229 67.8729C49.4802 63.4319 51.8264 57.0635 52.1616 48.768C46.8826 54.047 39.5925 56.6865 30.2914 56.6865C24.6773 56.6865 19.5658 55.5553 14.9572 53.2928C10.3485 51.0304 6.7035 47.8462 4.0221 43.7403C1.3407 39.5506 0 34.7325 0 29.2859C0 23.4203 1.46639 18.267 4.39917 13.826C7.33195 9.3849 11.3122 5.99125 16.3398 3.64503C21.4512 1.21501 27.1073 0 33.308 0ZM34.8163 41.4779C39.2574 41.4779 42.8605 40.2629 45.6257 37.8329C48.4747 35.3191 49.8992 32.1349 49.8992 28.2804C49.8992 24.4259 48.5166 21.2836 45.7514 18.8536C43.07 16.4236 39.3412 15.2086 34.5649 15.2086C30.2076 15.2086 26.6464 16.3817 23.8812 18.7279C21.1998 21.0741 19.8591 24.2583 19.8591 28.2804C19.8591 32.3025 21.1998 35.5285 23.8812 37.9586C26.6464 40.3048 30.2914 41.4779 34.8163 41.4779Z" fill="#F5F5F5"/>
</g>
<defs>
<filter id="filter0_ii_312_546" x="-4" y="-4" width="80.6484" height="99" filterUnits="userSpaceOnUse" color-interpolation-filters="sRGB">
<feFlood flood-opacity="0" result="BackgroundImageFix"/>
<feBlend mode="normal" in="SourceGraphic" in2="BackgroundImageFix" result="shape"/>
<feColorMatrix in="SourceAlpha" type="matrix" values="0 0 0 0 0 0 0 0 0 0 0 0 0 0 0 0 0 0 127 0" result="hardAlpha"/>
<feOffset dx="4" dy="4"/>
<feGaussianBlur stdDeviation="2"/>
<feComposite in2="hardAlpha" operator="arithmetic" k2="-1" k3="1"/>
<feColorMatrix type="matrix" values="0 0 0 0 0.305882 0 0 0 0 0.341176 0 0 0 0 0.368627 0 0 0 0.25 0"/>
<feBlend mode="normal" in2="shape" result="effect1_innerShadow_312_546"/>
<feColorMatrix in="SourceAlpha" type="matrix" values="0 0 0 0 0 0 0 0 0 0 0 0 0 0 0 0 0 0 127 0" result="hardAlpha"/>
<feOffset dx="-4" dy="-4"/>
<feGaussianBlur stdDeviation="2"/>
<feComposite in2="hardAlpha" operator="arithmetic" k2="-1" k3="1"/>
<feColorMatrix type="matrix" values="0 0 0 0 1 0 0 0 0 1 0 0 0 0 1 0 0 0 1 0"/>
<feBlend mode="normal" in2="effect1_innerShadow_312_546" result="effect2_innerShadow_312_546"/>
</filter>
</defs>
</svg>
