<svg width="200" height="107" viewBox="0 0 200 107" fill="none" xmlns="http://www.w3.org/2000/svg">
<path d="M41.6641 89.7594L47.037 84.3582M158.898 84.3582L164.27 89.7594M26.4671 86.5406C26.4671 96.1831 34.243 104 43.835 104C52.3331 104 59.4057 97.8643 60.9084 89.7594M26.4671 86.5406C26.4671 76.898 34.243 69.0812 43.835 69.0812C53.427 69.0812 61.2029 76.898 61.2029 86.5406C61.2029 87.6402 61.1018 88.7161 60.9084 89.7594M26.4671 86.5406C21.7633 86.5406 11.4873 85.7767 8.01368 82.7213C3.67171 78.9021 2.58621 76.1741 3.12896 56.5323M3.12896 56.5323H10.7275M3.12896 56.5323C2.94811 53.4405 3.12914 46.2749 5.30005 42.3466C8.01368 37.4361 18.8687 24.3416 21.5825 22.7048C23.7535 21.3953 32.2565 21.068 36.2366 21.068M189.834 89.8143C191.462 89.8143 195.044 89.3778 196.347 87.6318C197.782 85.708 198.796 69.3685 197.157 62.534M139.359 45.0746C187.12 47.257 193.633 55.9867 196.347 60.3516C196.669 60.8687 196.937 61.6155 197.157 62.534M139.359 45.0746H82.9129M139.359 45.0746C128.865 38.3455 106.794 24.4507 102.452 22.7048C98.1098 20.9588 85.0839 20.8861 79.1137 21.068M82.9129 45.0746L79.1137 21.068M82.9129 45.0746C70.7915 45.0746 46.2232 45.0746 44.9205 45.0746M79.1137 21.068H44.9205M186.578 62.534H197.157M36.2366 21.068C33.8847 25.4328 28.7467 35.0354 27.0099 38.5273C24.8389 42.8922 25.9244 43.9834 28.0954 45.0746H44.9205M36.2366 21.068H44.9205M44.9205 21.068V45.0746M60.9084 89.7594L144.005 89.8143M144.005 89.8143C145.53 97.892 152.59 104 161.068 104C170.661 104 178.436 96.1832 178.436 86.5406C178.436 76.8981 170.661 69.0812 161.068 69.0812C151.476 69.0812 143.701 76.8981 143.701 86.5406C143.701 87.6595 143.805 88.7539 144.005 89.8143ZM134.474 76.1741H66.0877" stroke="white" stroke-width="3" stroke-linecap="round" stroke-linejoin="round"/>
</svg>
