<svg width="200" height="107" viewBox="0 0 200 107" fill="none" xmlns="http://www.w3.org/2000/svg">
<path d="M38.339 90.8975L43.3052 85.928M161.747 85.9279L166.713 90.8975M148.704 93.5385C150.976 99.6479 156.857 104 163.754 104C172.619 104 179.807 96.8079 179.807 87.9359C179.807 79.064 172.619 71.8719 163.754 71.8719C154.888 71.8719 147.7 79.064 147.7 87.9359C147.7 89.9065 148.055 91.7941 148.704 93.5385ZM148.704 93.5385H55.3954M55.3954 93.5385C56.0442 91.7941 56.3987 89.9065 56.3987 87.9359C56.3987 79.064 49.2115 71.8719 40.3457 71.8719C31.4798 71.8719 24.2926 79.064 24.2926 87.9359C24.2926 88.9477 24.3861 89.9376 24.5648 90.8975M55.3954 93.5385C53.1232 99.6479 47.2423 104 40.3457 104C32.4909 104 25.9537 98.3547 24.5648 90.8975M24.5648 90.8975C20.9625 89.9103 12.9551 87.6347 9.74446 86.43C5.73119 84.924 3.72462 82.4139 3.22296 80.9079C2.90393 79.9502 2.99067 72.0898 3.09611 65.8479M74.9601 55.8078H88.0031M143.186 55.8078C152.884 56.3098 174.188 58.0166 181.813 60.8278C190.449 64.0115 196.613 67.1951 197.696 71.8719M143.186 55.8078C135.995 50.9551 120.711 40.8482 117.099 39.2418C112.584 37.2338 109.073 34.7237 101.046 34.2217C98.4785 34.0612 93.579 34.0022 88.0031 34.0001M143.186 55.8078H88.0031M189.84 93.96C192.85 93.96 194.355 94.462 196.863 90.8975C198.54 88.5143 197.866 78.8999 197.866 73.3779C197.866 72.8587 197.809 72.3572 197.696 71.8719M187.331 71.8719H197.696M88.0031 55.8078V34.0001M88.0031 34.0001C79.6352 33.9968 69.7439 34.1213 63.9236 34.2217C62.612 34.2217 59.3959 34.7322 54.8937 36.4812M39.3423 44.2488C42.3474 42.7151 45.5173 41.0096 48.8738 39.2418C51.0619 38.0894 53.0819 37.185 54.8937 36.4812M39.3423 44.2488C33.8137 47.0703 28.8426 49.3102 24.2926 50.2858C17.2694 51.7918 6.73457 51.7918 5.22959 53.2978C3.72462 54.8038 3.22296 55.8078 3.22296 58.3179C3.22296 59.2316 3.15647 62.2746 3.09611 65.8479M39.3423 44.2488C42.5195 47.5998 49.2752 54.5026 50.8804 55.3058M63.9236 55.8078C60.2447 55.9752 52.4857 56.1091 50.8804 55.3058M50.8804 55.3058L54.8937 36.4812M3.09611 65.8479H10.7478M66.9335 81.9119H136.162" stroke="white" stroke-width="3" stroke-linecap="round" stroke-linejoin="round"/>
</svg>
