<svg width="200" height="107" viewBox="0 0 200 107" fill="none" xmlns="http://www.w3.org/2000/svg">
<path d="M28.5656 90.9847L33.528 86.0481M154.889 86.0481L159.852 90.9846M62.653 86.0481L67.6154 90.9846M30.5707 72.0855C21.7114 72.0855 14.5296 79.2298 14.5296 88.0428C14.5296 96.8557 21.7114 104 30.5707 104C39.43 104 46.6118 96.8557 46.6118 88.0428C46.6118 79.2298 39.43 72.0855 30.5707 72.0855ZM30.5707 72.0855H64.6581M30.5707 72.0855H8.01285C6.3419 72.2518 3 71.5869 3 67.5976C3 63.6083 3 38.0102 3 25.7098C3 21.2219 6.00771 21.7205 9.51671 21.7205C50.0399 21.7205 80.5321 21.7205 113.283 21.7205C119.799 21.7205 122.306 21.7205 126.817 17.7312C131.056 13.983 134.337 10.2513 136.342 9.25393C137.102 8.87563 140.581 9.03137 144.864 9.03373M80.6992 88.0428C80.6992 96.8557 73.5174 104 64.6581 104C55.7988 104 48.617 96.8557 48.617 88.0428C48.617 79.2298 55.7988 72.0855 64.6581 72.0855M80.6992 88.0428C80.6992 79.2298 73.5174 72.0855 64.6581 72.0855M80.6992 88.0428H140.853M172.936 88.0428C172.936 96.8557 165.754 104 156.895 104C148.035 104 140.853 96.8557 140.853 88.0428M172.936 88.0428C177.782 88.0428 188.375 88.0428 191.985 88.0428C195.594 88.0428 197.499 84.3859 198 82.5575V75.0775M172.936 88.0428C172.936 82.702 170.298 77.974 166.248 75.0775M140.853 88.0428C140.853 79.2298 148.035 72.0855 156.895 72.0855M156.895 72.0855V52.139M156.895 72.0855C160.385 72.0855 163.615 73.1945 166.248 75.0775M163.411 9.03372C163.411 9.03372 150.88 9.03703 144.864 9.03373M144.864 9.03373V34.6858M87.2159 72.0855H132.833C142.057 71.2876 144.697 63.442 144.864 59.619V34.6858M156.895 41.1684V34.6858M169.427 21.2219C165.286 21.2219 161.693 21.2219 160.404 21.2219C157.596 21.2219 156.895 23.549 156.895 24.7125V34.6858M169.427 21.2219C174.303 21.2219 179.939 21.2219 183.463 21.2219C185.134 21.2219 188.776 22.3189 189.979 26.7072C190.933 30.1839 194.047 39.942 196.379 47.1524M169.427 21.2219V41.1684C169.594 43.1631 170.931 47.1524 174.941 47.1524C178.951 47.1524 190.904 47.1524 196.379 47.1524M196.379 47.1524C196.991 49.0427 197.549 50.758 198 52.139V62.1123M190.982 62.1123H198M198 62.1123V75.0775M198 75.0775H166.248M19.0411 36.1818V57.1257M34.581 36.1818V57.1257M50.6221 36.1818V57.1257M66.162 36.1818V57.1257M81.7018 36.1818V57.1257M97.2417 36.1818V57.1257M113.283 36.1818V57.1257M128.823 36.1818V57.1257M156.895 34.6858H144.864" stroke="white" stroke-width="3" stroke-linecap="round" stroke-linejoin="round"/>
</svg>
