<svg width="200" height="107" viewBox="0 0 200 107" fill="none" xmlns="http://www.w3.org/2000/svg">
<path d="M54.5285 72.0298C54.5285 82.9601 45.7076 91.8209 34.8264 91.8209C23.9453 91.8209 15.1244 82.9601 15.1244 72.0298C15.1244 61.0996 23.9453 52.2388 34.8264 52.2388M167.184 72.5373L154.101 29.403M131.316 2C133.168 2 137.782 2 141.42 2C145.057 2 146.977 5.72139 147.482 7.58209L150.791 18.4925M65.2703 67.6721L74.8766 63.7602C78.4965 62.2861 80.2414 58.1433 78.7739 54.507C77.7938 52.0785 75.6287 50.4901 73.2202 50.142M65.2703 67.6721L37.0966 79.1451C33.4767 80.6192 29.3526 78.8664 27.8851 75.2301C26.4176 71.5939 28.1625 67.4511 31.7824 65.977L59.9828 54.4931M65.2703 67.6721C65.5153 69.2578 65.6425 70.8826 65.6425 72.5373C65.6425 73.3915 65.6086 74.2377 65.5421 75.0746M59.9828 54.4931C54.318 46.3791 44.9363 41.0746 34.3212 41.0746C17.023 41.0746 3 55.161 3 72.5373C3 89.9137 17.023 104 34.3212 104C50.7692 104 64.256 91.2645 65.5421 75.0746M59.9828 54.4931L69.5624 50.5921C70.7646 50.1025 72.0225 49.9689 73.2202 50.142M154.101 29.403L153.639 27.8806M154.101 29.403C147.702 31.3507 136.691 37.6438 129.498 49.7015M65.5421 75.0746L88.3757 81.6716C94.6062 81.8408 108.684 82.0776 115.15 81.6716C121.617 81.2657 122.896 74.398 122.728 71.0149C123.51 62.4996 126.071 55.4463 129.498 49.7015M73.2202 50.142L69.5624 37.5224M91.9119 25.3433C94.7409 17.2239 102.521 14.8557 106.057 14.6866H121.212C123.702 14.5778 127.791 15.3217 130.396 18.2388M91.9119 25.3433C88.3757 35.4925 93.9326 37.5224 96.9637 37.5224M91.9119 25.3433L38.8679 15.7015C34.3212 15.194 30.2798 15.7015 29.2694 21.2836C28.1812 27.2957 32.3005 28.8955 34.8264 29.9104C36.8472 30.7224 57.2228 35.3234 67.158 37.5224H69.5624M96.9637 37.5224H110.098M96.9637 37.5224H93.9371M69.5624 37.5224H88.3757H88.8764M130.396 18.2388C131.843 19.8601 132.832 22.1527 132.832 25.3433C132.832 34.2746 126.433 37.1841 123.233 37.5224H110.098M130.396 18.2388L150.791 18.4925M150.791 18.4925C151.204 16.5473 154.655 13.0627 165.163 14.6866C165.837 15.194 167.184 17.1224 167.184 20.7761C167.184 25.3433 166.174 28.3881 165.163 28.8955C164.153 29.403 156.259 29.403 153.639 27.8806M150.791 18.4925L153.639 27.8806M110.098 37.5224C110.098 41.4129 111.109 48.5623 117.676 50.5921C124.254 52.6253 128.757 49.8706 129.498 49.7015M93.9371 37.5224C96.308 38.5176 97.9741 40.8693 97.9741 43.6119C97.9741 47.2554 95.0338 50.209 91.4067 50.209C87.7797 50.209 84.8394 47.2554 84.8394 43.6119C84.8394 40.8693 86.5055 38.5176 88.8764 37.5224M93.9371 37.5224H88.8764M186.886 72.0298C186.886 82.9601 178.065 91.8209 167.184 91.8209C156.303 91.8209 147.482 82.9601 147.482 72.0298C147.482 61.0996 156.303 52.2388 167.184 52.2388C178.065 52.2388 186.886 61.0996 186.886 72.0298ZM198 72.5373C198 89.9137 183.977 104 166.679 104C149.381 104 135.358 89.9137 135.358 72.5373C135.358 55.161 149.381 41.0746 166.679 41.0746C183.977 41.0746 198 55.161 198 72.5373ZM105.047 65.9403C105.047 69.5837 102.106 72.5373 98.4793 72.5373C94.8522 72.5373 91.9119 69.5837 91.9119 65.9403C91.9119 62.2969 94.8522 59.3433 98.4793 59.3433C102.106 59.3433 105.047 62.2969 105.047 65.9403Z" stroke="white" stroke-width="3" stroke-linecap="round" stroke-linejoin="round"/>
</svg>
