<svg width="200" height="107" viewBox="0 0 200 107" fill="none" xmlns="http://www.w3.org/2000/svg">
<path d="M35.1372 90.891L40.0986 85.919M157.422 85.9189L162.384 90.891M51.8007 94.4572C52.6868 92.4621 53.1793 90.2527 53.1793 87.928C53.1793 79.0516 45.9991 71.8559 37.1419 71.8559C28.2847 71.8559 21.1045 79.0516 21.1045 87.928C21.1045 88.9402 21.1979 89.9306 21.3765 90.891M51.8007 94.4572C49.3033 100.08 43.6794 104 37.1419 104C29.2948 104 22.764 98.3519 21.3765 90.891M51.8007 94.4572H144.768M144.768 94.4572C147.266 100.08 152.89 104 159.427 104C165.965 104 171.589 100.08 174.086 94.4572M144.768 94.4572C143.882 92.4621 143.39 90.2527 143.39 87.928C143.39 85.4063 143.969 83.0203 145.002 80.8964M61.6992 70.8514C64.7062 73.8649 71.0209 80.0928 72.2237 80.8964C73.4266 81.7 121.244 81.2313 145.002 80.8964M145.002 80.8964C147.605 75.544 153.086 71.8559 159.427 71.8559C168.284 71.8559 175.465 79.0516 175.465 87.928C175.465 90.2527 174.972 92.4621 174.086 94.4572M174.086 94.4572H193.507C194.509 94.1224 196.714 92.6491 197.516 89.4347C198.191 86.728 198.184 81.9701 197.342 78.3852M84.2518 62.3131L127.854 68.3401C138.58 64.2729 144.443 61.8861 149.905 60.5965M187.493 78.3852H197.342M197.342 78.3852C196.933 76.6483 196.329 75.1868 195.511 74.3672C193.005 71.8559 175.465 59.2996 162.935 59.2996C157.653 59.2996 153.886 59.6567 149.905 60.5965M21.3765 90.891C16.4412 89.5685 6.16967 86.3207 4.56593 83.9099C2.96219 81.4991 2.89537 66.1637 3.06242 58.7974C18.7374 56.4316 43.5287 52.7286 62.7015 49.9559M149.905 60.5965C144.726 58.3226 131.662 52.8708 120.837 49.2546C107.306 44.7343 94.2752 46.2411 90.2658 46.2411C88.8713 46.2411 77.4483 47.8233 62.7015 49.9559M73.2261 61.3086C71.3884 61.476 67.1118 61.2082 64.7062 58.7974C62.3006 56.3866 62.3674 51.8985 62.7015 49.9559" stroke="white" stroke-width="3" stroke-linecap="round" stroke-linejoin="round"/>
</svg>
