<svg width="200" height="107" viewBox="0 0 200 107" fill="none" xmlns="http://www.w3.org/2000/svg">
<path d="M41.2115 89.8828L46.5393 84.5283M158.537 84.5283L163.865 89.8827M27.3941 93.1824C29.9489 99.5255 36.1367 104 43.3643 104C50.5919 104 56.7797 99.5255 59.3345 93.1824M27.3941 93.1824C26.5868 91.178 26.1422 88.9871 26.1422 86.6918C26.1422 77.1328 33.8528 69.3836 43.3643 69.3836C52.8758 69.3836 60.5864 77.1328 60.5864 86.6918C60.5864 88.9871 60.1418 91.178 59.3345 93.1824M27.3941 93.1824H9.45829C7.30552 93.0021 3 91.4516 3 86.6918C3 85.6882 3 83.1761 3 79.6604M16.993 18C16.6342 18 14.6249 18 9.45829 18C4.29166 18 3 22.327 3 24.4906C3 39.2875 3 66.5024 3 79.6604M16.993 18V39.0943C16.993 41.2579 18.177 45.5849 22.9131 45.5849C27.6491 45.5849 27.398 45.5849 27.7568 45.5849M16.993 18H49.2844M3 79.6604H14.302M189.214 93.1824C191.367 93.1824 195.995 92.317 197.287 88.8553C197.807 87.4615 197.995 83.9163 198 79.6604M159.613 45.044C165.713 46.6667 179.849 50.3447 187.599 52.0755C195.349 53.8063 197.287 58.566 197.287 60.7296C197.321 61.2364 197.356 61.7792 197.392 62.3522M159.613 45.044L117.635 45.5849C114.944 45.5849 109.562 44.2868 109.562 39.0943C109.562 33.9019 109.562 22.8679 109.562 18M159.613 45.044C153.693 38.7338 140.992 25.356 137.548 22.327C134.103 19.2981 128.219 18.1803 125.707 18H109.562M109.562 18H96.107M186.523 62.3522H197.392M197.392 62.3522C197.689 67.1358 198.006 74.0219 198 79.6604M190.29 79.6604H198M96.107 18V39.0943C96.107 41.2579 94.6 45.5849 88.5723 45.5849C84.0228 45.5849 64.8793 45.5849 49.2844 45.5849M96.107 18H49.2844M35.8296 45.5849C39.5251 45.5849 44.2174 45.5849 49.2844 45.5849M49.2844 45.5849V18M59.3345 93.1824H144.72M144.72 93.1824C147.274 99.5255 153.462 104 160.69 104C170.201 104 177.912 96.2509 177.912 86.6918C177.912 77.1328 170.201 69.3836 160.69 69.3836C151.178 69.3836 143.468 77.1328 143.468 86.6918C143.468 88.9871 143.912 91.178 144.72 93.1824ZM131.628 79.6604H69.1974" stroke="white" stroke-width="3" stroke-linecap="round" stroke-linejoin="round"/>
</svg>
