<svg width="638" height="135" fill="none" xmlns="http://www.w3.org/2000/svg"><path d="M132.612 133.546c-5.98 0-10.637-1.55-13.971-4.651-3.333-3.198-5-7.559-5-13.082V49.24c0-5.427 1.618-9.69 4.853-12.792 3.334-3.1 7.942-4.651 13.824-4.651h20.589c10.197 0 19.069 2.132 26.619 6.396 7.647 4.166 13.53 10.078 17.647 17.733 4.118 7.655 6.177 16.62 6.177 26.891 0 10.272-2.059 19.235-6.177 26.891-4.117 7.558-10 13.421-17.647 17.588-7.55 4.167-16.422 6.25-26.619 6.25h-20.295zm18.825-9.012c12.941 0 22.941-3.634 30.001-10.901 7.157-7.268 10.735-17.54 10.735-30.816s-3.578-23.596-10.735-30.961c-7.158-7.365-17.158-11.047-30.001-11.047h-18.972c-2.353 0-4.264.775-5.735 2.326-1.373 1.55-2.059 3.585-2.059 6.105v66.864c0 2.519.686 4.554 2.059 6.105 1.471 1.55 3.382 2.325 5.735 2.325h18.972zm-59.467 9.648c-1.666 0-2.99-.484-3.97-1.453-.98-1.066-1.47-2.52-1.47-4.361V35.34c0-1.841.49-3.247 1.47-4.216.98-1.066 2.304-1.598 3.97-1.598 1.765 0 3.138.532 4.118 1.599.98 1.065 1.47 2.47 1.47 4.215v93.028c0 1.744-.49 3.149-1.47 4.215-.98 1.066-2.353 1.599-4.118 1.599zm-54.91 0c-15.393 0-27.305-5.523-35.736-16.57C.44 116.546 0 115.48 0 114.414c0-1.454.686-2.713 2.059-3.779.882-.776 1.96-1.163 3.235-1.163 1.863 0 3.383.775 4.56 2.325 3.333 4.555 7.107 7.85 11.323 9.885 4.314 2.035 9.608 3.052 15.883 3.052 7.06 0 12.5-2.035 16.324-6.105 3.922-4.167 5.883-9.981 5.883-17.443V35.34c0-1.841.44-3.247 1.323-4.216.98-1.066 2.353-1.598 4.118-1.598 1.765 0 3.137.532 4.118 1.599 1.078.968 1.617 2.374 1.617 4.215v65.265c0 6.589-1.421 12.452-4.264 17.588-2.844 5.039-6.814 8.964-11.913 11.774-5 2.81-10.735 4.215-17.206 4.215zm514.172-84.216c0-5.523 1.618-9.932 4.854-13.227 3.333-3.295 8.137-4.942 14.412-4.942h27.501c26.667 0 40.001 10.95 40.001 32.85 0 10.563-3.235 18.558-9.706 23.984-6.471 5.427-16.226 8.14-29.266 8.14l28.531 29.217c.882.872 1.323 1.986 1.323 3.343 0 1.744-.735 3.149-2.206 4.215-1.176.873-2.402 1.309-3.676 1.309-1.961 0-3.824-.969-5.589-2.908l-33.825-35.176h-19.853v31.979c0 1.938-.588 3.488-1.765 4.651-1.078 1.066-2.598 1.599-4.559 1.599-1.961 0-3.48-.533-4.559-1.599-1.078-1.163-1.618-2.713-1.618-4.651V49.966zm47.502 36.776c9.02 0 15.687-1.648 20.001-4.943 4.412-3.391 6.617-9.109 6.617-17.152 0-8.14-2.205-13.954-6.617-17.442-4.412-3.586-11.079-5.379-20.001-5.379h-27.501c-2.255 0-4.069.727-5.441 2.18-1.373 1.454-2.059 3.44-2.059 5.96v36.776h35.001zm-143.148 47.44c-1.667 0-2.991-.484-3.971-1.453-.981-1.066-1.471-2.52-1.471-4.361V71.534c0-13.18 3.726-23.451 11.177-30.816 7.549-7.462 17.991-11.192 31.325-11.192 13.235 0 23.628 3.73 31.177 11.192 7.549 7.462 11.324 17.733 11.324 30.816v56.834c0 1.841-.49 3.295-1.471 4.361-.98.969-2.353 1.453-4.117 1.453-1.667 0-3.04-.484-4.118-1.453-.981-1.066-1.471-2.52-1.471-4.361V95.663h-62.796v32.705c0 1.841-.49 3.295-1.471 4.361-.98.969-2.353 1.453-4.117 1.453zm68.384-47.531V71.098c0-10.37-2.696-18.315-8.088-23.839-5.393-5.62-13.138-8.43-23.236-8.43-10.197 0-17.991 2.761-23.383 8.285-5.393 5.523-8.089 13.518-8.089 23.984V86.65h62.796zm-132.706 47.531c-10.197 0-19.168-2.132-26.913-6.395-7.647-4.361-13.579-10.466-17.795-18.315-4.216-7.946-6.323-17.104-6.323-27.473 0-10.465 2.107-19.671 6.323-27.617 4.216-7.947 10.148-14.052 17.795-18.315 7.745-4.361 16.667-6.541 26.766-6.541 8.431 0 16.177 1.405 23.236 4.215 7.157 2.81 12.745 6.735 16.765 11.774.784.872 1.176 1.938 1.176 3.198 0 1.55-.686 2.81-2.059 3.779a5.228 5.228 0 01-2.941.872c-1.863 0-3.431-.727-4.706-2.18-3.137-3.973-7.402-7.026-12.794-9.158-5.393-2.132-11.618-3.198-18.677-3.198-8.138 0-15.197 1.745-21.178 5.233-5.98 3.489-10.588 8.48-13.824 14.972-3.137 6.493-4.706 14.148-4.706 22.966 0 8.722 1.569 16.329 4.706 22.821 3.236 6.396 7.844 11.338 13.824 14.827 6.079 3.488 13.187 5.233 21.325 5.233 7.549 0 14.118-1.066 19.706-3.198 5.687-2.229 10.148-5.282 13.383-9.158 1.471-1.55 3.039-2.325 4.706-2.325 1.176 0 2.157.339 2.941 1.017 1.373 1.163 2.059 2.423 2.059 3.779 0 1.163-.441 2.278-1.323 3.343-4.02 4.846-9.756 8.722-17.207 11.629-7.353 2.81-15.442 4.215-24.265 4.215z" fill="#000"/><path fill-rule="evenodd" clip-rule="evenodd" d="M264.262.251c-.627.094-2.014.281-3.081.418-1.774.226-1.94.358-1.94 1.542 0 1.39 1.9 3.13 3.494 3.197.646.027.683.095.158.293-1.411.53-1.55 2.378-.18 2.378.35 0 .636.17.636.38s-2.309.565-5.132.79c-4.33.345-5.155.532-5.282 1.198-.122.64.181.791 1.594.797 1.711.006 1.723.017.604.588-.627.32-1.209.418-1.293.219-.215-.513-2.359-.454-2.359.065 0 .26-.538.242-1.369-.044-1.672-.577-1.693-1.026-.187-3.99 1.593-3.136 1.196-3.285-.499-.188-1.005 1.837-1.79 2.659-3.071 3.217-.946.413-1.72.938-1.72 1.167 0 .229-.523.077-1.162-.336-.639-.414-1.551-.631-2.026-.482-.475.15-1.252.03-1.728-.263-1.4-.864-3.416.345-3.818 2.29-.385 1.869.032 7.604.579 7.938.501.306 4.451-1.954 5.736-3.284.961-.993 1.336-1.043 8.445-1.134l7.439-.095-7.075-.243c-6.737-.232-6.923-.263-3.88-.639 1.758-.217 5.198-.4 7.646-.407 2.513-.007 4.45-.2 4.45-.442 0-.237.359-.293.799-.123.44.169 1.609.406 2.599.527.991.12 1.949.31 2.129.42.181.11.398.001.482-.242.227-.655 2.207-.013 2.207.715 0 .714.76.85.99.176.187-.552 4.488-.997 4.488-.463 0 .417 2.236.31 4.172-.199.723-.19 1.329-.119 1.515.178.17.273.544.353.83.178.796-.486 2.568-.583 2.836-.154.132.21.967.184 1.855-.059.89-.243 2.583-.313 3.763-.156 1.18.158 2.967.383 3.972.502 4.7.555 13.416 1.885 14.198 2.166.664.239 1.887-2.349 2.662-5.635.605-2.561.593-2.65-.408-3.3-.913-.591-1.11-.588-1.732.027-.386.38-1.288.74-2.005.799-2.149.174-3.356.715-3.394 1.519-.022.448-.222.257-.489-.464-.398-1.077-.625-1.19-1.903-.946-.799.153-1.624.566-1.835.917-.32.534-.476.511-.957-.139-.352-.476-.687-.596-.866-.311-.341.545-4.373.214-5.191-.426-.303-.237-.813-.27-1.134-.075-.822.502-4.021.611-4.021.137 0-.216-.539-.19-1.197.056-.822.31-1.383.297-1.791-.037-.702-.576-3.859-.106-3.859.573 0 .29-.209.302-.571.035-.313-.231-1.238-.409-2.054-.393-1.23.023-1.483-.14-1.483-.961 0-.544.18-1.1.402-1.234.561-.343.925-2.487.47-2.766-.207-.125-.267-.51-.133-.855.426-1.099-1.178-2.954-2.554-2.954-1.092 0-1.226-.146-1.036-1.128.216-1.113.179-1.127-2.687-1.067-1.599.034-3.42.138-4.048.232zM240.755 16.2c-.165.263.299.45 1.114.45.768 0 1.396-.202 1.396-.45s-.501-.451-1.114-.451c-.613 0-1.241.202-1.396.45zm-2.876.541c-.621.614-.731 2-.185 2.334.199.122 1.278-.21 2.396-.737 1.953-.92 1.984-.965.779-1.127-.69-.093-1.255-.359-1.255-.59 0-.598-1.085-.522-1.735.12zm32.203.66c.314.125.828.125 1.141 0 .314-.125.057-.228-.57-.228-.628 0-.885.103-.571.228zm5.796.397c3.548.587 4.614.527 4.139-.234-.13-.207-1.931-.375-4.002-.372l-3.765.005 3.628.6zm-1.77 6.042c.115.183-.58.261-2.336.261-2.394 0-6.583.481-8.363.96-.464.125-1.172.228-1.575.229-.402 0-1.757.31-3.009.69-1.253.378-2.742.755-3.308.836-2.294.33-7.626 2.392-7.346 2.84.08.129.018.153-.141.056-.489-.298-7.127 3.434-8.698 4.892-.331.307-.687.559-.791.56-.105.002-.267.11-.362.241-.094.13-.388.362-.653.513-.265.152-.452.4-.415.553.036.153-.053.206-.198.117-.146-.089-.749.338-1.345.953-.818.844-1.017 1.189-.82 1.423.197.235.055.488-.588 1.045-.466.405-.848.9-.848 1.1 0 .2-.143.364-.319.364-.387 0-1.366.992-1.366 1.384 0 .155-.155.282-.345.282-.19 0-.41.203-.489.45-.08.248-.331.499-.558.558-1.103.286-1.297 2.454-.233 2.607.491.07.425.19-.718 1.285-.693.664-1.424 1.597-1.625 2.073a4.39 4.39 0 00-.353 1.557c-.009.44.083.782.279.901.516.316 1.832.09 3.075-.527.995-.494 1.371-.875 2.104-2.135.49-.843 1.041-1.533 1.222-1.533.364 0 2.331-1.655 5.66-4.76 1.192-1.112 2.101-1.835 2.018-1.606-.212.586.099.52 1.183-.254.834-.596 3.543-1.948 3.903-1.948.076 0-.073.17-.33.377-.461.371-.461.375.014.241.315-.088.196.09-.344.516l-1.324 1.047c-.514.409-.399.848.153.587.171-.081.838-.523 1.482-.982 1.484-1.058 1.975-1.106 1.413-.138-.222.382-.474.652-.561.599-.086-.053-.631.221-1.21.61-.579.387-1.162.71-1.294.716-.258.012-1.806 1.335-1.806 1.543 0 .068.19.022.422-.102.232-.124.946-.411 1.587-.637.681-.241 1.605-.847 2.224-1.458.582-.576 1.176-.974 1.32-.886.145.088.476-.066.736-.343.39-.413 2.703-1.742 2.919-1.677.165.05 1.066-.357 1.386-.625.567-.474 2.889-1.312 2.889-1.042 0 .133-.243.339-.541.457-.504.2-.208.379.421.254.132-.026-.03.246-.361.605-.524.569-.54.63-.12.471 1.271-.48 3.106-1.084 3.288-1.084.111 0 .203.216.203.48 0 .405.104.455.662.32a4.82 4.82 0 001.208-.51c.37-.238.872-.306 1.565-.212.58.079.819.059.555-.047-.439-.176-.44-.195-.029-.351.765-.29 3.857-.87 5.283-.989 1.225-.103 1.34-.076 1.021.24-.197.195-.445.355-.55.355-.105 0-.931.23-1.834.512-1.144.357-1.567.589-1.392.762.176.173.34.162.541-.037.159-.157.782-.273 1.385-.257l1.095.029-1.023.243c-1.034.246-1.342.717-.643.983.21.08 1.862.145 3.672.146 4.999.002 10.943.894 14.081 2.115.373.145.915.255 1.204.246.779-.027-2.518-1.13-5.012-1.677-2.332-.512-3.442-1.068-1.565-.784 3.347.506 7.089 1.876 11.798 4.319 6.033 3.13 10.931 7.694 14.33 13.353 1.901 3.166 2.474 4.343 3.515 7.225 1.823 5.05 2.403 8.651 2.366 14.705-.041 6.677-.136 7.175-2.737 14.382-.469 1.3-.808 2.409-.752 2.463.132.131 1.491-2.752 2.219-4.708.316-.85.668-1.76.78-2.023.113-.261.399-.934.636-1.495.236-.56.518-.932.625-.826.421.416-1.655 7.103-2.863 9.223-.224.392-.681 1.22-1.016 1.838-1.582 2.916-3.068 5.075-4.523 6.568-.43.442-.782.9-.782 1.018 0 .117-.108.214-.241.214-.132 0-.241.132-.241.293 0 .162.512-.294 1.137-1.011a58.977 58.977 0 012.046-2.226c.501-.506.91-.997.91-1.091 0-.094.559-.738 1.242-1.431.683-.693 1.174-1.085 1.091-.872-.083.214-.045.388.083.388s.233.161.233.357c0 .197-.115.357-.255.357s-.195.096-.122.213c.156.249-.553.602-1.044.52-.253-.042-.238.042.063.339.22.217.325.52.235.673-.734 1.241-2.085 3.014-2.721 3.57-.424.371-.703.741-.62.824.083.082.42-.168.748-.556 1.523-1.799 2.753-3.426 2.753-3.641 0-.13.085-.272.189-.316.416-.174 1.275-1.64 1.113-1.899-.104-.166-.068-.212.09-.115.145.088.37-.028.501-.259s.306-.352.39-.269c.333.329-3.195 5.365-5.393 7.699-2.227 2.363-2.479 2.816-.863 1.546.5-.392.825-.714.723-.714-.102 0 .127-.238.509-.531.382-.292.731-.614.775-.715.045-.102.532-.639 1.083-1.195 1.059-1.066 2.809-3.66 2.809-4.162 0-.164.163-.298.361-.298.199 0 .361-.108.361-.24s.319-.675.709-1.207c.39-.532.881-1.48 1.092-2.109.212-.628.749-1.846 1.195-2.707.52-1.003.712-1.598.535-1.656-.176-.058.037-.69.585-1.738.506-.97.843-1.94.818-2.36-.023-.393.103-.822.281-.953.177-.13.342-.559.365-.951.024-.393.103-.821.174-.952.072-.131.164-.448.205-.705.04-.257.287-.825.549-1.264.317-.531.408-.931.272-1.199-.112-.221-.123-.67-.024-.997.098-.327.19-.488.204-.357.014.131.242-.083.508-.476.374-.555.448-.938.332-1.725-.093-.628-.056-1.012.097-1.012.309 0 .201 4.17-.173 6.664-.683 4.555-1.908 9.043-2.47 9.043-.137 0-.193.145-.124.322.128.33-2.244 5.209-2.86 5.884-.189.207-.344.479-.344.606 0 .126-.485 1.028-1.079 2.004s-1.081 1.925-1.083 2.111c-.005.359-.233.632-1.911 2.283-.584.576-1.156.991-1.269.921-.114-.069-.177.016-.141.189.036.174-.077.286-.253.25-.175-.036-.253.04-.172.169.157.252-1.499 1.993-3.211 3.375-.805.65-.965.884-.678.992.255.097.968-.458 2.233-1.739 1.022-1.035 1.947-1.828 2.054-1.763.172.105-1.838 2.958-2.083 2.958-.053 0-.028-.188.055-.416.083-.229.087-.363.008-.298-.341.282-2.523 2.154-3.184 2.73-.548.478-.591.567-.18.37.372-.179.541-.183.541-.011 0 .138-.379.429-.842.648-.464.218-.843.484-.843.591 0 .106-.157.194-.349.194-.192 0-.461.187-.598.416-.217.365-.281.372-.512.06-.234-.318-.252-.318-.163 0 .059.207-.23.58-.691.892-.804.544-1.438.713-1.191.319.074-.12-.309-.005-.852.254-.543.259-.921.537-.84.618.081.08.276.019.433-.136.156-.155.392-.282.523-.282.4 0-.668.699-1.08.707-.212.004-.613.203-.892.442s-.973.628-1.542.864c-.569.236-1.847.804-2.84 1.263-2.571 1.186-2.919 1.312-5.645 2.041-.655.175-1.236.453-1.292.618-.078.23.013.239.393.038.63-.334 1.006-.333 1.006.002 0 .145-.159.203-.353.13-.194-.074-.422-.025-.506.109-.084.134-.314.183-.511.108-.198-.075-.701.023-1.119.217-.419.194-1.032.401-1.363.459a8.41 8.41 0 00-.722.151c-.067.025-.322.024-.568-.001-.291-.031-.386.052-.271.236.129.207-.025.239-.576.119-.48-.104-.752-.07-.752.094 0 .141-.163.257-.361.257-.199 0-.362-.107-.362-.238a.24.24 0 00-.24-.238c-.133 0-.241.157-.241.349 0 .213-.141.296-.361.213-.201-.077-.361-.007-.361.157 0 .393 1.989.165 6.431-.738 3.896-.792 3.759-.774 3.561-.457-.082.131.011.238.206.238.603 0 1.118-.274 1.118-.595 0-.331.518-.595 1.167-.595.223 0 .81-.215 1.304-.477.495-.262.9-.369.9-.238a.24.24 0 01-.241.239.238.238 0 00-.241.234c0 .129.556.018 1.235-.246 1.993-.777 1.616-.354-.44.493-4.889 2.014-8.706 2.964-14.398 3.584-1.702.185-6.649.255-8.307.117l-2.769-.234c-2.313-.196-6.463-1.049-9.029-1.856-5.178-1.629-9.723-3.926-14.906-7.535-1.246-.868-2.365-1.548-2.486-1.512-.121.036-.156-.037-.078-.162.079-.125-.097-.394-.391-.597-.415-.287-.579-.304-.736-.076-.147.213-.184.193-.133-.071.091-.469-3.194-3.528-3.628-3.379-.18.062-.591-.168-.912-.511-.584-.622-.469-.891.139-.326.176.163.132.003-.098-.355-.23-.359-.508-.598-.617-.532-.109.067-.276-.004-.372-.158-.108-.174-.07-.215.104-.108.461.281.299-.175-.301-.849-.311-.348-.764-.616-1.007-.595-.272.024-.474-.145-.524-.438-.068-.392-.039-.413.167-.119.138.197.252.26.254.142.007-.396-1.228-1.818-1.457-1.679-.124.076-.336-.148-.47-.497-.203-.527-.305-.585-.602-.342l-.065.052c-.234.181-.292.148-.292-.125 0-.08.02-.161.054-.232a.426.426 0 01.23-.228c.157-.052.202-.224.1-.387-.107-.17-.389-.228-.675-.139a1.847 1.847 0 01-.121.035c-.244.061-.302.01-.194-.163a.216.216 0 00.033-.093c.017-.149-.1-.342-.313-.504a.948.948 0 00-.051-.037c-.279-.193-.507-.473-.507-.621 0-.092.059-.094.148-.022.055.045.122.117.193.213.188.254.42.385.516.29.096-.095.028-.347-.151-.561-.421-.5-.636-.864-1.729-2.914-.621-1.166-.959-1.602-1.222-1.565a.209.209 0 00-.049.013c-.233.088-.316.305-.225.587.079.248.028.448-.114.448-.141 0-.257-.167-.257-.371 0-.205-.116-.3-.26-.212-.145.089-.194.421-.111.748.097.379.061.534-.1.436-.138-.084-.251-.307-.251-.496s-.112-.343-.249-.343c-.319 0 .121.853.578 1.12.177.104.384.35.459.546.088.227.15.141.173-.238.033-.549.052-.558.243-.119.114.262.215.329.224.15.013-.264.087-.27.378-.031.411.337.48 1.089.12 1.309-.132.081-.24.254-.24.385s.108.172.24.091c.225-.137.347.335.26 1.006-.02.16.144.565.366.9.389.587.419.594.88.184.459-.409.473-.407.374.052-.056.261-.232.449-.389.416-.428-.089-.347.293.195.926.417.485.46.497.316.086-.152-.438-.129-.447.282-.119.415.33.438.317.309-.179-.208-.796-.003-.649.475.34.233.481.574.924.758.983.184.059.268.002.188-.127-.088-.14.095-.189.451-.122.33.062.669.226.755.363.094.151.009.195-.215.109-.204-.077-.491-.022-.638.124-.196.193-.417.124-.828-.257-.59-.548-1.131-.683-1.131-.283 0 .131.1.238.222.238.426 0 1.731 1.492 1.6 1.829-.072.186-.029.276.095.2.266-.163.843.796.615 1.022-.408.403-4.957-5.618-6.479-8.577-.25-.487-.548-.828-.662-.759-.113.069-.206-.012-.206-.182 0-.168-.317-.951-.703-1.739a87.91 87.91 0 01-1.427-3.097c-.524-1.206-.862-1.687-1.224-1.742-.274-.042-.499-.236-.499-.43 0-.196-.101-.293-.224-.218-.133.08-.07.6.152 1.264.435 1.299.793 1.799.798 1.114.004-.496.192-.128 2.414 4.718.336.733.469 1.367.376 1.785-.132.587-.104.572.3-.16.246-.445.504-.712.574-.595.217.363-.092 1.766-.355 1.605-.137-.083-.191-.004-.123.181.067.182.23.308.363.281.134-.028.435.16.67.416.235.257.311.467.169.467s-.307-.134-.366-.298c-.059-.163-.195-.216-.304-.116-.108.1.04.497.329.883.288.386.524.813.524.949s.163.248.361.248c.199 0 .362.154.362.342 0 .189.125.42.278.513.172.106.212.066.106-.105-.095-.151-.057-.274.083-.274.25 0 .348.312.276.88-.02.156.192.406.471.553.286.151.452.414.38.6-.071.182-.025.394.102.472.126.077.237 0 .245-.171.008-.172.113-.071.233.224.12.294.32.535.445.535s.199.188.165.417c-.034.229.164.756.44 1.172.56.845 2.119 1.723 2.269 1.278.067-.197.183-.193.435.013.559.459.659.062.243-.966-.214-.529-.331-.962-.261-.962.259 0 1.016.846 1.172 1.309.088.262.576.797 1.085 1.19.508.393.878.793.82.89-.057.096.064.111.27.034.234-.089.373-.01.373.211 0 .194.163.487.361.65.297.243.362.225.362-.104 0-.223.113-.331.257-.243.141.086.204.293.14.459-.167.43 1.888 2.37 2.266 2.139.18-.11.239-.086.148.06-.174.279.726 1.173.954.948.083-.082.362-.037.621.1s.406.313.327.39c-.183.181.823 1.251 1.167 1.241.143-.005.063-.155-.177-.335-.313-.235-.355-.375-.148-.501.163-.1.382-.008.507.215.122.215.331.39.465.39.133 0 .176-.107.094-.238-.082-.131-.086-.238-.008-.238.077 0 .243.268.369.595.126.327.362.595.524.595.229 0 .23-.063.006-.285-.415-.41-.358-.781.067-.433.195.16.322.509.281.775-.06.385.286.672 1.714 1.42.984.515 1.85.875 1.926.801.075-.075.01-.136-.144-.136-.155 0-.281-.114-.281-.252 0-.139.108-.186.241-.105.366.224.287-.039-.138-.459-.668-.66.303-.463 1.038.211.53.485.557.564.163.462-.369-.096-.485.007-.523.462-.028.332.104.644.304.719.195.074.328.018.297-.125-.032-.142.094-.313.28-.38.245-.088.3.019.201.392-.11.417.031.589.747.912 1.385.626 1.414.616.52-.187-.769-.691-.79-.743-.241-.591.331.091.732.175.89.188.158.012.266.124.241.249-.026.125.332.366.796.537.466.172.648.319.407.329-.24.01-.381.106-.314.213.068.108.57.161 1.116.118.61-.047 1.193.061 1.511.281l.517.358h-.535c-.295 0-.536.109-.536.242 0 .141.279.183.663.1.405-.088.548-.063.367.065-.205.144-.059.292.482.488.699.252.73.246.312-.067-.255-.191-.397-.414-.315-.495.186-.184 1.621.427 1.621.691 0 .106.11.127.243.045.134-.081.412.02.619.224.24.238.588.321.959.228.408-.101.627-.03.73.236.106.274.321.338.761.229.41-.102.559-.067.452.105-.103.164.256.318.987.424.632.092 1.398.259 1.704.372.358.132.503.121.407-.032-.188-.301.131-.301.602 0 .263.168.275.232.046.235-.173.002-.255.099-.182.216.077.122-.247.129-.768.016a173.66 173.66 0 00-2.948-.586c-1.126-.216-2.383-.494-2.794-.619a16.104 16.104 0 00-1.204-.319 6.11 6.11 0 01-.837-.241c-.245-.096-.382-.024-.382.201 0 .401.897.692 1.466.477.212-.081.38-.022.38.133 0 .152-.108.211-.241.13-.132-.081-.24-.038-.24.095 0 .132.379.311.842.397.518.096.843.294.843.513 0 .261.161.316.602.206.379-.093.602-.048.602.123 0 .189.113.178.372-.034.3-.246.312-.349.061-.528-.212-.15-.157-.166.169-.049.265.094.692.193.949.219.257.026.51.173.562.326.052.154.362.279.69.279.328 0 .531.104.452.23-.079.127-.492.182-.917.123-.687-.096-.706-.085-.171.103.331.116.981.214 1.444.218.68.005.75-.033.362-.198-.412-.175-.421-.207-.061-.221.232-.009.422-.124.422-.255a.24.24 0 01.241-.238c.132 0 .217.081.189.179-.142.497.694 1.249 1.389 1.249.408 0 1.33.1 2.049.221 2.198.372 6.867.496 7.175.191.203-.2.273-.2.273.003 0 .381 2.363.312 3.178-.092.784-.39 1.789-.42 2.013-.062.185.296.289.28 4.56-.695 4.297-.982 7.006-1.868 7.621-2.492.403-.41.484-.433.368-.108-.082.229-.044.416.084.416a.236.236 0 00.234-.238c0-.131.211-.238.47-.238.705 0 1.703-.512 1.531-.785-.082-.133-.03-.167.117-.078.146.09.763-.068 1.37-.35.608-.283 1.17-.449 1.25-.37.079.078.563-.185 1.074-.585.517-.405.929-.595.929-.428 0 .194.192.138.542-.158.798-.675 1.615-1.087 1.859-.939.118.073.293.006.389-.147.115-.185.06-.22-.164-.105-.186.095-.128.004.129-.202.546-.437.961-.495.714-.099-.108.171-.066.21.11.102.155-.095.219-.272.143-.394-.125-.2.205-.322.672-.249.1.015.181-.133.181-.329 0-.372.02-.382.898-.474.783-.081 2.687-1.713 2.866-2.457.22-.908.542-1.234 1.221-1.234.432 0 1.266-.669 3.073-2.463 1.364-1.355 2.554-2.691 2.643-2.969.089-.277.481-.729.87-1.003.39-.274.708-.648.708-.831 0-.183.217-.447.482-.587.281-.149.481-.498.481-.841 0-.363.138-.587.361-.587a.36.36 0 00.362-.357c0-.196.11-.357.244-.357.135 0 .433-.401.662-.892.23-.491.592-1.083.804-1.317.213-.233.592-.848.843-1.366.251-.517.512-.942.58-.944.192-.004 2.522-4.666 3.332-6.666 1.261-3.113 3.191-9.069 3.339-10.303.118-.986.066-1.245-.302-1.512-1.169-.844-1.623-.303-2.426 2.891-.682 2.716-1.934 6.775-2.256 7.315-.135.227-.246.742-.246 1.144 0 .421-.101.67-.238.586-.131-.08-.182-.002-.114.172.067.175-.372 1.225-.977 2.333-.604 1.108-1.159 2.252-1.233 2.541-.073.289-.291.654-.483.812-.192.158-.551.725-.798 1.259-.246.535-.783 1.39-1.192 1.898-.409.509-.743 1.117-.743 1.351 0 .234-.136.568-.301.742-1.783 1.868-2.829 3.159-2.829 3.493 0 .222-.217.558-.482.747-.265.189-.481.48-.481.647 0 .168-.102.305-.226.305-.124 0-.582.321-1.017.714-.435.392-.956.715-1.159.717-.325.004-.326.03-.006.235.311.198.305.231-.046.234-.224.002-.484.127-.579.278-.106.171-.066.211.106.105.153-.093.278-.075.278.04 0 .419-2.481 2.198-3.066 2.198-.599 0-3.094 1.359-4.099 2.233-.55.477-.976.743-4.031 2.509-2.754 1.593-3.929 2.166-5.648 2.757-.59.202-1.132.446-1.204.54-.213.28-1.731 1.016-1.572.762.197-.315-.202-.298-.526.022-.142.141-.516.285-.831.322-1.005.116-3.341.929-3.341 1.163 0 .125-.377.165-.848.089-.577-.092-.796-.053-.686.123.107.172-.059.217-.496.134-.361-.068-1.054-.026-1.54.093-1.015.249-1.379.322-3.084.619-1.071.187-1.226.165-1.162-.161.041-.207.083-.511.093-.674.011-.164.256-.298.546-.298.516 0 .517.008.061.353-.434.327-.407.342.375.205.463-.081 1.005-.245 1.204-.364.258-.154.206-.175-.181-.07-.307.083-.542.04-.542-.099 0-.156.544-.195 1.505-.108 1.679.153 3.429-.208 3.64-.752.075-.195.26-.355.411-.355.151 0 .214.157.14.347-.106.272-.021.303.395.143.292-.112 1.211-.393 2.044-.625.832-.232 1.397-.492 1.254-.579-.142-.087.044-.161.413-.164.37-.002 1.105-.197 1.635-.431.53-.234 1.136-.461 1.348-.503 1.054-.212 2.597-1.057 2.739-1.501.141-.439.825-.655 1.643-.518.199.033 3.568-1.869 3.78-2.134.067-.083.391-.292.722-.464.359-.187.48-.354.3-.413-.166-.055-.234-.209-.15-.343.096-.154.223-.129.347.07.253.405 2.852-1.539 3.309-2.475.173-.353.498-.646.722-.65.584-.011 1.192-.531 1.063-.91-.079-.233.031-.278.401-.163.31.098.51.057.51-.104 0-.145.487-.779 1.083-1.409.596-.629 1.083-1.255 1.083-1.39s.271-.421.602-.635c.331-.215.602-.317.602-.229 0 .43.925-.735 1.042-1.312.082-.404.746-1.227 1.713-2.121.868-.803 1.579-1.625 1.579-1.825 0-.201.159-.366.353-.366.194 0 .467-.211.607-.47.208-.384.188-.445-.112-.332-.201.077-.363.048-.359-.064.013-.328.625-1.037.896-1.037.248 0 .648-.684.584-.998-.018-.091.217-.359.523-.597.306-.238.52-.54.476-.67-.044-.131.195-.531.531-.889s.786-1.187 1-1.842c.221-.675.535-1.192.725-1.192.184 0 .313-.133.286-.297-.064-.392.169-1.01.885-2.358.354-.665.525-1.275.427-1.526-.106-.274-.07-.362.103-.257.379.232.596-.227.702-1.484.081-.965.351-1.723 1.336-3.76.139-.288.188-.842.108-1.234-.091-.45-.039-.746.142-.805.165-.054.305-.64.332-1.385.026-.71.167-1.827.313-2.481.146-.654.284-1.966.307-2.915.023-.95.129-1.726.237-1.726.108 0 .061-.214-.105-.476-.239-.379-.24-.572-.002-.948.323-.51.389-1.399.15-2.013-.122-.316-.214-.33-.526-.079-.327.262-.352.239-.185-.172.106-.262.247-.664.314-.893.066-.229.221-.416.342-.416.232 0 .179-.525-.374-3.689-.183-1.047-.246-1.996-.139-2.11.272-.287.863.99.923 1.991.028.458.144.865.259.904.115.04.162.468.106.952-.117 1.007.394 1.855.982 1.632.205-.078.373-.27.373-.426 0-.157-.068-.218-.152-.135-.185.183-1.052-.248-1.052-.523 0-.107.26-.147.578-.087.492.093.573.02.542-.486-.02-.327-.103-.555-.184-.505-.082.05-.125-.327-.096-.838.067-1.168-.201-1.674-.555-1.052-.215.378-.25.325-.232-.35.012-.446.17-.851.36-.923.207-.078.272-.277.169-.514-.093-.212-.254-.867-.359-1.456-.543-3.05-1.848-7.356-2.992-9.876-2.761-6.08-6.049-11.657-8.911-15.112-2.497-3.015-9.035-8.567-10.088-8.567-.182 0-.393-.16-.47-.357-.076-.196-.287-.357-.47-.357-.182 0-.527-.214-.767-.476-.239-.262-.539-.476-.665-.476-.125 0-1.685-.818-3.466-1.819-1.78-1-4.938-2.494-7.017-3.319-3.445-1.367-5.124-1.857-8.595-2.508-.662-.124-1.482-.334-1.822-.465-.426-.165-.836-.157-1.324.027l-.706.267.57.303c.475.252.505.327.18.45-.217.083-.389.029-.389-.122 0-.149-.07-.201-.155-.117-.085.084-.017.316.15.515.388.462.112.464-3.696.02-3.044-.356-4.437-.876-1.881-.703 1.135.076 1.539.01 1.857-.304.383-.378.381-.422-.026-.716-.239-.173-.637-.314-.886-.314-.248 0-.674-.118-.946-.262-.36-.19-.45-.19-.331 0zm-1.43.737c-.081.131.027.238.241.238s.323-.107.241-.238c-.082-.13-.19-.238-.241-.238-.05 0-.159.107-.241.238zm-1.603.743c-.178.11-.566.203-.864.205-.299.002-.542.117-.542.256s.125.176.277.083c.153-.094.411.01.573.23.268.363.311.365.444.02.09-.23.314-.329.571-.25.707.218 1.063-.187.425-.484-.324-.151-.699-.177-.884-.06zm20.745 1.875c.198.127.469.23.602.23.132 0 .078-.103-.121-.23-.198-.127-.469-.23-.602-.23-.132 0-.078.103.121.23zm-10.173.157a.939.939 0 00.602 0c.166-.066.03-.12-.301-.12-.331 0-.466.054-.301.12zm1.625.319c.082.13.332.236.556.234.351-.003.358-.036.046-.234-.471-.302-.79-.302-.602 0zm20.695 5.77c.896.676 2.058 1.178 2.058.888 0-.235-1.006-.804-2.105-1.191l-.664-.235.711.537zm-55.185 3.187c-.563.336-1.023.706-1.023.824s-.142.214-.315.214c-.173 0-.681.268-1.13.595-.449.327-.672.595-.497.595.176 0 .837-.368 1.47-.818.633-.45 1.594-1.04 2.135-1.313.542-.273.985-.548.985-.61 0-.268-.671-.055-1.625.513zm10.534.443c-.464.176-.694.329-.513.339.267.014.273.087.031.375-.359.427-.24.443.651.089 1.302-.517 1.757-.767 1.757-.962 0-.29-.957-.21-1.926.159zm-4.575 2.023c-.217.138-.247.232-.074.234a.562.562 0 00.435-.234c.185-.296.102-.296-.361 0zm-10.594.238c0 .13.102.238.227.238.124 0 .293-.108.375-.238.082-.131-.02-.238-.226-.238-.207 0-.376.107-.376.238zm14.567.238c-.082.13-.034.237.106.237s.255-.107.255-.237c0-.131-.048-.238-.106-.238-.059 0-.173.107-.255.238zm-5.598.245c-.806.32-.656.483.18.195.398-.137.723-.292.723-.345 0-.14-.293-.092-.903.15zm14.747-.008c-.082.131.026.238.241.238.214 0 .322-.107.241-.238-.082-.13-.191-.237-.241-.237-.051 0-.159.107-.241.237zm2.287-.022c0 .119.217.16.482.092.265-.069.481-.166.481-.216 0-.05-.216-.091-.481-.091s-.482.097-.482.215zm-28.651 1.227c0 .138.108.185.24.104.133-.08.241-.194.241-.252 0-.057-.108-.105-.241-.105a.247.247 0 00-.24.252zm45.264 2.148c0 .12.114.217.253.217s.68.205 1.204.454c.523.25.951.379.951.286 0-.093-.542-.396-1.204-.672-.662-.276-1.204-.405-1.204-.285zm-50.441 1.645c-.082.13-.034.238.106.238s.255-.107.255-.238c0-.13-.047-.238-.106-.238-.058 0-.173.107-.255.238zm-1.088 1.315c-.168.199-.244.422-.17.496.075.074.257-.09.404-.363.316-.582.199-.649-.234-.133zm8.529.41l-.459.536.542-.454c.509-.425.651-.617.459-.617-.046 0-.29.24-.542.535zm-5.677 3.489c-.44.511-1.011 1.288-1.267 1.725-.431.735-.433.769-.027.442.241-.195.693-.73 1.005-1.19.312-.46.743-1.077.96-1.372.64-.872.195-.61-.671.395zm-17.775.332c-.364.18-.613.517-.631.853-.015.305-.139.623-.273.707-.313.194-1.022 1.865-1.022 2.405 0 .226-.174.755-.386 1.176-.44.87-.232 1.33.285.63.276-.372.342-.388.342-.084 0 .207-.174.443-.387.523-.212.08-.327.298-.255.484.159.41-.25 1.967-.569 2.161-.126.078-.164-.025-.085-.229.079-.203.034-.37-.1-.37-.133 0-.362.338-.507.75-.324.918-.326.982-.027.8.324-.198.035 1.282-.379 1.94-.268.427-.442 2.698-.207 2.698.187 0 .83-1.559.83-2.012 0-.28.135-.644.299-.806.238-.235.234-.335-.02-.49-.26-.16-.255-.22.029-.327.191-.073.408-.362.483-.642.105-.4.066-.454-.18-.252-.233.191-.352.16-.462-.125-.21-.54-.178-.758.057-.39.299.464 1.349-1.02 2.1-2.967 1.805-4.676 2.127-5.735 1.897-6.234-.204-.443-.297-.465-.832-.2zm-1.204 3.021a.24.24 0 00.241.238.24.24 0 00.241-.238.24.24 0 00-.241-.238.24.24 0 00-.241.238zm18.746 2.082c-.191.23-.504.631-.695.893-.346.475-.345.475.214.002.518-.438 1.132-1.311.922-1.311-.05 0-.248.187-.441.416zm82.739.298c.082.13.196.238.255.238.058 0 .106-.107.106-.238s-.115-.238-.255-.238-.188.107-.106.238zm-94.283 2.286c-.283.64-.537 1.325-.564 1.522-.026.196-.27.84-.541 1.43-1.77 3.856-3.407 13.995-3.094 19.154.208 3.422.557 6.232.959 7.716.193.709.297 1.374.232 1.477-.064.103-.005.407.132.674l.489.958c.133.26.241.736.241 1.057 0 .321.11.651.245.734.134.082.194.23.133.328-.128.204.912 3.217 1.899 5.5 2.116 4.894 3.912 7.693 7.652 11.919.763.862 1.387 1.684 1.387 1.827 0 .143.154.294.342.336.376.085 5.317 4.733 5.317 5.002 0 .092.157.307.349.477.3.266.306.253.042-.094-.265-.346-.24-.397.176-.367.265.02.437.109.381.198-.132.212 2.532 2.199 2.947 2.199.175 0 .318.084.318.188 0 .326 4.885 3.064 5.468 3.064.171 0 .311.096.311.213 0 .314.683.517.849.252.078-.125-.16-.341-.529-.48-.37-.139-.728-.333-.797-.43-.069-.098-.884-.589-1.811-1.093a68.954 68.954 0 01-3.318-1.949c-.898-.569-1.683-1.034-1.745-1.034-.168 0-1.076-.929-1.076-1.1 0-.081.372.134.826.476.455.343.929.624 1.054.624s.35.145.499.323c.149.177 1.056.721 2.016 1.207a82.552 82.552 0 012.804 1.489c.81.462 1.024.514.91.22-.082-.211-.057-.384.056-.384s.28.241.37.536c.097.317.215.415.287.242.095-.226.316-.213.973.058.467.193.947.292 1.065.219.118-.072.215-.017.215.121 0 .139.217.252.482.252.264 0 .481-.107.481-.238s-.114-.238-.253-.238c-.14 0-1.088-.411-2.107-.913-1.019-.502-1.979-.871-2.132-.82-.154.051-.36-.037-.459-.195-.122-.194-.078-.225.136-.095.196.12.256.099.16-.056-.086-.136-.43-.316-.765-.399-.336-.083-1.314-.577-2.174-1.097-.86-.521-1.664-.946-1.787-.946s-1.177-.751-2.343-1.668a291.233 291.233 0 00-2.586-2.019c-.255-.193-1.242-1.101-2.191-2.017-.949-.916-1.793-1.599-1.875-1.518-.082.082-.251-.108-.375-.42-.235-.592-2.275-3.045-2.608-3.135-.104-.028-.158-.147-.118-.264.039-.117-.184-.492-.497-.833-1.892-2.061-4.901-7.464-5.813-10.437l-.749-2.438a17.21 17.21 0 01-.514-2.32c-.082-.622-.238-1.244-.346-1.38-.108-.137-.19-.459-.183-.714.008-.256-.112-1.43-.266-2.607-.153-1.178-.28-2.303-.28-2.499-.004-1.515.283-7.044.381-7.35.068-.211.166-1.311.218-2.444.053-1.133.15-2.15.217-2.26.067-.111.253-.829.412-1.596.21-1.008.217-1.465.027-1.654-.19-.188-.263-.18-.263.026 0 .157-.151.286-.335.286-.388 0-.696.976-.482 1.528.08.206.048.375-.072.375s-.23.455-.246 1.012c-.057 2-.183 2.998-.346 2.737-.173-.276-.082-3.595.107-3.92.06-.102.184-.721.277-1.375.322-2.282 1.419-6.443 2.338-8.868.509-1.343.926-2.602.926-2.797 0-.56-.378-.412-.693.272-.159.345-.347.568-.419.497-.072-.071-.005-.362.149-.646.154-.284.219-.576.146-.65-.074-.072-.366.392-.649 1.032zm-9.128.094c0 .13.108.238.241.238a.24.24 0 00.24-.238.24.24 0 00-.24-.238.24.24 0 00-.241.238zm17.904 1.243c-.818 1.116-1.714 3.34-1.076 2.671.376-.394 1.536-2.739 1.415-2.859-.064-.063-.217.022-.339.188zm88.073.66c0 .328.055.462.121.298a.906.906 0 000-.595c-.066-.163-.121-.03-.121.297zm-97.791 1.428a.24.24 0 00.241.238.24.24 0 00.241-.238.24.24 0 00-.241-.238.24.24 0 00-.241.238zm-3.621 4.581c-.18.491-.421.893-.535.893-.113 0-.141.105-.061.233.081.128.025.456-.122.729-.148.272-.278.814-.289 1.203-.011.389-.098.755-.192.812-.094.058-.119.375-.055.706.065.336.004.6-.139.6-.042 0-.079.044-.11.126-.088.229-.136.757-.128 1.48.01.884-.062 1.796-.161 2.028-.099.23-.128.682-.067 1.003.062.32.03.613-.071.65-.058.021-.085.45-.08 1.1.003.503.025 1.14.066 1.823.139 2.311.203 2.652.334 1.785.251-1.652.34-5.711.125-5.711-.105 0-.191-.114-.191-.252 0-.139.087-.2.193-.134.106.065.386-.973.622-2.306.236-1.334.566-2.987.733-3.674.167-.687.212-1.25.1-1.25-.112 0-.203-.166-.203-.37s.103-.308.228-.232c.252.154.606-1.328.437-1.824-.059-.17-.254.092-.434.582zm87.176.06c0 .13.105.398.233.595.128.196.233.25.233.119s-.105-.399-.233-.595c-.128-.197-.233-.25-.233-.12zm15.642 2.856c0 .218.117.358.259.31.143-.046.259-.186.259-.31 0-.125-.116-.265-.259-.312-.142-.047-.259.093-.259.312zm-99.571.615c-.089.142-.041.378.106.524.197.194.268.125.268-.259 0-.575-.125-.663-.374-.265zm-6.561 2.24c.004.393.058.525.12.293.061-.231.057-.553-.009-.714-.066-.16-.116.029-.111.421zm.453 1.21c.012.277.069.334.146.144.069-.172.061-.377-.019-.456-.08-.08-.137.061-.127.312zm0 2.38c.012.277.069.333.146.144.069-.172.061-.378-.019-.457-.08-.079-.137.062-.127.313zm107.938.932c.491 2.066.614 2.809.498 2.995-.071.112-.181.606-.244 1.097-.089.69-.05.828.171.61.382-.379.378-3.734-.005-4.19-.216-.258-.22-.37-.014-.438.177-.058.123-.218-.149-.44-.396-.323-.414-.297-.257.366zm.871-.371c0 .123.109.29.241.37.133.082.241-.02.241-.223 0-.204-.108-.371-.241-.371-.132 0-.241.1-.241.224zM217.972 77.05c.002.654.049.894.104.532.055-.362.054-.897-.003-1.19-.057-.293-.103.003-.101.658zm.673-.694c.011.277.068.333.145.144.07-.172.061-.378-.019-.457-.08-.079-.137.062-.126.313zm5.277.575c0 .13.109.238.241.238a.24.24 0 00.241-.238.24.24 0 00-.241-.238.24.24 0 00-.241.238zm94.902 1.428c0 .327.055.46.121.297a.906.906 0 000-.595c-.066-.163-.121-.03-.121.298zm6.222.133c0 .345.104.545.241.462.132-.081.241-.355.241-.61 0-.254-.109-.461-.241-.461-.133 0-.241.274-.241.609zm-106.42.329c0 .385.085.752.19.816.105.064.147-.251.094-.7-.118-1-.284-1.068-.284-.117zm-.676.133c.005.392.059.524.12.293.061-.232.057-.553-.009-.714-.066-.162-.116.028-.111.42zm110.106 1.07c-.082.131-.034.238.106.238s.255-.107.255-.238c0-.13-.048-.238-.106-.238-.059 0-.174.108-.255.238zm-109.991.337c-.072.186-.039.64.074 1.012.189.625.206.6.225-.337.021-1.045-.073-1.258-.299-.675zm.681 1.33c-.082.13-.041.237.092.237.132 0 .308-.107.389-.238.082-.13.041-.238-.092-.238-.132 0-.307.107-.389.238zm.025.853c-.08.207-.041.555.088.773.186.315.235.238.241-.377.008-.847-.102-.98-.329-.396zm-.61.62c.009.17.11.525.224.787.184.425.208.407.224-.164.009-.353-.092-.707-.224-.788-.133-.08-.233-.007-.224.165zm-1.905 1.382c0 .327.055.461.121.297a.906.906 0 000-.594c-.066-.164-.121-.03-.121.297zm110.475.49c0 .138.109.186.241.105.133-.081.241-.194.241-.252 0-.058-.108-.105-.241-.105a.248.248 0 00-.241.252zm-110.234.7c0 .327.054.461.121.297a.905.905 0 000-.595c-.067-.163-.121-.03-.121.298zm2.018-.254c-.076.121-.028.288.107.37.134.083.244-.017.244-.221 0-.418-.144-.48-.351-.15zm99.196.06c-.06.172-.086.598-.058.947.039.505.116.58.377.366.219-.18.239-.298.06-.357-.147-.048-.267-.246-.267-.439s.108-.285.241-.204c.132.08.24.04.24-.091 0-.385-.475-.563-.593-.222zm-98.484 1.146c-.087.392-.276.714-.42.714-.144 0-.192.069-.107.153.085.084.32.017.522-.148.315-.26.367-.196.367.456 0 .542.085.706.301.578.234-.139.232-.096-.006.195-.257.314-.225.394.206.505.451.117.494.057.362-.506l-.225-.969c-.041-.181-.232-.45-.425-.595-.193-.145-.312-.452-.265-.68.048-.23.033-.417-.032-.417s-.19.321-.278.714zm-2.49.476c0 .327.055.46.122.297a.906.906 0 000-.595c-.067-.163-.122-.03-.122.298zm.222 1.328c.012.278.069.334.146.144.069-.171.06-.377-.019-.456-.08-.079-.137.062-.127.312zm.358 1.29c.068.458.143 1.02.166 1.249.023.229.127.416.231.416.104 0 .198.188.208.417.011.229.067.303.125.165.058-.138-.11-.888-.374-1.666-.319-.94-.439-1.135-.356-.582zm1.79-.541c0 .114.098.31.217.433.12.125.27.44.334.702.102.419.119.41.143-.076.016-.304-.134-.713-.333-.91-.198-.196-.361-.263-.361-.149zm97.315 1.67a15.64 15.64 0 00-.444 1.488c-.112.513-.045.475.484-.267.46-.645.571-1.018.444-1.487-.167-.62-.172-.617-.484.267zm-95.862 1.19c-.004.295.097.536.225.536s.171.16.095.357c-.077.197-.019.357.127.357.36 0 .323-.469-.094-1.19-.34-.587-.344-.588-.353-.06zm-.731.27c0 .131.109.304.241.385.133.081.241.04.241-.09 0-.132-.108-.305-.241-.386-.132-.08-.241-.04-.241.091zm-1.684.43c-.001.287.102.585.229.663.127.077.181.27.121.43-.06.16.117.611.394 1.004l.504.714-.121-.851c-.067-.468-.347-1.218-.624-1.666-.427-.693-.502-.737-.503-.293zm2.185.689c.011.277.068.334.145.144.07-.172.061-.377-.019-.456-.08-.08-.136.061-.126.312zm1.116 1.836c-.127.327-.025.802.456 2.13.083.23.327.418.544.42.342.004.346.034.032.235-.3.191-.28.234.12.249.443.017.438.036-.06.234-.298.118-.542.386-.542.594 0 .208.114.309.254.224.153-.094.233.064.203.402-.091 1.016.02 1.39.415 1.39.32 0 .337-.064.091-.357-.178-.212-.199-.357-.051-.357.143 0 .226-.478.195-1.13-.059-1.232-.327-2.027-.623-1.846-.103.064-.239-.151-.302-.477-.063-.326-.033-.592.067-.592s.247-.17.328-.377c.093-.24.037-.34-.155-.273-.166.057-.42-.107-.566-.365-.22-.392-.287-.409-.406-.104zm91.561.464c-.186.491-.471.893-.634.893-.163 0-.368.222-.455.494-.087.271-.215.437-.285.368-.205-.203-1.515 1.361-1.515 1.809 0 .445.442.119.848-.627.3-.551.582-.784.88-.727.242.046.439-.02.439-.146s.28-.648.623-1.16c.342-.511.581-1.125.529-1.363-.067-.31-.19-.178-.43.46zm-93.9 1.117c0 .27.108.49.241.49.132 0 .241-.154.241-.343 0-.189-.109-.41-.241-.49-.133-.081-.241.073-.241.343zm3.852.238c0 .123.107.289.238.369a.25.25 0 00.049.024c.096.032.118-.064.046-.248-.104-.267-.213-.393-.276-.355-.035.02-.057.09-.057.21zm91.448-.062c.174.069.381.06.461-.019.08-.078-.062-.135-.316-.124-.28.011-.337.067-.145.143zm-.918 1.543c0 .11.102.199.227.199.124 0 .282-.09.35-.199.068-.109-.034-.198-.226-.198-.193 0-.351.09-.351.198zm-93.9.408c0 .131.108.305.24.386.133.08.241.04.241-.091s-.108-.305-.241-.385c-.132-.081-.24-.04-.24.09zm91.575.387c-.325.694.023.812.39.133.296-.546.314-.73.069-.728-.099.001-.306.27-.459.595zm-87.583.086c-.103.166-.123.365-.044.444.216.213.451-.1.334-.445-.081-.242-.138-.242-.29 0zm89.817.398c-.232.598-.163.752.12.27.141-.239.205-.484.143-.546-.062-.061-.18.063-.263.276zm-93.084.616c.001.179.272.792.602 1.362.329.57.599 1.179.599 1.354 0 .175.09.374.199.441.297.181.16-.569-.287-1.574-.217-.486-.394-.982-.394-1.101s-.162-.35-.361-.513c-.291-.239-.361-.233-.358.031zm4.331 1.397c0 .131.115.238.255.238s.188-.107.106-.238-.197-.238-.255-.238c-.059 0-.106.107-.106.238zm87.096.711c-.588.679-.525 1.06.078.464.273-.27.462-.593.419-.719-.042-.126-.266-.011-.497.255zm-4.54.539c-.016.163-.013.385.005.493.019.108-.061.138-.177.067-.117-.072-.533.269-.924.756-.857 1.065-1.283 1.827-.58 1.037.275-.309.5-.437.5-.283 0 .424.439.065 1.216-.994.66-.901.734-1.374.215-1.374-.125 0-.24.134-.255.298zm-82.666.4c-.165.263.215.547.437.327.229-.226.187-.549-.072-.549-.125 0-.289.1-.365.222zm1.554.586c0 .051.168.157.374.235.214.081.311.041.227-.094-.142-.226-.601-.334-.601-.141zm-.12.858c.082.131.196.238.255.238.058 0 .106-.107.106-.238s-.115-.238-.255-.238-.188.107-.106.238zm.033 1.309c.077.196.182.357.234.357.052 0 .094-.161.094-.357 0-.197-.105-.357-.233-.357s-.171.16-.095.357zm77.722.965c-.449.355-.446.36.074.11.298-.142.542-.309.542-.37 0-.182-.125-.129-.616.26zm.141.572c-.195.122-.291.284-.215.359.077.076.277-.025.444-.225.348-.413.281-.452-.229-.134zm3.981.178c-.13.339-.103.366.135.133.165-.161.239-.353.165-.427-.075-.073-.209.059-.3.294zm-4.982.962c-.299.377-.291.386.091.09.232-.18.422-.367.422-.417 0-.195-.198-.069-.513.327zm4.004.059c-.24.262-.335.476-.211.476.123 0 .41-.214.636-.476.227-.261.322-.475.212-.475-.111 0-.398.214-.637.475zm-80.779-.041c0 .108.291.456.645.774l.645.576-.541-.773c-.546-.781-.749-.937-.749-.577zm75.7.313c-.457.508-.457.509.083.181.298-.181.542-.41.542-.51 0-.287-.135-.216-.625.329zm-.241.978l-.459.535.542-.453c.509-.426.651-.618.459-.618-.046 0-.29.241-.542.536zm3.738.357a59.188 59.188 0 00-1.433 1.589l-.597.697.802-.548c.44-.301.917-.8 1.059-1.108.142-.309.459-.624.704-.701.245-.077.445-.293.445-.481 0-.474-.038-.453-.98.552zm-3.594 1.136c-.727.582-1.366 1.187-1.419 1.344-.095.28.362-.032 1.805-1.234.637-.53 1.214-1.202 1.012-1.178-.041.005-.67.486-1.398 1.068zm-73.917-.511c0 .049.189.237.421.417.382.295.39.287.091-.09-.315-.397-.512-.523-.512-.327zm17.094.965c0 .065.217.233.482.373.265.14.482.201.482.136 0-.066-.217-.234-.482-.374-.265-.14-.482-.201-.482-.135zm54.294 1.563c-.082.131-.04.238.092.238.133 0 .308-.107.39-.238.082-.131.04-.238-.092-.238-.133 0-.308.107-.39.238zm-65.758.653c.249.289.569.455.71.369.165-.101.132-.196-.092-.265a3.001 3.001 0 01-.711-.368c-.198-.144-.157-.025.093.264zm67.684.201l-.722.613.783-.512c.43-.281.782-.558.782-.614 0-.178-.102-.116-.843.513zm1.084.362c-.331.27-.466.422-.3.337 1.387-.709 1.579-.836 1.263-.832-.199.002-.632.225-.963.495zm-66.874.145c-.414.146-.38.543.046.543.399 0 .714-.393.439-.547-.101-.056-.32-.055-.485.004zm61.697.067c-.082.131-.034.238.106.238.141 0 .255-.107.255-.238s-.047-.238-.106-.238c-.058 0-.173.107-.255.238zm-66.332.283c0 .057.324.411.72.785l.72.682-.296-.62c-.163-.341-.342-.575-.397-.52-.056.055-.246-.02-.424-.165-.178-.146-.323-.219-.323-.162zm1.926.442c0 .166-.169.214-.421.119-.319-.12-.354-.091-.144.118.188.187.413.203.693.047.281-.155.328-.283.144-.395-.15-.092-.272-.041-.272.111zm1.842 2.018c.077.2.372.482.654.627.473.243.467.214-.07-.363-.671-.722-.781-.771-.584-.264zm2.116.31c.389.415.801.754.917.754.341 0-.019-.416-.849-.981l-.775-.528.707.755zm59.487-.2c-.084.135.012.175.226.093.417-.158.494-.328.147-.328-.124 0-.292.106-.373.235zm-61.532 1.283c.457.474.868.861.915.861.204 0-.828-1.172-1.263-1.433-.265-.16-.108.098.348.572zm58.4 1.229c-2.251 1.104-4.283 2.009-4.514 2.01-.232.001-.422.109-.422.24 0 .466.589.259 4.575-1.612 1.939-.911 5.14-2.795 4.514-2.658-.033.007-1.902.916-4.153 2.02zm1.446-1.56c-.084.135.013.175.227.093.417-.158.493-.328.147-.328-.125 0-.293.105-.374.235zm-53.73.676c.22.24.327.508.238.595-.088.088-.034.159.12.159.366 0 .361-.539-.008-.904-.468-.463-.786-.326-.35.15zm69.258-.198a.24.24 0 00.241.238.24.24 0 00.241-.238.24.24 0 00-.482 0zm-73.435.304c0 .21.099.443.22.517.121.073.196-.025.168-.218-.076-.509-.388-.75-.388-.299zm5.157.563c.034.229.188.458.342.509.392.129.35-.308-.062-.646-.274-.225-.33-.198-.28.137zm44.322.085c-.082.131-.041.238.092.238.132 0 .307-.107.389-.238.082-.131.041-.238-.092-.238-.132 0-.307.107-.389.238zm15.048.014c0 .139.108.186.241.105.132-.081.241-.194.241-.252 0-.058-.109-.105-.241-.105a.248.248 0 00-.241.252zm-64.663.436c.172.275 1.1.829 1.1.657 0-.055-.285-.284-.632-.509-.347-.225-.558-.291-.468-.148zm63.339.264c-.082.131.02.238.226.238.207 0 .376-.107.376-.238a.233.233 0 00-.227-.238c-.125 0-.293.107-.375.238zm-55.498 1.149c0 .26.573.517 1.152.517.499 0 .116-.367-.61-.584-.299-.09-.542-.06-.542.067zm60.072.041c-.082.131-.034.238.107.238.14 0 .255-.107.255-.238s-.048-.238-.107-.238c-.058 0-.173.107-.255.238zm-8.868 1.141c-.905.478-1.536.905-1.402.949.134.044.682-.194 1.219-.529s1.073-.609 1.192-.609.351-.161.516-.357c.392-.466.392-.466-1.525.546zm-40.249-.427c.082.131.332.236.556.234.351-.003.357-.035.046-.234-.471-.301-.79-.301-.602 0zm31.18.238c0 .131.162.238.361.238.199 0 .361-.107.361-.238s-.162-.238-.361-.238c-.199 0-.361.107-.361.238zm-45.024.23c0 .135.099.246.22.246s.485.233.808.518c.665.585 1.801.817 1.346.275-.146-.175-.524-.317-.838-.317-.315 0-.573-.103-.573-.23 0-.126-.217-.344-.482-.484-.326-.173-.481-.175-.481-.008zm3.666.145c.229.236.482.364.562.284.081-.079-.106-.273-.415-.43-.538-.272-.544-.266-.147.146zm8.613-.281c0 .051.163.155.361.23.199.075.362.033.362-.093 0-.127-.163-.231-.362-.231-.198 0-.361.042-.361.094zm30.939.314c-.265.063-.584.211-.71.329-.363.341.394.241 1.071-.142.61-.345.513-.395-.361-.187zm-31.694.566c.312.249.799.442 1.083.426.407-.022.427-.05.094-.136-.232-.06-.422-.196-.422-.302 0-.106-.297-.249-.661-.318l-.661-.124.567.454zm1.899-.34a.94.94 0 00.602 0c.165-.066.03-.12-.301-.12-.331 0-.467.054-.301.12zm9.33.426c.614.275 2.793.534 2.561.305-.135-.133-.821-.281-1.524-.328-.703-.047-1.17-.037-1.037.023zm-8.427.866c-.457.214-.455.221.044.128.319-.059.582.045.666.262.099.255.342.32.837.222.505-.1.737-.034.843.24.113.289.37.348 1.105.25.528-.07.959-.03.959.088 0 .119.163.216.361.216.199 0 .361.107.361.238s.115.238.255.238.192-.101.115-.225c-.077-.123.138-.203.477-.177.339.026.715.204.835.396.12.192.283.284.363.206.287-.284-.678-.942-1.294-.883-.347.034-.867-.067-1.156-.223a2.869 2.869 0 00-1.145-.284c-.34 0-1.023-.214-1.517-.476-.981-.52-1.377-.56-2.109-.216zm11.557-.035l-1.204.15 1.891.2c1.208.127 1.773.273 1.565.403-.22.138-.066.206.471.208.47.002.735-.094.648-.234-.082-.131.067-.238.332-.238.617 0 .864-.382.369-.57-.447-.17-2.372-.131-4.072.081zm19.096-.063c.174.069.381.061.461-.018.08-.079-.062-.136-.316-.125-.28.011-.337.068-.145.143zm-5.574.66c-.94.142-1.56.339-1.445.46.116.121-.08.16-.46.092-.364-.065-.662-.014-.662.114 0 .269 1.917.065 3.708-.394 1.599-.409.889-.579-1.141-.272zm-4.024.613a.815.815 0 01-.631.063c-.222-.084-.277 0-.174.266.116.3.227.328.481.119.181-.149.602-.203.935-.12.333.082.605.053.605-.065 0-.303-.849-.487-1.216-.263zm11.283-.083c.174.069.382.06.462-.019.08-.079-.062-.135-.316-.124-.281.011-.338.067-.146.143zm7.509.068c0 .127.163.169.361.094.199-.076.362-.179.362-.231 0-.051-.163-.093-.362-.093-.198 0-.361.104-.361.23zm-48.533.217c.072.115.376.27.676.345.527.131.529.124.079-.209-.518-.382-.958-.462-.755-.136zm19.224-.044c.234.06.559.056.722-.009.163-.065-.028-.115-.426-.11-.397.005-.53.058-.296.119zm2.238.147c.08.205-.077.581-.358.859l-.5.495h1.715c1.497 0 1.677-.046 1.415-.357-.165-.197-.461-.357-.657-.357-.197 0-.304-.138-.239-.306.066-.17-.057-.314-.275-.323a2.827 2.827 0 01-.818-.196c-.321-.137-.39-.092-.283.185zm3.957-.104c0 .115-.514.155-1.143.088-.63-.067-1.066-.039-.971.061.095.1.582.227 1.083.281.501.054.947.2.991.325.044.125.247.227.451.227.302 0 .315-.066.071-.357-.224-.266-.227-.357-.015-.357.156 0 .217-.107.135-.238-.183-.294-.602-.314-.602-.03zm-8.053.26c-.433.153-.424.18.121.359.324.106.697.207.83.225.132.017.376.115.541.217.17.106.301.077.301-.065 0-.246-.314-.344-.884-.274-.155.019-.317-.115-.361-.297-.052-.217-.239-.274-.548-.165zm9.425-.064c-.345.089-.376.181-.151.449.393.468.777.421 1.131-.139.259-.41.242-.472-.123-.449a5.81 5.81 0 00-.857.139zm.193.31c-.082.131-.034.238.106.238.141 0 .255-.107.255-.238s-.047-.238-.106-.238c-.058 0-.173.107-.255.238zm-5.069.217c.075.12 0 .272-.166.339-.166.066-.059.129.239.139.33.011.542-.121.542-.338a.367.367 0 00-.375-.357c-.207 0-.315.098-.24.217zm13.255.285c-1.444.383-1.522.428-.545.315 1.258-.145 3.478-.773 2.712-.766-.264.002-1.24.204-2.167.451zm10.113-.264c-.082.131.026.238.241.238.214 0 .322-.107.24-.238-.081-.131-.19-.238-.24-.238-.051 0-.159.107-.241.238zm-43.339.238c.082.131.257.238.39.238.132 0 .174-.107.092-.238-.082-.131-.257-.238-.39-.238-.132 0-.174.107-.092.238zm.843.238c0 .13.115.238.255.238s.188-.108.106-.238c-.082-.131-.196-.238-.255-.238-.058 0-.106.107-.106.238zm16.794-.081a.94.94 0 00.602 0c.165-.066.03-.12-.301-.12-.331 0-.467.054-.301.12zm3.386.005c.173.069.381.06.461-.019.08-.079-.062-.135-.316-.125-.281.012-.338.068-.145.144zm4.138.324c0 .158.331.19.903.088 1.249-.224 1.283-.336.1-.336-.552 0-1.003.111-1.003.248zm-23.375.323c.186.221.499.341.695.266.197-.074.559.045.804.265.246.219.447.294.447.165 0-.257-.74-.665-1.683-.93-.543-.152-.568-.13-.263.234zm2.542.846c.078.125.319.161.535.079.262-.1.335-.057.219.129-.096.153-.063.278.073.278s.185.161.109.357c-.076.197-.012.357.143.357.33 0 .242-.99-.11-1.245-.354-.257-1.136-.221-.969.045zm4.942 1.965c0 .248.279.231.719-.044.281-.176.243-.215-.181-.184-.296.023-.538.125-.538.228zm6.26-.051c0 .131.331.238.736.238.43 0 .675-.099.588-.238-.082-.131-.413-.238-.736-.238-.324 0-.588.107-.588.238zm1.926.238c-.273.175-.167.232.436.235.47.002.735-.094.647-.235-.186-.299-.615-.299-1.083 0zm7.971.02c-.318.126-.534.264-.482.309.197.166 1.901-.152 1.901-.355 0-.27-.675-.248-1.419.046zm2.096-.095c.174.069.382.06.462-.019.08-.079-.062-.135-.316-.125-.281.011-.338.068-.146.144zm10.639.068c0 .126.163.169.361.093.199-.075.362-.179.362-.23 0-.052-.163-.094-.362-.094-.198 0-.361.104-.361.231zm-18.828.293c.225.222.353.222.578 0 .225-.222.16-.286-.289-.286-.45 0-.514.064-.289.286zm2.089-.057c.085.136.437.247.782.247.755 0 .668-.114-.255-.333-.447-.106-.629-.077-.527.086zm2.052.009c0 .28.185.28.843 0 .427-.181.406-.206-.181-.221-.364-.009-.662.09-.662.221zm-12.52.476c0 .131.169.238.376.238.206 0 .308-.107.226-.238-.082-.131-.251-.238-.375-.238a.233.233 0 00-.227.238z" fill="#000"/><path fill-rule="evenodd" clip-rule="evenodd" d="M228.31 107.329l.238.357.065-.052c.297-.243.399-.185.602.342.134.349.346.573.47.497.229-.139 1.464 1.283 1.457 1.679-.002.118-.116.055-.254-.142-.206-.294-.235-.273-.167.119.05.293.252.462.524.438.243-.021.696.247 1.007.595.6.674.762 1.13.301.849-.174-.107-.212-.066-.104.108.096.154.263.225.372.158.109-.066.387.173.617.532.23.358.274.518.098.355-.608-.565-.723-.296-.139.326.321.343.732.573.912.511.434-.149 3.719 2.91 3.628 3.379-.051.264-.014.284.133.071.157-.228.321-.211.736.076.294.203.47.472.391.597-.078.125-.043.198.078.162.121-.036 1.24.644 2.486 1.512 5.183 3.609 9.728 5.906 14.906 7.535 2.566.807 6.716 1.66 9.029 1.856l2.769.234c1.658.138 6.605.068 8.307-.117 5.692-.62 9.509-1.57 14.398-3.584 2.056-.847 2.433-1.27.44-.493-.679.264-1.235.375-1.235.246s.108-.234.241-.234a.24.24 0 00.241-.239c0-.131-.405-.024-.9.238-.494.262-1.081.477-1.304.477-.649 0-1.167.264-1.167.595 0 .321-.515.595-1.118.595-.195 0-.288-.107-.206-.238.198-.317.335-.335-3.561.457-4.442.903-6.431 1.131-6.431.738 0-.164.16-.234.361-.157.22.083.361 0 .361-.213 0-.192.108-.349.241-.349a.24.24 0 01.24.238c0 .131.163.238.362.238.198 0 .361-.116.361-.257 0-.164.272-.198.752-.094.551.12.705.088.576-.119-.115-.184-.02-.267.271-.236.246.025.501.026.568.001a8.41 8.41 0 01.722-.151c.331-.058.944-.265 1.363-.459.418-.194.921-.292 1.119-.217.197.075.427.026.511-.108.084-.134.312-.183.506-.109.194.073.353.015.353-.13 0-.335-.376-.336-1.006-.002-.38.201-.471.192-.393-.038.056-.165.637-.443 1.292-.618 2.726-.729 3.074-.855 5.645-2.041.993-.459 2.271-1.027 2.84-1.263s1.263-.625 1.542-.864c.279-.239.68-.438.892-.442.412-.008 1.48-.707 1.08-.707-.131 0-.367.127-.523.282-.157.155-.352.216-.433.136-.081-.081.297-.359.84-.618.543-.259.926-.374.852-.254-.247.394.387.225 1.191-.319.461-.312.75-.685.691-.892-.089-.318-.071-.318.163 0 .231.312.295.305.512-.06.137-.229.406-.416.598-.416.192 0 .349-.088.349-.194 0-.107.379-.373.843-.591.463-.219.842-.51.842-.648 0-.172-.169-.168-.541.011-.411.197-.368.108.18-.37.661-.576 2.843-2.448 3.184-2.73.079-.065.075.069-.008.298-.083.228-.108.416-.055.416.245 0 2.255-2.853 2.083-2.958-.107-.065-1.032.728-2.054 1.763-1.265 1.281-1.978 1.836-2.233 1.739-.287-.108-.127-.342.678-.992 1.712-1.382 3.368-3.123 3.211-3.375-.081-.129-.003-.205.172-.169.176.036.289-.076.253-.25-.036-.173.027-.258.141-.189.113.07.685-.345 1.269-.921 1.678-1.651 1.906-1.924 1.911-2.283.002-.186.489-1.135 1.083-2.111.594-.976 1.079-1.878 1.079-2.004 0-.127.155-.399.344-.606.616-.675 2.988-5.555 2.86-5.884-.069-.177-.013-.322.124-.322.562 0 1.787-4.488 2.47-9.043.374-2.494.482-6.663.173-6.663-.153 0-.19.383-.097 1.01.116.788.042 1.17-.332 1.726-.266.393-.494.607-.508.476-.014-.13-.106.03-.204.357-.099.327-.088.776.024.997.136.268.045.668-.272 1.199-.262.439-.509 1.007-.549 1.264-.041.257-.133.574-.205.705-.071.13-.15.559-.174.952-.023.392-.188.82-.365.951-.178.131-.304.56-.281.952.025.42-.312 1.392-.818 2.36-.548 1.049-.761 1.68-.585 1.739.177.058-.015.653-.535 1.656-.446.86-.983 2.08-1.195 2.707-.211.628-.702 1.577-1.092 2.109-.39.532-.709 1.075-.709 1.207 0 .132-.162.24-.361.24-.198 0-.361.134-.361.298 0 .502-1.75 3.096-2.809 4.162-.551.556-1.038 1.093-1.083 1.195-.044.101-.393.423-.775.715-.382.293-.611.531-.509.531.102 0-.223.322-.723.714-1.616 1.27-1.364.817.863-1.546 2.198-2.334 5.726-7.37 5.393-7.699-.084-.083-.259.038-.39.269s-.356.347-.501.259c-.158-.097-.194-.051-.09.115.162.259-.697 1.725-1.113 1.899-.104.044-.189.186-.189.316 0 .215-1.23 1.842-2.753 3.641-.328.388-.665.638-.748.556-.083-.083.196-.453.62-.824.636-.556 1.987-2.329 2.721-3.57.09-.153-.015-.456-.235-.673-.301-.297-.316-.381-.063-.339.491.082 1.2-.271 1.044-.52-.073-.117-.018-.213.122-.213.14 0 .255-.16.255-.357 0-.196-.105-.357-.233-.357s-.166-.174-.083-.388c.083-.213-.408.179-1.091.872-.683.693-1.242 1.337-1.242 1.431 0 .094-.409.585-.91 1.091a58.977 58.977 0 00-2.046 2.226c-.625.717-1.137 1.173-1.137 1.011 0-.161.109-.293.241-.293.133 0 .241-.097.241-.214 0-.118.352-.576.782-1.018 1.455-1.493 2.941-3.652 4.523-6.568.335-.618.792-1.446 1.016-1.838 1.208-2.12 3.284-8.807 2.863-9.223-.107-.106-.389.266-.625.826-.237.56-.523 1.234-.636 1.495a69.256 69.256 0 00-.78 2.023c-.728 1.956-2.087 4.839-2.219 4.708-.056-.054.283-1.163.752-2.463 2.601-7.207 2.696-7.705 2.737-14.382.037-6.054-.543-9.656-2.366-14.706-1.041-2.88-1.614-4.058-3.515-7.224-3.399-5.66-8.297-10.224-14.33-13.353-4.709-2.443-8.451-3.813-11.798-4.32-1.877-.283-.767.273 1.565.785 2.494.548 5.791 1.65 5.012 1.677-.289.01-.831-.101-1.204-.246-3.138-1.22-9.082-2.113-14.081-2.115-1.81 0-3.462-.067-3.672-.146-.699-.266-.391-.737.643-.983l1.023-.243-1.095-.029c-.603-.016-1.226.1-1.385.257-.201.199-.365.21-.541.037-.175-.173.248-.405 1.392-.762.903-.282 1.729-.512 1.834-.512.105 0 .353-.16.55-.356.319-.315.204-.342-1.021-.239-1.426.12-4.518.699-5.283.989-.411.156-.41.175.029.35.264.106.025.127-.555.048-.693-.094-1.195-.026-1.565.211a4.82 4.82 0 01-1.208.51c-.558.136-.662.086-.662-.319 0-.264-.092-.48-.203-.48-.182 0-2.017.605-3.288 1.084-.42.158-.404.098.12-.47.331-.36.493-.632.361-.606-.629.125-.925-.054-.421-.254.298-.118.541-.324.541-.457 0-.27-2.322.568-2.889 1.042-.32.268-1.221.674-1.386.625-.216-.065-2.529 1.264-2.919 1.677-.26.277-.591.43-.736.343-.144-.088-.738.31-1.32.886-.619.611-1.543 1.217-2.224 1.458-.641.226-1.355.513-1.587.637-.232.124-.422.17-.422.102 0-.208 1.548-1.531 1.806-1.543.132-.006.715-.329 1.294-.717.579-.388 1.124-.662 1.21-.61.087.054.339-.216.561-.598.562-.968.071-.92-1.413.139-.644.458-1.311.9-1.482.981-.552.261-.667-.178-.153-.587l1.324-1.047c.54-.425.659-.604.344-.516-.475.134-.475.13-.014-.241.257-.207.406-.377.33-.377-.36 0-3.069 1.352-3.903 1.948-1.084.773-1.395.84-1.183.254.083-.23-.826.494-2.018 1.606-3.329 3.105-5.296 4.76-5.66 4.76-.181 0-.732.69-1.222 1.533-.733 1.26-1.109 1.641-2.104 2.135-1.243.617-2.559.843-3.075.527-.196-.12-.288-.461-.279-.9a51.748 51.748 0 00-7.063 19.676c.031-.082.068-.126.11-.126.143 0 .204-.264.139-.6-.064-.33-.039-.648.055-.706.094-.057.181-.423.192-.812.011-.39.141-.93.289-1.203.147-.273.203-.601.122-.73-.08-.127-.052-.232.061-.232.114 0 .355-.402.535-.893.18-.49.375-.752.434-.582.169.496-.185 1.978-.437 1.824-.125-.076-.228.028-.228.232 0 .204.091.37.203.37.112 0 .067.563-.1 1.25s-.497 2.34-.733 3.674c-.236 1.333-.516 2.37-.622 2.306-.106-.065-.193-.005-.193.134 0 .138.086.252.191.252.215 0 .126 4.06-.125 5.711-.131.867-.195.526-.334-1.785a35.123 35.123 0 01-.066-1.823 51.808 51.808 0 003.28 19.329c.063-.038.172.088.276.355.072.184.05.28-.046.248.408 1.048.848 2.08 1.321 3.094.263-.037.601.399 1.222 1.565 1.093 2.05 1.308 2.414 1.729 2.914.179.214.247.466.151.561-.096.095-.328-.036-.516-.29a1.215 1.215 0 00-.193-.213c.135.228.272.454.41.68.213.162.33.355.313.504l.161.256c.037-.009.077-.021.121-.035.286-.089.568-.031.675.139.102.163.057.335-.1.387a.426.426 0 00-.23.228zm26.357-68.001c-.173-.002-.143-.096.074-.234.463-.296.546-.296.361 0a.562.562 0 01-.435.234zm4.153.48c-.14 0-.188-.108-.106-.238.082-.131.196-.238.255-.238.058 0 .106.107.106.238 0 .13-.115.237-.255.237zm-5.524.202c-.836.288-.986.125-.18-.195.61-.242.903-.29.903-.15 0 .053-.325.208-.723.345zm33.72 3.367c-.139 0-.253-.098-.253-.217 0-.12.542.009 1.204.285.662.276 1.204.579 1.204.672 0 .093-.428-.036-.951-.285-.524-.25-1.065-.455-1.204-.455zm-43.712 3.689l.459-.536c.252-.294.496-.535.542-.535.192 0 .05.192-.459.617l-.542.454zm-6.485 4.678c.256-.438.827-1.214 1.267-1.725.866-1.005 1.311-1.267.671-.395-.217.295-.648.912-.96 1.372-.312.46-.764.995-1.005 1.19-.406.327-.404.293.027-.442zm.339 4.603c.191-.262.504-.663.695-.893.193-.229.391-.416.441-.416.21 0-.404.873-.922 1.312-.559.472-.56.472-.214-.003zm-11.413 3.212c.027-.196.281-.88.564-1.52.283-.64.575-1.105.649-1.032.073.073.008.365-.146.649-.154.284-.221.575-.149.646.072.071.26-.152.419-.497.315-.684.693-.832.693-.272 0 .195-.417 1.453-.926 2.797-.919 2.425-2.016 6.586-2.338 8.868-.093.654-.217 1.273-.277 1.375-.189.325-.28 3.644-.107 3.92.163.261.289-.738.346-2.737.016-.557.126-1.012.246-1.012s.152-.169.072-.375c-.214-.552.094-1.528.482-1.528.184 0 .335-.129.335-.286 0-.207.073-.214.263-.026.19.189.183.646-.027 1.654-.159.767-.345 1.485-.412 1.595-.067.111-.164 1.128-.217 2.261-.052 1.133-.15 2.233-.218 2.444-.098.306-.385 5.835-.381 7.35 0 .196.127 1.32.28 2.499.154 1.178.274 2.35.266 2.607-.007.255.075.577.183.714.108.136.264.758.346 1.38.082.623.313 1.667.514 2.32l.749 2.438c.912 2.973 3.921 8.376 5.813 10.437.313.341.536.716.497.833-.04.117.014.236.118.264.333.09 2.373 2.543 2.608 3.135.124.312.293.502.375.42.082-.081.926.602 1.875 1.518s1.936 1.824 2.191 2.017c.256.193 1.42 1.101 2.586 2.019 1.166.917 2.22 1.668 2.343 1.668.123 0 .927.425 1.787.946.86.52 1.838 1.014 2.174 1.097.335.083.679.263.765.399.096.155.036.176-.16.056-.214-.13-.258-.099-.136.095.099.158.305.246.459.195.153-.051 1.113.318 2.132.82 1.019.502 1.967.913 2.107.913.139 0 .253.107.253.238s-.217.238-.481.238c-.265 0-.482-.113-.482-.252 0-.138-.097-.193-.215-.121-.118.073-.598-.026-1.065-.219-.657-.271-.878-.284-.973-.058-.072.173-.19.075-.287-.242-.09-.295-.257-.536-.37-.536-.113 0-.138.173-.056.384.114.294-.1.242-.91-.22a82.552 82.552 0 00-2.804-1.489c-.96-.486-1.867-1.03-2.016-1.207-.149-.178-.374-.323-.499-.323s-.599-.281-1.054-.624c-.454-.342-.826-.557-.826-.476 0 .171.908 1.1 1.076 1.1.062 0 .847.465 1.745 1.034a68.954 68.954 0 003.318 1.949c.927.504 1.742.995 1.811 1.093.069.097.427.291.797.43.369.139.607.355.529.48-.166.265-.849.062-.849-.252 0-.117-.14-.213-.311-.213-.583 0-5.468-2.738-5.468-3.064 0-.104-.143-.188-.318-.188-.415 0-3.079-1.987-2.947-2.199.056-.089-.116-.178-.381-.198-.416-.03-.441.021-.176.367.264.347.258.36-.042.094-.192-.17-.349-.385-.349-.477 0-.269-4.941-4.917-5.317-5.002-.188-.042-.342-.193-.342-.336 0-.143-.624-.965-1.387-1.827-3.74-4.226-5.536-7.025-7.652-11.92-.987-2.282-2.027-5.295-1.899-5.5.061-.098.001-.245-.133-.328-.135-.082-.245-.412-.245-.733s-.108-.797-.241-1.057l-.489-.958c-.137-.267-.196-.57-.132-.674.065-.103-.039-.768-.232-1.477-.402-1.484-.751-4.294-.959-7.716-.313-5.159 1.324-15.298 3.094-19.153.271-.591.515-1.235.541-1.431zm8.264 2.487c-.638.67.258-1.555 1.076-2.67.122-.167.275-.252.339-.189.121.12-1.039 2.465-1.415 2.86zm75.146 4.653c-.128-.197-.233-.464-.233-.595 0-.131.105-.078.233.119.128.196.233.464.233.595 0 .13-.105.077-.233-.12zm8.498 19.79c-.028-.348-.002-.774.058-.946.118-.34.593-.163.593.222 0 .13-.108.172-.24.09-.133-.08-.241.012-.241.205 0 .193.12.39.267.44.179.058.159.176-.06.356-.261.214-.338.139-.377-.366zm-1.675 5.911c.071-.327.271-.997.444-1.487.312-.883.317-.886.484-.267.127.47.016.842-.444 1.487-.529.742-.596.78-.484.267zm-1.11 4.665c-.08.08-.287.088-.461.02-.192-.077-.135-.133.145-.144.254-.01.396.046.316.124zm-1.152 1.76c-.125 0-.227-.089-.227-.198 0-.109.158-.198.351-.198.192 0 .294.09.226.198a.463.463 0 01-.35.199zm-.198 1.351c-.283.482-.352.328-.12-.27.083-.213.201-.337.263-.276.062.062-.002.307-.143.546zm-1.699 2.918c-.603.596-.666.215-.078-.464.231-.266.455-.381.497-.255.043.126-.146.449-.419.719zm-4.613.568a2.335 2.335 0 01-.005-.493c.015-.164.13-.298.255-.298.519 0 .445.473-.215 1.374-.777 1.059-1.216 1.418-1.216.994 0-.154-.225-.026-.5.283-.703.79-.277.028.58-1.037.391-.487.807-.828.924-.756.116.071.196.041.177-.067zm-3.408 3.735c-.52.25-.523.245-.074-.11.491-.389.616-.442.616-.26 0 .061-.244.228-.542.37zm-.148.821c-.076-.075.02-.237.215-.359.51-.318.577-.279.229.134-.167.2-.367.301-.444.225zm4.331-.048c-.238.233-.265.206-.135-.133.091-.235.225-.367.3-.294.074.074 0 .266-.165.427zm-5.026.919c-.382.296-.39.287-.091-.09.315-.396.513-.522.513-.327 0 .05-.19.237-.422.417zm3.702.445c-.124 0-.029-.214.211-.476.239-.261.526-.475.637-.475.11 0 .015.214-.212.475-.226.262-.513.476-.636.476zm-4.785-.023c-.54.328-.54.327-.083-.181.49-.545.625-.616.625-.329 0 .1-.244.329-.542.51zm-.783 1.332l.459-.535c.252-.295.496-.536.542-.536.192 0 .05.192-.459.618l-.542.453zm2.764 1.411c.328-.383.973-1.098 1.433-1.589.942-1.005.98-1.026.98-.552 0 .188-.2.404-.445.481-.245.077-.562.392-.704.701-.142.308-.619.807-1.059 1.108l-.802.548.597-.697zm-3.58.891c.053-.157.692-.762 1.419-1.344.728-.582 1.357-1.063 1.398-1.068.202-.024-.375.648-1.012 1.178-1.443 1.202-1.9 1.514-1.805 1.234zm-54.922-.517c-.265-.14-.482-.308-.482-.373 0-.066.217-.005.482.135s.482.308.482.374c0 .065-.217.004-.482-.136zm53.904 1.428c-.132 0-.174-.107-.092-.238.082-.131.257-.238.39-.238.132 0 .174.107.092.238-.082.131-.257.238-.39.238zm1.112 1.229l.722-.613c.741-.629.843-.691.843-.513 0 .056-.352.333-.782.614l-.783.512zm1.506.086c-.166.085-.031-.067.3-.337.331-.27.764-.493.963-.495.316-.004.124.123-1.263.832zm-4.771.113c-.14 0-.188-.107-.106-.238s.197-.238.255-.238c.059 0 .106.107.106.238s-.114.238-.255.238zm-.841 2.708c-.214.082-.31.042-.226-.093.081-.129.249-.235.373-.235.347 0 .27.17-.147.328zm-7.872 4.429c.231-.001 2.263-.906 4.514-2.01a364.737 364.737 0 014.153-2.02c.626-.137-2.575 1.747-4.514 2.658-3.986 1.871-4.575 2.078-4.575 1.612 0-.131.19-.239.422-.24zm6.187-3.477c-.214.082-.311.042-.227-.093.081-.13.249-.235.374-.235.346 0 .27.17-.147.328zm-8.563 1.575c-.133 0-.174-.107-.092-.238.082-.131.257-.238.389-.238.133 0 .174.107.092.238-.082.131-.257.238-.389.238zm-30.355 2.614c-.224.002-.474-.103-.556-.234-.188-.301.131-.301.602 0 .311.199.305.231-.046.234zm30.985.242c-.199 0-.361-.107-.361-.238s.162-.238.361-.238c.199 0 .361.107.361.238s-.162.238-.361.238zm-32.745.086c-.198-.075-.361-.179-.361-.23 0-.052.163-.094.361-.094.199 0 .362.104.362.231 0 .126-.163.168-.362.093zm29.868.413c.126-.118.445-.266.71-.329.874-.208.971-.158.361.187-.677.383-1.434.483-1.071.142zm-29.901.663c-.284.016-.771-.177-1.083-.426l-.567-.454.661.124c.364.069.661.212.661.318 0 .106.19.242.422.302.333.086.313.114-.094.136zm1.418-.766a.94.94 0 01-.602 0c-.166-.066-.03-.12.301-.12.331 0 .466.054.301.12zm11.289.731c.232.229-1.947-.03-2.561-.305-.133-.06.334-.07 1.037-.023.703.047 1.389.195 1.524.328zm-10.944.689c-.499.093-.501.086-.044-.128.732-.344 1.128-.304 2.109.216.494.262 1.177.476 1.517.476.34 0 .855.128 1.145.284.289.156.809.257 1.156.223.616-.059 1.581.599 1.294.883-.08.078-.243-.014-.363-.206-.12-.192-.496-.37-.835-.396-.339-.026-.554.054-.477.177.077.124.025.225-.115.225s-.255-.107-.255-.238-.162-.238-.361-.238c-.198 0-.361-.097-.361-.216 0-.118-.431-.158-.959-.088-.735.098-.992.039-1.105-.25-.106-.274-.338-.34-.843-.24-.495.098-.738.033-.837-.222-.084-.217-.347-.321-.666-.262zm10.309-.013l1.204-.15c1.7-.212 3.625-.251 4.072-.081.495.188.248.57-.369.57-.265 0-.414.107-.332.238.087.14-.178.236-.648.234-.537-.002-.691-.07-.471-.208.208-.13-.357-.276-1.565-.403l-1.891-.2zm13.281.907c-.115-.121.505-.318 1.445-.46 2.03-.307 2.74-.137 1.141.272-1.791.459-3.708.663-3.708.394 0-.128.298-.179.662-.114.38.068.576.029.46-.092zm-3.21.216c.179.068.463.04.631-.063.367-.224 1.216-.04 1.216.263 0 .118-.272.147-.605.065-.333-.083-.754-.029-.935.12-.254.209-.365.181-.481-.119-.103-.266-.048-.35.174-.266zm12.376-.165c-.08.079-.288.088-.462.019-.192-.076-.135-.132.146-.143.254-.011.396.045.316.124zm-21.54.251c-.163.065-.488.069-.722.009-.234-.061-.101-.114.296-.119.398-.005.589.045.426.11zm1.158 1.015c.281-.278.438-.654.358-.859-.107-.277-.038-.322.283-.185.233.099.601.187.818.196.218.009.341.153.275.323-.065.168.042.306.239.306.196 0 .492.16.657.357.262.311.082.357-1.415.357h-1.715l.5-.495zm3.172-.875c.629.067 1.143.027 1.143-.088 0-.284.419-.264.602.03.082.131.021.238-.135.238-.212 0-.209.091.015.357.244.291.231.357-.071.357-.204 0-.407-.102-.451-.227-.044-.125-.49-.271-.991-.325-.501-.054-.988-.181-1.083-.281-.095-.1.341-.128.971-.061zm-6.789.531c-.545-.179-.554-.206-.121-.359.309-.109.496-.052.548.165.044.182.206.316.361.297.57-.07.884.028.884.274 0 .142-.131.171-.301.065a1.702 1.702 0 00-.541-.217 6.827 6.827 0 01-.83-.225zm9.153.026c-.225-.268-.194-.36.151-.449a5.81 5.81 0 01.857-.139c.365-.023.382.039.123.449-.354.56-.738.607-1.131.139zm7.985.678c-.977.113-.899.068.545-.315.927-.247 1.903-.449 2.167-.451.766-.007-1.454.621-2.712.766zm-14.442-.184a.94.94 0 01-.602 0c-.166-.066-.03-.12.301-.12.331 0 .466.054.301.12zm7.825.417c-.572.102-.903.07-.903-.088 0-.137.451-.248 1.003-.248 1.183 0 1.149.112-.1.336z" fill="#DF0000"/></svg>